<svg version="1.0" preserveAspectRatio="xMidYMid meet" viewBox="10.5 72.50002325999941 353.25 239.24999425800002" zoomAndPan="magnify" xmlns:xlink="http://www.w3.org/1999/xlink" xmlns="http://www.w3.org/2000/svg" style="max-height: 500px" width="353.25" height="239.24999425800002"><defs><g/><clipPath id="f391f59d8e"><path clip-rule="nonzero" d="M 108 198 L 355.128906 198 L 355.128906 305.246094 L 108 305.246094 Z M 108 198"/></clipPath><clipPath id="ae41c4a4f8"><path clip-rule="nonzero" d="M 19.878906 189.746094 L 247 189.746094 L 247 297 L 19.878906 297 Z M 19.878906 189.746094"/></clipPath><clipPath id="41efff59f1"><path clip-rule="nonzero" d="M 33 84.074219 L 114 84.074219 L 114 262.574219 L 33 262.574219 Z M 33 84.074219"/></clipPath><clipPath id="45a98ad550"><rect height="236" y="0" width="223" x="0"/></clipPath><clipPath id="f5e3042554"><path clip-rule="nonzero" d="M 29 6 L 37 6 L 37 17.71875 L 29 17.71875 Z M 29 6"/></clipPath><clipPath id="6d8ab5e88b"><path clip-rule="nonzero" d="M 197 6 L 204.601562 6 L 204.601562 15 L 197 15 Z M 197 6"/></clipPath><clipPath id="1c65a35eff"><rect height="18" y="0" width="205" x="0"/></clipPath></defs><rect fill-opacity="1" height="449.999989" y="-37.499999" fill="#ffffff" width="450" x="-37.5"/><rect fill-opacity="1" height="449.999989" y="-37.499999" fill="#ffffff" width="450" x="-37.5"/><g clip-path="url(#f391f59d8e)"><path fill-rule="nonzero" fill-opacity="1" d="M 108.859375 199.21875 C 108.859375 199.21875 109.160156 199.199219 109.742188 199.15625 C 110.324219 199.125 111.183594 199.027344 112.3125 199.003906 C 113.441406 198.984375 114.863281 198.933594 116.511719 199.015625 C 116.925781 199.03125 117.355469 199.042969 117.800781 199.054688 C 118.246094 199.089844 118.703125 199.125 119.179688 199.160156 C 119.652344 199.199219 120.144531 199.242188 120.652344 199.285156 C 121.15625 199.34375 121.671875 199.40625 122.203125 199.472656 C 124.347656 199.703125 126.6875 200.167969 129.246094 200.730469 C 131.789062 201.332031 134.511719 202.152344 137.382812 203.171875 C 140.246094 204.203125 143.210938 205.519531 146.277344 207.035156 C 149.339844 208.558594 152.4375 210.371094 155.59375 212.367188 C 161.867188 216.398438 168.230469 221.3125 174.535156 226.757812 C 180.859375 232.195312 187.171875 238.125 193.625 244.054688 C 200.089844 249.980469 206.710938 255.917969 213.683594 261.328125 C 220.644531 266.75 227.980469 271.613281 235.707031 275.53125 C 243.417969 279.484375 251.539062 282.441406 259.851562 284.410156 C 261.925781 284.90625 264.015625 285.335938 266.109375 285.714844 C 267.097656 285.882812 268.082031 286.054688 269.066406 286.226562 C 270.207031 286.375 271.34375 286.523438 272.480469 286.671875 C 272.753906 286.707031 273.066406 286.753906 273.3125 286.777344 L 274.042969 286.84375 L 275.507812 286.980469 L 276.964844 287.125 L 278.503906 287.203125 L 280.035156 287.28125 C 280.546875 287.3125 281.058594 287.339844 281.566406 287.335938 C 282.585938 287.347656 283.597656 287.363281 284.609375 287.375 C 286.625 287.308594 288.640625 287.300781 290.621094 287.128906 C 291.117188 287.09375 291.613281 287.0625 292.109375 287.027344 C 292.601562 286.992188 293.089844 286.921875 293.582031 286.871094 C 294.558594 286.757812 295.542969 286.6875 296.507812 286.539062 C 300.386719 286.03125 304.144531 285.238281 307.765625 284.296875 C 311.394531 283.367188 314.847656 282.164062 318.136719 280.847656 C 319.792969 280.214844 321.359375 279.460938 322.925781 278.757812 C 324.445312 277.976562 325.957031 277.222656 327.386719 276.402344 C 328.851562 275.628906 330.195312 274.738281 331.550781 273.90625 C 332.847656 273.007812 334.144531 272.148438 335.339844 271.226562 C 336.578125 270.347656 337.675781 269.378906 338.796875 268.464844 C 339.328125 267.980469 339.847656 267.503906 340.359375 267.03125 C 340.621094 266.796875 340.878906 266.5625 341.132812 266.328125 C 341.375 266.085938 341.617188 265.84375 341.855469 265.605469 C 343.835938 263.726562 345.394531 261.726562 346.890625 259.871094 C 348.277344 257.960938 349.488281 256.117188 350.429688 254.363281 C 352.320312 250.855469 353.402344 247.800781 353.949219 245.660156 C 354.121094 245.125 354.210938 244.648438 354.304688 244.234375 C 354.390625 243.816406 354.46875 243.460938 354.53125 243.179688 C 354.652344 242.609375 354.714844 242.3125 354.714844 242.3125 C 354.714844 242.3125 354.753906 242.613281 354.828125 243.1875 C 354.867188 243.480469 354.914062 243.84375 354.96875 244.269531 C 355.03125 244.703125 355.089844 245.207031 355.09375 245.773438 C 355.113281 246.347656 355.132812 246.988281 355.152344 247.695312 C 355.160156 248.40625 355.082031 249.171875 355.042969 250.015625 C 355.019531 250.863281 354.871094 251.75 354.742188 252.714844 C 354.625 253.6875 354.386719 254.683594 354.148438 255.757812 C 353.941406 256.84375 353.578125 257.933594 353.222656 259.101562 C 353.054688 259.695312 352.824219 260.265625 352.597656 260.863281 C 352.367188 261.460938 352.132812 262.074219 351.894531 262.699219 C 351.332031 263.894531 350.8125 265.207031 350.097656 266.457031 C 349.753906 267.09375 349.402344 267.738281 349.042969 268.398438 C 348.660156 269.042969 348.25 269.683594 347.84375 270.347656 C 347.636719 270.675781 347.433594 271.007812 347.222656 271.34375 C 346.996094 271.664062 346.769531 271.988281 346.539062 272.316406 C 346.070312 272.964844 345.605469 273.632812 345.109375 274.296875 C 344.082031 275.578125 343.042969 276.941406 341.863281 278.222656 C 340.730469 279.558594 339.4375 280.789062 338.136719 282.09375 C 336.785156 283.320312 335.414062 284.625 333.914062 285.816406 C 332.453125 287.078125 330.847656 288.1875 329.230469 289.375 C 327.570312 290.480469 325.886719 291.640625 324.089844 292.679688 C 320.523438 294.800781 316.679688 296.757812 312.570312 298.394531 C 311.550781 298.839844 310.507812 299.21875 309.453125 299.597656 C 308.394531 299.976562 307.335938 300.378906 306.246094 300.699219 C 305.164062 301.035156 304.074219 301.398438 302.964844 301.710938 C 301.847656 302 300.730469 302.289062 299.601562 302.585938 C 295.070312 303.671875 290.351562 304.453125 285.515625 304.910156 C 284.304688 304.992188 283.089844 305.078125 281.867188 305.160156 C 280.644531 305.261719 279.414062 305.234375 278.179688 305.273438 C 277.5625 305.28125 276.945312 305.292969 276.328125 305.304688 C 275.679688 305.285156 275.035156 305.269531 274.386719 305.25 C 273.738281 305.234375 273.089844 305.210938 272.4375 305.195312 L 271.460938 305.160156 C 271.136719 305.148438 270.882812 305.121094 270.585938 305.101562 C 269.445312 305.015625 268.300781 304.929688 267.152344 304.84375 L 266.9375 304.828125 C 266.808594 304.816406 267.074219 304.847656 266.617188 304.796875 L 266.503906 304.785156 L 266.039062 304.730469 L 265.113281 304.625 L 263.253906 304.410156 C 260.773438 304.074219 258.285156 303.675781 255.796875 303.191406 C 245.847656 301.25 235.925781 297.839844 226.746094 293.140625 C 222.160156 290.792969 217.738281 288.167969 213.542969 285.3125 C 212.496094 284.597656 211.460938 283.875 210.433594 283.144531 C 209.425781 282.390625 208.398438 281.660156 207.414062 280.890625 C 205.429688 279.363281 203.472656 277.828125 201.605469 276.226562 C 194.054688 269.878906 187.382812 263.078125 181.257812 256.445312 C 175.132812 249.808594 169.542969 243.324219 164.183594 237.386719 C 158.824219 231.445312 153.714844 226.019531 148.671875 221.425781 C 143.65625 216.800781 138.714844 213.003906 134.050781 210 C 131.714844 208.5 129.429688 207.25 127.292969 206.101562 C 125.128906 205.015625 123.09375 204.0625 121.207031 203.292969 C 117.4375 201.746094 114.324219 200.765625 112.191406 200.136719 C 110.019531 199.539062 108.859375 199.21875 108.859375 199.21875" fill="#dee2e3"/></g><g clip-path="url(#ae41c4a4f8)"><path fill-rule="nonzero" fill-opacity="1" d="M 158.789062 231.515625 C 151.6875 238.039062 144.554688 244.9375 137.109375 251.46875 C 128.597656 258.871094 119.59375 265.734375 109.757812 270.289062 C 104.847656 272.570312 99.730469 274.246094 94.457031 275.292969 C 93.800781 275.433594 93.128906 275.519531 92.46875 275.640625 C 91.789062 275.769531 91.171875 275.839844 90.554688 275.921875 C 89.925781 276 89.378906 276.09375 88.535156 276.160156 L 87.371094 276.273438 L 86.792969 276.328125 L 86.546875 276.351562 L 86.425781 276.359375 C 83.71875 276.550781 81.003906 276.566406 78.304688 276.445312 C 75.605469 276.339844 72.925781 276.011719 70.289062 275.546875 C 67.65625 275.070312 65.058594 274.457031 62.539062 273.652344 C 57.523438 272.03125 52.789062 269.757812 48.78125 266.871094 C 46.773438 265.4375 44.960938 263.84375 43.414062 262.152344 C 41.855469 260.472656 40.570312 258.679688 39.667969 256.863281 C 39.453125 256.40625 39.203125 255.960938 39.039062 255.507812 L 38.757812 254.828125 L 38.539062 254.148438 C 38.363281 253.699219 38.296875 253.246094 38.167969 252.800781 C 38.132812 252.683594 38.105469 252.570312 38.101562 252.511719 L 38.0625 252.285156 L 38.011719 252.0625 L 37.980469 251.953125 L 37.960938 251.894531 C 37.957031 251.882812 37.949219 251.863281 37.949219 251.804688 L 37.875 250.691406 L 37.835938 250.152344 L 37.835938 250.128906 C 37.839844 249.683594 37.804688 249.238281 37.863281 248.792969 C 37.882812 248.574219 37.886719 248.347656 37.90625 248.125 L 38.015625 247.460938 C 38.054688 247.007812 38.210938 246.566406 38.296875 246.113281 C 39.222656 242.511719 41.777344 238.886719 45.085938 235.738281 C 48.421875 232.582031 52.511719 229.976562 56.796875 227.855469 C 61.082031 225.710938 65.609375 224.128906 70.109375 222.902344 C 71.234375 222.574219 72.367188 222.328125 73.488281 222.050781 C 74.617188 221.8125 75.738281 221.5625 76.855469 221.363281 C 77.980469 221.167969 79.089844 220.960938 80.203125 220.820312 C 80.757812 220.738281 81.308594 220.660156 81.855469 220.582031 C 82.394531 220.515625 82.925781 220.453125 83.457031 220.386719 C 84.472656 220.238281 85.703125 220.164062 86.832031 220.0625 L 87.257812 220.027344 L 87.363281 220.019531 C 87.476562 220.015625 87.335938 220.011719 87.386719 220.011719 L 87.585938 220 L 88.390625 219.960938 C 88.929688 219.933594 89.460938 219.90625 89.992188 219.882812 C 90.523438 219.855469 91.050781 219.820312 91.574219 219.804688 C 92.101562 219.804688 92.621094 219.800781 93.144531 219.800781 C 94.179688 219.8125 95.214844 219.738281 96.222656 219.796875 C 100.296875 219.824219 104.136719 220.265625 107.75 220.746094 C 111.367188 221.25 114.683594 222.0625 117.765625 222.867188 C 120.792969 223.777344 123.582031 224.71875 125.996094 225.804688 C 126.601562 226.074219 127.214844 226.304688 127.769531 226.589844 C 128.332031 226.871094 128.878906 227.148438 129.40625 227.414062 C 130.488281 227.917969 131.417969 228.519531 132.332031 229.027344 C 133.257812 229.523438 134.007812 230.117188 134.761719 230.59375 C 135.519531 231.070312 136.140625 231.570312 136.707031 232.011719 C 137.269531 232.464844 137.804688 232.828125 138.214844 233.214844 C 138.632812 233.59375 138.984375 233.910156 139.269531 234.164062 C 139.832031 234.675781 140.125 234.941406 140.125 234.941406 C 140.125 234.941406 139.910156 234.609375 139.496094 233.972656 C 139.285156 233.652344 139.027344 233.257812 138.722656 232.785156 C 138.429688 232.308594 137.984375 231.8125 137.527344 231.21875 C 135.667969 228.859375 132.605469 225.621094 127.9375 222.367188 C 125.644531 220.679688 122.902344 219.136719 119.847656 217.546875 C 118.292969 216.832031 116.6875 216 114.949219 215.355469 C 114.082031 215.015625 113.210938 214.632812 112.300781 214.316406 C 111.390625 214 110.460938 213.679688 109.519531 213.355469 C 108.578125 213.015625 107.597656 212.765625 106.609375 212.46875 C 105.621094 212.183594 104.613281 211.894531 103.578125 211.667969 C 102.542969 211.429688 101.496094 211.167969 100.425781 210.9375 C 99.351562 210.738281 98.261719 210.53125 97.15625 210.324219 C 96.601562 210.210938 96.042969 210.121094 95.480469 210.050781 C 94.917969 209.972656 94.347656 209.894531 93.777344 209.816406 C 93.203125 209.742188 92.628906 209.664062 92.046875 209.589844 C 91.46875 209.523438 90.882812 209.480469 90.292969 209.425781 C 89.703125 209.375 89.109375 209.324219 88.515625 209.273438 L 87.617188 209.191406 L 87.390625 209.175781 L 87.089844 209.164062 L 86.660156 209.140625 C 85.496094 209.085938 84.410156 208.996094 83.089844 208.992188 C 82.449219 208.980469 81.804688 208.96875 81.160156 208.960938 C 80.523438 208.957031 79.898438 208.976562 79.257812 208.988281 C 77.988281 209.003906 76.703125 209.085938 75.402344 209.152344 C 74.105469 209.226562 72.796875 209.351562 71.46875 209.476562 C 70.148438 209.632812 68.808594 209.765625 67.464844 209.984375 C 64.769531 210.355469 62.042969 210.9375 59.285156 211.628906 C 56.527344 212.304688 53.753906 213.199219 50.960938 214.230469 C 49.5625 214.742188 48.171875 215.332031 46.773438 215.945312 C 45.394531 216.601562 44.003906 217.269531 42.628906 218.03125 C 39.875 219.539062 37.152344 221.285156 34.527344 223.371094 C 31.90625 225.453125 29.378906 227.875 27.152344 230.765625 C 24.933594 233.652344 22.953125 236.980469 21.65625 240.773438 C 21.359375 241.734375 21.011719 242.675781 20.808594 243.679688 L 20.464844 245.171875 C 20.371094 245.671875 20.304688 246.183594 20.226562 246.691406 C 20.050781 247.710938 19.996094 248.742188 19.933594 249.78125 L 19.914062 250.167969 L 19.902344 250.363281 L 19.910156 250.875 L 19.917969 251.433594 L 19.933594 252.546875 C 19.964844 253.066406 20.027344 253.707031 20.085938 254.28125 C 20.148438 254.851562 20.207031 255.511719 20.304688 255.976562 C 20.492188 256.984375 20.648438 258.019531 20.933594 258.992188 L 21.332031 260.472656 C 21.484375 260.957031 21.652344 261.429688 21.816406 261.910156 C 22.132812 262.878906 22.53125 263.792969 22.929688 264.710938 C 24.558594 268.367188 26.722656 271.628906 29.167969 274.53125 C 31.621094 277.433594 34.367188 279.976562 37.277344 282.222656 C 40.191406 284.472656 43.292969 286.398438 46.496094 288.066406 C 49.699219 289.734375 53.015625 291.136719 56.410156 292.277344 C 63.195312 294.542969 70.257812 295.832031 77.332031 296.183594 C 80.871094 296.34375 84.40625 296.292969 87.921875 296.027344 L 88.085938 296.015625 L 88.429688 295.984375 L 89.300781 295.894531 L 90.464844 295.78125 C 91.175781 295.722656 92.167969 295.574219 93.078125 295.445312 C 94.007812 295.316406 94.9375 295.183594 95.785156 295.011719 C 96.652344 294.847656 97.519531 294.707031 98.382812 294.515625 C 105.292969 293.070312 111.972656 290.660156 118.125 287.589844 C 124.265625 284.496094 129.902344 280.796875 135.003906 276.800781 C 140.121094 272.8125 144.75 268.574219 149.054688 264.296875 C 156.40625 257.011719 162.875 249.6875 169.066406 242.855469 C 167.414062 240.992188 165.785156 239.160156 164.183594 237.386719 C 162.355469 235.363281 160.5625 233.40625 158.789062 231.515625 Z M 245.148438 189.90625 C 244.386719 189.929688 243.246094 189.898438 241.769531 189.984375 C 241.027344 190.019531 240.203125 190.066406 239.292969 190.113281 C 238.378906 190.167969 237.394531 190.277344 236.316406 190.371094 C 234.167969 190.574219 231.703125 190.90625 228.949219 191.386719 C 227.574219 191.632812 226.128906 191.917969 224.613281 192.253906 C 223.109375 192.613281 221.523438 192.976562 219.890625 193.445312 C 216.613281 194.324219 213.113281 195.488281 209.441406 196.929688 C 205.765625 198.367188 201.945312 200.148438 198.011719 202.207031 C 194.082031 204.277344 190.082031 206.699219 186.039062 209.398438 C 182 212.105469 177.964844 215.148438 173.898438 218.386719 C 173.539062 218.675781 173.179688 218.976562 172.820312 219.269531 C 174.492188 220.625 176.164062 222.027344 177.832031 223.464844 C 179.546875 224.941406 181.265625 226.460938 182.984375 228 C 186.359375 224.59375 189.699219 221.40625 193.019531 218.480469 C 199.785156 212.480469 206.496094 207.601562 212.808594 203.785156 C 215.953125 201.847656 219.03125 200.257812 221.914062 198.820312 C 224.796875 197.378906 227.539062 196.238281 230.035156 195.210938 C 235.046875 193.230469 239.140625 191.929688 241.957031 191.117188 C 244.789062 190.320312 246.304688 189.898438 246.304688 189.898438 C 246.304688 189.898438 245.90625 189.902344 245.148438 189.90625" fill="#dee2e3"/></g><g clip-path="url(#41efff59f1)"><path fill-rule="nonzero" fill-opacity="1" d="M 113.972656 84.074219 C 104.914062 84.929688 96.109375 87.148438 87.699219 90.707031 C 77.042969 95.214844 67.46875 101.667969 59.253906 109.886719 C 51.035156 118.105469 44.582031 127.675781 40.074219 138.335938 C 35.402344 149.375 33.035156 161.097656 33.035156 173.175781 C 33.035156 185.257812 35.402344 196.980469 40.074219 208.019531 C 44.582031 218.679688 51.035156 228.25 59.253906 236.46875 C 61.773438 238.988281 64.421875 241.339844 67.1875 243.523438 L 67.1875 223.832031 C 56.476562 212.140625 49.414062 197.054688 47.816406 180.394531 L 99.539062 180.394531 L 99.539062 259.703125 C 104.265625 260.957031 109.082031 261.816406 113.976562 262.277344 L 113.976562 90.886719 L 113.972656 90.886719 Z M 47.816406 165.957031 C 50.710938 135.765625 71.566406 110.734375 99.539062 101.710938 L 99.539062 165.957031 Z M 47.816406 165.957031" fill="#000080"/></g><g transform="matrix(1, 0, 0, 1, 111, 55)"><g clip-path="url(#45a98ad550)"><g fill-opacity="1" fill="#000080"><g transform="translate(0.667599, 184.50905)"><g><path d="M 32.8125 0 L 18.640625 0 L 18.640625 -123.328125 L 36.4375 -123.328125 L 96.59375 -29.109375 L 98.703125 -29.4375 L 98.703125 -123.328125 L 112.78125 -123.328125 L 112.78125 0 L 97.609375 0 L 34.921875 -100.8125 L 32.8125 -100.46875 Z M 32.8125 0"/></g></g></g><g fill-opacity="1" fill="#000080"><g transform="translate(114.724647, 184.50905)"><g><path d="M 18.640625 0 L 18.640625 -123.328125 L 33.15625 -123.328125 L 33.15625 -69.421875 L 35.765625 -69.421875 L 86.390625 -123.328125 L 102.234375 -123.328125 L 102.234375 -121.21875 L 48.84375 -63.609375 L 106.453125 -2.109375 L 106.453125 0 L 89.84375 0 L 35.765625 -56.765625 L 33.15625 -56.765625 L 33.15625 0 Z M 18.640625 0"/></g></g></g></g></g><g transform="matrix(1, 0, 0, 1, 129, 247)"><g clip-path="url(#1c65a35eff)"><g fill-opacity="1" fill="#000080"><g transform="translate(0.706521, 14.058808)"><g><path d="M 0.921875 0 L 0.921875 -10.359375 L 4.109375 -10.359375 C 5.015625 -10.359375 5.828125 -10.148438 6.546875 -9.734375 C 7.265625 -9.328125 7.828125 -8.742188 8.234375 -7.984375 C 8.640625 -7.234375 8.84375 -6.375 8.84375 -5.40625 L 8.84375 -4.9375 C 8.84375 -3.96875 8.644531 -3.109375 8.25 -2.359375 C 7.851562 -1.617188 7.289062 -1.039062 6.5625 -0.625 C 5.84375 -0.207031 5.03125 0 4.125 0 Z M 3.0625 -8.625 L 3.0625 -1.71875 L 4.09375 -1.71875 C 4.925781 -1.71875 5.5625 -1.988281 6 -2.53125 C 6.4375 -3.070312 6.660156 -3.851562 6.671875 -4.875 L 6.671875 -5.421875 C 6.671875 -6.472656 6.453125 -7.269531 6.015625 -7.8125 C 5.585938 -8.351562 4.953125 -8.625 4.109375 -8.625 Z M 3.0625 -8.625"/></g></g></g><g fill-opacity="1" fill="#000080"><g transform="translate(10.171452, 14.058808)"><g><path d="M 4.328125 0.140625 C 3.203125 0.140625 2.285156 -0.203125 1.578125 -0.890625 C 0.867188 -1.585938 0.515625 -2.507812 0.515625 -3.65625 L 0.515625 -3.859375 C 0.515625 -4.628906 0.660156 -5.316406 0.953125 -5.921875 C 1.253906 -6.535156 1.675781 -7.003906 2.21875 -7.328125 C 2.769531 -7.660156 3.398438 -7.828125 4.109375 -7.828125 C 5.160156 -7.828125 5.988281 -7.492188 6.59375 -6.828125 C 7.195312 -6.171875 7.5 -5.234375 7.5 -4.015625 L 7.5 -3.171875 L 2.59375 -3.171875 C 2.65625 -2.671875 2.851562 -2.269531 3.1875 -1.96875 C 3.53125 -1.664062 3.957031 -1.515625 4.46875 -1.515625 C 5.257812 -1.515625 5.878906 -1.800781 6.328125 -2.375 L 7.328125 -1.25 C 7.023438 -0.8125 6.609375 -0.46875 6.078125 -0.21875 C 5.554688 0.0195312 4.972656 0.140625 4.328125 0.140625 Z M 4.09375 -6.171875 C 3.6875 -6.171875 3.351562 -6.03125 3.09375 -5.75 C 2.84375 -5.476562 2.679688 -5.085938 2.609375 -4.578125 L 5.46875 -4.578125 L 5.46875 -4.75 C 5.46875 -5.195312 5.347656 -5.546875 5.109375 -5.796875 C 4.867188 -6.046875 4.53125 -6.171875 4.09375 -6.171875 Z M 4.09375 -6.171875"/></g></g></g><g fill-opacity="1" fill="#000080"><g transform="translate(18.043487, 14.058808)"><g><path d="M 4.953125 -2.125 C 4.953125 -2.375 4.828125 -2.570312 4.578125 -2.71875 C 4.328125 -2.863281 3.929688 -2.992188 3.390625 -3.109375 C 1.554688 -3.492188 0.640625 -4.269531 0.640625 -5.4375 C 0.640625 -6.125 0.921875 -6.691406 1.484375 -7.140625 C 2.054688 -7.597656 2.800781 -7.828125 3.71875 -7.828125 C 4.6875 -7.828125 5.460938 -7.597656 6.046875 -7.140625 C 6.640625 -6.679688 6.9375 -6.085938 6.9375 -5.359375 L 4.875 -5.359375 C 4.875 -5.648438 4.78125 -5.890625 4.59375 -6.078125 C 4.40625 -6.273438 4.109375 -6.375 3.703125 -6.375 C 3.359375 -6.375 3.085938 -6.296875 2.890625 -6.140625 C 2.703125 -5.984375 2.609375 -5.785156 2.609375 -5.546875 C 2.609375 -5.316406 2.71875 -5.128906 2.9375 -4.984375 C 3.15625 -4.847656 3.519531 -4.726562 4.03125 -4.625 C 4.539062 -4.519531 4.972656 -4.40625 5.328125 -4.28125 C 6.410156 -3.882812 6.953125 -3.195312 6.953125 -2.21875 C 6.953125 -1.507812 6.648438 -0.9375 6.046875 -0.5 C 5.441406 -0.0703125 4.664062 0.140625 3.71875 0.140625 C 3.070312 0.140625 2.5 0.0234375 2 -0.203125 C 1.5 -0.429688 1.101562 -0.742188 0.8125 -1.140625 C 0.53125 -1.546875 0.390625 -1.984375 0.390625 -2.453125 L 2.34375 -2.453125 C 2.363281 -2.085938 2.5 -1.804688 2.75 -1.609375 C 3 -1.410156 3.335938 -1.3125 3.765625 -1.3125 C 4.160156 -1.3125 4.457031 -1.382812 4.65625 -1.53125 C 4.851562 -1.6875 4.953125 -1.882812 4.953125 -2.125 Z M 4.953125 -2.125"/></g></g></g><g fill-opacity="1" fill="#000080"><g transform="translate(25.531521, 14.058808)"><g><path d="M 2.953125 0 L 0.890625 0 L 0.890625 -7.6875 L 2.953125 -7.6875 Z M 0.78125 -9.6875 C 0.78125 -9.988281 0.878906 -10.238281 1.078125 -10.4375 C 1.285156 -10.644531 1.566406 -10.75 1.921875 -10.75 C 2.273438 -10.75 2.554688 -10.644531 2.765625 -10.4375 C 2.972656 -10.238281 3.078125 -9.988281 3.078125 -9.6875 C 3.078125 -9.375 2.972656 -9.117188 2.765625 -8.921875 C 2.554688 -8.722656 2.273438 -8.625 1.921875 -8.625 C 1.578125 -8.625 1.300781 -8.722656 1.09375 -8.921875 C 0.882812 -9.117188 0.78125 -9.375 0.78125 -9.6875 Z M 0.78125 -9.6875"/></g></g></g><g clip-path="url(#f5e3042554)"><g fill-opacity="1" fill="#000080"><g transform="translate(29.392871, 14.058808)"><g><path d="M 0.484375 -3.90625 C 0.484375 -5.082031 0.765625 -6.03125 1.328125 -6.75 C 1.890625 -7.46875 2.648438 -7.828125 3.609375 -7.828125 C 4.453125 -7.828125 5.109375 -7.539062 5.578125 -6.96875 L 5.65625 -7.6875 L 7.515625 -7.6875 L 7.515625 -0.25 C 7.515625 0.414062 7.363281 1 7.0625 1.5 C 6.757812 2 6.328125 2.378906 5.765625 2.640625 C 5.210938 2.898438 4.566406 3.03125 3.828125 3.03125 C 3.265625 3.03125 2.710938 2.914062 2.171875 2.6875 C 1.640625 2.46875 1.234375 2.179688 0.953125 1.828125 L 1.875 0.5625 C 2.382812 1.132812 3.003906 1.421875 3.734375 1.421875 C 4.273438 1.421875 4.695312 1.273438 5 0.984375 C 5.3125 0.691406 5.46875 0.28125 5.46875 -0.25 L 5.46875 -0.65625 C 4.988281 -0.125 4.363281 0.140625 3.59375 0.140625 C 2.664062 0.140625 1.914062 -0.21875 1.34375 -0.9375 C 0.769531 -1.664062 0.484375 -2.625 0.484375 -3.8125 Z M 2.546875 -3.75 C 2.546875 -3.050781 2.6875 -2.503906 2.96875 -2.109375 C 3.25 -1.710938 3.628906 -1.515625 4.109375 -1.515625 C 4.742188 -1.515625 5.195312 -1.75 5.46875 -2.21875 L 5.46875 -5.46875 C 5.1875 -5.9375 4.738281 -6.171875 4.125 -6.171875 C 3.632812 -6.171875 3.25 -5.96875 2.96875 -5.5625 C 2.6875 -5.15625 2.546875 -4.550781 2.546875 -3.75 Z M 2.546875 -3.75"/></g></g></g></g><g fill-opacity="1" fill="#000080"><g transform="translate(37.705797, 14.058808)"><g><path d="M 2.6875 -7.6875 L 2.75 -6.8125 C 3.289062 -7.488281 4.023438 -7.828125 4.953125 -7.828125 C 5.765625 -7.828125 6.367188 -7.585938 6.765625 -7.109375 C 7.171875 -6.640625 7.378906 -5.925781 7.390625 -4.96875 L 7.390625 0 L 5.328125 0 L 5.328125 -4.921875 C 5.328125 -5.359375 5.234375 -5.675781 5.046875 -5.875 C 4.859375 -6.070312 4.546875 -6.171875 4.109375 -6.171875 C 3.523438 -6.171875 3.085938 -5.921875 2.796875 -5.421875 L 2.796875 0 L 0.75 0 L 0.75 -7.6875 Z M 2.6875 -7.6875"/></g></g></g><g fill-opacity="1" fill="#000080"><g transform="translate(45.862278, 14.058808)"><g/></g></g><g fill-opacity="1" fill="#000080"><g transform="translate(49.488961, 14.058808)"><g><path d="M 0.5 -2.78125 C 0.5 -3.257812 0.632812 -3.703125 0.90625 -4.109375 C 1.175781 -4.523438 1.664062 -4.976562 2.375 -5.46875 C 2.070312 -5.882812 1.832031 -6.273438 1.65625 -6.640625 C 1.476562 -7.003906 1.390625 -7.378906 1.390625 -7.765625 C 1.390625 -8.578125 1.644531 -9.234375 2.15625 -9.734375 C 2.664062 -10.242188 3.351562 -10.5 4.21875 -10.5 C 4.988281 -10.5 5.617188 -10.265625 6.109375 -9.796875 C 6.609375 -9.335938 6.859375 -8.765625 6.859375 -8.078125 C 6.859375 -7.253906 6.441406 -6.53125 5.609375 -5.90625 L 4.8125 -5.328125 L 6.59375 -3.25 C 6.875 -3.800781 7.015625 -4.40625 7.015625 -5.0625 L 8.765625 -5.0625 C 8.765625 -3.71875 8.453125 -2.628906 7.828125 -1.796875 L 9.390625 0 L 7.046875 0 L 6.515625 -0.609375 C 5.753906 -0.109375 4.878906 0.140625 3.890625 0.140625 C 2.867188 0.140625 2.046875 -0.125 1.421875 -0.65625 C 0.804688 -1.195312 0.5 -1.90625 0.5 -2.78125 Z M 3.984375 -1.5 C 4.484375 -1.5 4.953125 -1.640625 5.390625 -1.921875 L 3.34375 -4.28125 L 3.203125 -4.171875 C 2.773438 -3.816406 2.5625 -3.394531 2.5625 -2.90625 C 2.5625 -2.488281 2.691406 -2.148438 2.953125 -1.890625 C 3.222656 -1.628906 3.566406 -1.5 3.984375 -1.5 Z M 3.234375 -7.796875 C 3.234375 -7.441406 3.441406 -6.992188 3.859375 -6.453125 L 4.40625 -6.8125 C 4.6875 -7 4.878906 -7.175781 4.984375 -7.34375 C 5.085938 -7.507812 5.140625 -7.710938 5.140625 -7.953125 C 5.140625 -8.191406 5.050781 -8.398438 4.875 -8.578125 C 4.707031 -8.753906 4.484375 -8.84375 4.203125 -8.84375 C 3.910156 -8.84375 3.675781 -8.742188 3.5 -8.546875 C 3.320312 -8.359375 3.234375 -8.109375 3.234375 -7.796875 Z M 3.234375 -7.796875"/></g></g></g><g fill-opacity="1" fill="#000080"><g transform="translate(59.046337, 14.058808)"><g/></g></g><g fill-opacity="1" fill="#000080"><g transform="translate(62.67302, 14.058808)"><g><path d="M 6.765625 -2.140625 L 3.03125 -2.140625 L 2.3125 0 L 0.046875 0 L 3.90625 -10.359375 L 5.875 -10.359375 L 9.75 0 L 7.484375 0 Z M 3.609375 -3.859375 L 6.1875 -3.859375 L 4.890625 -7.734375 Z M 3.609375 -3.859375"/></g></g></g><g fill-opacity="1" fill="#000080"><g transform="translate(72.393952, 14.058808)"><g><path d="M 5.390625 -0.78125 C 4.890625 -0.164062 4.191406 0.140625 3.296875 0.140625 C 2.472656 0.140625 1.84375 -0.09375 1.40625 -0.5625 C 0.96875 -1.039062 0.742188 -1.738281 0.734375 -2.65625 L 0.734375 -7.6875 L 2.796875 -7.6875 L 2.796875 -2.71875 C 2.796875 -1.914062 3.160156 -1.515625 3.890625 -1.515625 C 4.585938 -1.515625 5.066406 -1.757812 5.328125 -2.25 L 5.328125 -7.6875 L 7.390625 -7.6875 L 7.390625 0 L 5.453125 0 Z M 5.390625 -0.78125"/></g></g></g><g fill-opacity="1" fill="#000080"><g transform="translate(80.543322, 14.058808)"><g><path d="M 3.25 -9.578125 L 3.25 -7.6875 L 4.5625 -7.6875 L 4.5625 -6.1875 L 3.25 -6.1875 L 3.25 -2.34375 C 3.25 -2.0625 3.300781 -1.859375 3.40625 -1.734375 C 3.519531 -1.609375 3.726562 -1.546875 4.03125 -1.546875 C 4.257812 -1.546875 4.460938 -1.5625 4.640625 -1.59375 L 4.640625 -0.046875 C 4.234375 0.078125 3.820312 0.140625 3.40625 0.140625 C 1.957031 0.140625 1.21875 -0.585938 1.1875 -2.046875 L 1.1875 -6.1875 L 0.078125 -6.1875 L 0.078125 -7.6875 L 1.1875 -7.6875 L 1.1875 -9.578125 Z M 3.25 -9.578125"/></g></g></g><g fill-opacity="1" fill="#000080"><g transform="translate(85.250888, 14.058808)"><g><path d="M 0.46875 -3.921875 C 0.46875 -4.679688 0.613281 -5.359375 0.90625 -5.953125 C 1.195312 -6.554688 1.617188 -7.019531 2.171875 -7.34375 C 2.722656 -7.664062 3.367188 -7.828125 4.109375 -7.828125 C 5.140625 -7.828125 5.984375 -7.507812 6.640625 -6.875 C 7.296875 -6.25 7.664062 -5.390625 7.75 -4.296875 L 7.75 -3.765625 C 7.75 -2.585938 7.421875 -1.640625 6.765625 -0.921875 C 6.109375 -0.210938 5.222656 0.140625 4.109375 0.140625 C 3.003906 0.140625 2.117188 -0.210938 1.453125 -0.921875 C 0.796875 -1.628906 0.46875 -2.597656 0.46875 -3.828125 Z M 2.53125 -3.765625 C 2.53125 -3.035156 2.664062 -2.476562 2.9375 -2.09375 C 3.207031 -1.707031 3.597656 -1.515625 4.109375 -1.515625 C 4.609375 -1.515625 5 -1.703125 5.28125 -2.078125 C 5.5625 -2.460938 5.703125 -3.078125 5.703125 -3.921875 C 5.703125 -4.628906 5.5625 -5.179688 5.28125 -5.578125 C 5 -5.972656 4.609375 -6.171875 4.109375 -6.171875 C 3.597656 -6.171875 3.207031 -5.972656 2.9375 -5.578125 C 2.664062 -5.191406 2.53125 -4.585938 2.53125 -3.765625 Z M 2.53125 -3.765625"/></g></g></g><g fill-opacity="1" fill="#000080"><g transform="translate(93.485591, 14.058808)"><g><path d="M 2.71875 -7.6875 L 2.78125 -6.828125 C 3.320312 -7.492188 4.054688 -7.828125 4.984375 -7.828125 C 5.984375 -7.828125 6.664062 -7.4375 7.03125 -6.65625 C 7.570312 -7.4375 8.34375 -7.828125 9.34375 -7.828125 C 10.175781 -7.828125 10.796875 -7.582031 11.203125 -7.09375 C 11.609375 -6.613281 11.8125 -5.882812 11.8125 -4.90625 L 11.8125 0 L 9.75 0 L 9.75 -4.90625 C 9.75 -5.34375 9.664062 -5.660156 9.5 -5.859375 C 9.332031 -6.066406 9.03125 -6.171875 8.59375 -6.171875 C 7.976562 -6.171875 7.550781 -5.875 7.3125 -5.28125 L 7.328125 0 L 5.265625 0 L 5.265625 -4.90625 C 5.265625 -5.34375 5.175781 -5.660156 5 -5.859375 C 4.832031 -6.066406 4.535156 -6.171875 4.109375 -6.171875 C 3.523438 -6.171875 3.101562 -5.925781 2.84375 -5.4375 L 2.84375 0 L 0.796875 0 L 0.796875 -7.6875 Z M 2.71875 -7.6875"/></g></g></g><g fill-opacity="1" fill="#000080"><g transform="translate(106.093648, 14.058808)"><g><path d="M 5.25 0 C 5.15625 -0.1875 5.085938 -0.414062 5.046875 -0.6875 C 4.546875 -0.132812 3.894531 0.140625 3.09375 0.140625 C 2.34375 0.140625 1.71875 -0.078125 1.21875 -0.515625 C 0.726562 -0.953125 0.484375 -1.5 0.484375 -2.15625 C 0.484375 -2.976562 0.785156 -3.601562 1.390625 -4.03125 C 1.992188 -4.46875 2.867188 -4.691406 4.015625 -4.703125 L 4.953125 -4.703125 L 4.953125 -5.140625 C 4.953125 -5.492188 4.859375 -5.773438 4.671875 -5.984375 C 4.492188 -6.203125 4.207031 -6.3125 3.8125 -6.3125 C 3.46875 -6.3125 3.195312 -6.226562 3 -6.0625 C 2.800781 -5.894531 2.703125 -5.664062 2.703125 -5.375 L 0.65625 -5.375 C 0.65625 -5.820312 0.789062 -6.234375 1.0625 -6.609375 C 1.34375 -6.992188 1.734375 -7.289062 2.234375 -7.5 C 2.734375 -7.71875 3.296875 -7.828125 3.921875 -7.828125 C 4.867188 -7.828125 5.617188 -7.585938 6.171875 -7.109375 C 6.734375 -6.640625 7.015625 -5.972656 7.015625 -5.109375 L 7.015625 -1.78125 C 7.023438 -1.050781 7.128906 -0.5 7.328125 -0.125 L 7.328125 0 Z M 3.546875 -1.421875 C 3.847656 -1.421875 4.125 -1.488281 4.375 -1.625 C 4.632812 -1.757812 4.828125 -1.941406 4.953125 -2.171875 L 4.953125 -3.5 L 4.1875 -3.5 C 3.15625 -3.5 2.609375 -3.144531 2.546875 -2.4375 L 2.53125 -2.3125 C 2.53125 -2.050781 2.617188 -1.835938 2.796875 -1.671875 C 2.984375 -1.503906 3.234375 -1.421875 3.546875 -1.421875 Z M 3.546875 -1.421875"/></g></g></g><g fill-opacity="1" fill="#000080"><g transform="translate(113.901683, 14.058808)"><g><path d="M 3.25 -9.578125 L 3.25 -7.6875 L 4.5625 -7.6875 L 4.5625 -6.1875 L 3.25 -6.1875 L 3.25 -2.34375 C 3.25 -2.0625 3.300781 -1.859375 3.40625 -1.734375 C 3.519531 -1.609375 3.726562 -1.546875 4.03125 -1.546875 C 4.257812 -1.546875 4.460938 -1.5625 4.640625 -1.59375 L 4.640625 -0.046875 C 4.234375 0.078125 3.820312 0.140625 3.40625 0.140625 C 1.957031 0.140625 1.21875 -0.585938 1.1875 -2.046875 L 1.1875 -6.1875 L 0.078125 -6.1875 L 0.078125 -7.6875 L 1.1875 -7.6875 L 1.1875 -9.578125 Z M 3.25 -9.578125"/></g></g></g><g fill-opacity="1" fill="#000080"><g transform="translate(118.822594, 14.058808)"><g><path d="M 2.953125 0 L 0.890625 0 L 0.890625 -7.6875 L 2.953125 -7.6875 Z M 0.78125 -9.6875 C 0.78125 -9.988281 0.878906 -10.238281 1.078125 -10.4375 C 1.285156 -10.644531 1.566406 -10.75 1.921875 -10.75 C 2.273438 -10.75 2.554688 -10.644531 2.765625 -10.4375 C 2.972656 -10.238281 3.078125 -9.988281 3.078125 -9.6875 C 3.078125 -9.375 2.972656 -9.117188 2.765625 -8.921875 C 2.554688 -8.722656 2.273438 -8.625 1.921875 -8.625 C 1.578125 -8.625 1.300781 -8.722656 1.09375 -8.921875 C 0.882812 -9.117188 0.78125 -9.375 0.78125 -9.6875 Z M 0.78125 -9.6875"/></g></g></g><g fill-opacity="1" fill="#000080"><g transform="translate(122.683944, 14.058808)"><g><path d="M 0.46875 -3.921875 C 0.46875 -4.679688 0.613281 -5.359375 0.90625 -5.953125 C 1.195312 -6.554688 1.617188 -7.019531 2.171875 -7.34375 C 2.722656 -7.664062 3.367188 -7.828125 4.109375 -7.828125 C 5.140625 -7.828125 5.984375 -7.507812 6.640625 -6.875 C 7.296875 -6.25 7.664062 -5.390625 7.75 -4.296875 L 7.75 -3.765625 C 7.75 -2.585938 7.421875 -1.640625 6.765625 -0.921875 C 6.109375 -0.210938 5.222656 0.140625 4.109375 0.140625 C 3.003906 0.140625 2.117188 -0.210938 1.453125 -0.921875 C 0.796875 -1.628906 0.46875 -2.597656 0.46875 -3.828125 Z M 2.53125 -3.765625 C 2.53125 -3.035156 2.664062 -2.476562 2.9375 -2.09375 C 3.207031 -1.707031 3.597656 -1.515625 4.109375 -1.515625 C 4.609375 -1.515625 5 -1.703125 5.28125 -2.078125 C 5.5625 -2.460938 5.703125 -3.078125 5.703125 -3.921875 C 5.703125 -4.628906 5.5625 -5.179688 5.28125 -5.578125 C 5 -5.972656 4.609375 -6.171875 4.109375 -6.171875 C 3.597656 -6.171875 3.207031 -5.972656 2.9375 -5.578125 C 2.664062 -5.191406 2.53125 -4.585938 2.53125 -3.765625 Z M 2.53125 -3.765625"/></g></g></g><g fill-opacity="1" fill="#000080"><g transform="translate(130.918648, 14.058808)"><g><path d="M 2.6875 -7.6875 L 2.75 -6.8125 C 3.289062 -7.488281 4.023438 -7.828125 4.953125 -7.828125 C 5.765625 -7.828125 6.367188 -7.585938 6.765625 -7.109375 C 7.171875 -6.640625 7.378906 -5.925781 7.390625 -4.96875 L 7.390625 0 L 5.328125 0 L 5.328125 -4.921875 C 5.328125 -5.359375 5.234375 -5.675781 5.046875 -5.875 C 4.859375 -6.070312 4.546875 -6.171875 4.109375 -6.171875 C 3.523438 -6.171875 3.085938 -5.921875 2.796875 -5.421875 L 2.796875 0 L 0.75 0 L 0.75 -7.6875 Z M 2.6875 -7.6875"/></g></g></g><g fill-opacity="1" fill="#000080"><g transform="translate(139.075128, 14.058808)"><g/></g></g><g fill-opacity="1" fill="#000080"><g transform="translate(142.701811, 14.058808)"><g><path d="M 6.296875 -2.71875 C 6.296875 -3.125 6.148438 -3.429688 5.859375 -3.640625 C 5.578125 -3.859375 5.066406 -4.085938 4.328125 -4.328125 C 3.585938 -4.566406 3.003906 -4.800781 2.578125 -5.03125 C 1.398438 -5.664062 0.8125 -6.519531 0.8125 -7.59375 C 0.8125 -8.15625 0.96875 -8.65625 1.28125 -9.09375 C 1.59375 -9.53125 2.046875 -9.875 2.640625 -10.125 C 3.234375 -10.375 3.894531 -10.5 4.625 -10.5 C 5.363281 -10.5 6.019531 -10.363281 6.59375 -10.09375 C 7.175781 -9.820312 7.628906 -9.441406 7.953125 -8.953125 C 8.273438 -8.472656 8.4375 -7.921875 8.4375 -7.296875 L 6.296875 -7.296875 C 6.296875 -7.765625 6.144531 -8.128906 5.84375 -8.390625 C 5.550781 -8.660156 5.132812 -8.796875 4.59375 -8.796875 C 4.070312 -8.796875 3.664062 -8.6875 3.375 -8.46875 C 3.082031 -8.25 2.9375 -7.957031 2.9375 -7.59375 C 2.9375 -7.257812 3.101562 -6.976562 3.4375 -6.75 C 3.78125 -6.519531 4.285156 -6.304688 4.953125 -6.109375 C 6.160156 -5.742188 7.039062 -5.289062 7.59375 -4.75 C 8.15625 -4.207031 8.4375 -3.535156 8.4375 -2.734375 C 8.4375 -1.835938 8.097656 -1.132812 7.421875 -0.625 C 6.742188 -0.113281 5.828125 0.140625 4.671875 0.140625 C 3.878906 0.140625 3.15625 -0.00390625 2.5 -0.296875 C 1.84375 -0.585938 1.34375 -0.984375 1 -1.484375 C 0.65625 -1.992188 0.484375 -2.582031 0.484375 -3.25 L 2.625 -3.25 C 2.625 -2.113281 3.304688 -1.546875 4.671875 -1.546875 C 5.179688 -1.546875 5.578125 -1.644531 5.859375 -1.84375 C 6.148438 -2.050781 6.296875 -2.34375 6.296875 -2.71875 Z M 6.296875 -2.71875"/></g></g></g><g fill-opacity="1" fill="#000080"><g transform="translate(151.65474, 14.058808)"><g><path d="M 0.46875 -3.921875 C 0.46875 -4.679688 0.613281 -5.359375 0.90625 -5.953125 C 1.195312 -6.554688 1.617188 -7.019531 2.171875 -7.34375 C 2.722656 -7.664062 3.367188 -7.828125 4.109375 -7.828125 C 5.140625 -7.828125 5.984375 -7.507812 6.640625 -6.875 C 7.296875 -6.25 7.664062 -5.390625 7.75 -4.296875 L 7.75 -3.765625 C 7.75 -2.585938 7.421875 -1.640625 6.765625 -0.921875 C 6.109375 -0.210938 5.222656 0.140625 4.109375 0.140625 C 3.003906 0.140625 2.117188 -0.210938 1.453125 -0.921875 C 0.796875 -1.628906 0.46875 -2.597656 0.46875 -3.828125 Z M 2.53125 -3.765625 C 2.53125 -3.035156 2.664062 -2.476562 2.9375 -2.09375 C 3.207031 -1.707031 3.597656 -1.515625 4.109375 -1.515625 C 4.609375 -1.515625 5 -1.703125 5.28125 -2.078125 C 5.5625 -2.460938 5.703125 -3.078125 5.703125 -3.921875 C 5.703125 -4.628906 5.5625 -5.179688 5.28125 -5.578125 C 5 -5.972656 4.609375 -6.171875 4.109375 -6.171875 C 3.597656 -6.171875 3.207031 -5.972656 2.9375 -5.578125 C 2.664062 -5.191406 2.53125 -4.585938 2.53125 -3.765625 Z M 2.53125 -3.765625"/></g></g></g><g fill-opacity="1" fill="#000080"><g transform="translate(159.889444, 14.058808)"><g><path d="M 2.953125 0 L 0.890625 0 L 0.890625 -10.921875 L 2.953125 -10.921875 Z M 2.953125 0"/></g></g></g><g fill-opacity="1" fill="#000080"><g transform="translate(163.750794, 14.058808)"><g><path d="M 5.390625 -0.78125 C 4.890625 -0.164062 4.191406 0.140625 3.296875 0.140625 C 2.472656 0.140625 1.84375 -0.09375 1.40625 -0.5625 C 0.96875 -1.039062 0.742188 -1.738281 0.734375 -2.65625 L 0.734375 -7.6875 L 2.796875 -7.6875 L 2.796875 -2.71875 C 2.796875 -1.914062 3.160156 -1.515625 3.890625 -1.515625 C 4.585938 -1.515625 5.066406 -1.757812 5.328125 -2.25 L 5.328125 -7.6875 L 7.390625 -7.6875 L 7.390625 0 L 5.453125 0 Z M 5.390625 -0.78125"/></g></g></g><g fill-opacity="1" fill="#000080"><g transform="translate(171.900164, 14.058808)"><g><path d="M 3.25 -9.578125 L 3.25 -7.6875 L 4.5625 -7.6875 L 4.5625 -6.1875 L 3.25 -6.1875 L 3.25 -2.34375 C 3.25 -2.0625 3.300781 -1.859375 3.40625 -1.734375 C 3.519531 -1.609375 3.726562 -1.546875 4.03125 -1.546875 C 4.257812 -1.546875 4.460938 -1.5625 4.640625 -1.59375 L 4.640625 -0.046875 C 4.234375 0.078125 3.820312 0.140625 3.40625 0.140625 C 1.957031 0.140625 1.21875 -0.585938 1.1875 -2.046875 L 1.1875 -6.1875 L 0.078125 -6.1875 L 0.078125 -7.6875 L 1.1875 -7.6875 L 1.1875 -9.578125 Z M 3.25 -9.578125"/></g></g></g><g fill-opacity="1" fill="#000080"><g transform="translate(176.821075, 14.058808)"><g><path d="M 2.953125 0 L 0.890625 0 L 0.890625 -7.6875 L 2.953125 -7.6875 Z M 0.78125 -9.6875 C 0.78125 -9.988281 0.878906 -10.238281 1.078125 -10.4375 C 1.285156 -10.644531 1.566406 -10.75 1.921875 -10.75 C 2.273438 -10.75 2.554688 -10.644531 2.765625 -10.4375 C 2.972656 -10.238281 3.078125 -9.988281 3.078125 -9.6875 C 3.078125 -9.375 2.972656 -9.117188 2.765625 -8.921875 C 2.554688 -8.722656 2.273438 -8.625 1.921875 -8.625 C 1.578125 -8.625 1.300781 -8.722656 1.09375 -8.921875 C 0.882812 -9.117188 0.78125 -9.375 0.78125 -9.6875 Z M 0.78125 -9.6875"/></g></g></g><g fill-opacity="1" fill="#000080"><g transform="translate(180.682425, 14.058808)"><g><path d="M 0.46875 -3.921875 C 0.46875 -4.679688 0.613281 -5.359375 0.90625 -5.953125 C 1.195312 -6.554688 1.617188 -7.019531 2.171875 -7.34375 C 2.722656 -7.664062 3.367188 -7.828125 4.109375 -7.828125 C 5.140625 -7.828125 5.984375 -7.507812 6.640625 -6.875 C 7.296875 -6.25 7.664062 -5.390625 7.75 -4.296875 L 7.75 -3.765625 C 7.75 -2.585938 7.421875 -1.640625 6.765625 -0.921875 C 6.109375 -0.210938 5.222656 0.140625 4.109375 0.140625 C 3.003906 0.140625 2.117188 -0.210938 1.453125 -0.921875 C 0.796875 -1.628906 0.46875 -2.597656 0.46875 -3.828125 Z M 2.53125 -3.765625 C 2.53125 -3.035156 2.664062 -2.476562 2.9375 -2.09375 C 3.207031 -1.707031 3.597656 -1.515625 4.109375 -1.515625 C 4.609375 -1.515625 5 -1.703125 5.28125 -2.078125 C 5.5625 -2.460938 5.703125 -3.078125 5.703125 -3.921875 C 5.703125 -4.628906 5.5625 -5.179688 5.28125 -5.578125 C 5 -5.972656 4.609375 -6.171875 4.109375 -6.171875 C 3.597656 -6.171875 3.207031 -5.972656 2.9375 -5.578125 C 2.664062 -5.191406 2.53125 -4.585938 2.53125 -3.765625 Z M 2.53125 -3.765625"/></g></g></g><g fill-opacity="1" fill="#000080"><g transform="translate(188.917129, 14.058808)"><g><path d="M 2.6875 -7.6875 L 2.75 -6.8125 C 3.289062 -7.488281 4.023438 -7.828125 4.953125 -7.828125 C 5.765625 -7.828125 6.367188 -7.585938 6.765625 -7.109375 C 7.171875 -6.640625 7.378906 -5.925781 7.390625 -4.96875 L 7.390625 0 L 5.328125 0 L 5.328125 -4.921875 C 5.328125 -5.359375 5.234375 -5.675781 5.046875 -5.875 C 4.859375 -6.070312 4.546875 -6.171875 4.109375 -6.171875 C 3.523438 -6.171875 3.085938 -5.921875 2.796875 -5.421875 L 2.796875 0 L 0.75 0 L 0.75 -7.6875 Z M 2.6875 -7.6875"/></g></g></g><g clip-path="url(#6d8ab5e88b)"><g fill-opacity="1" fill="#000080"><g transform="translate(197.073599, 14.058808)"><g><path d="M 4.953125 -2.125 C 4.953125 -2.375 4.828125 -2.570312 4.578125 -2.71875 C 4.328125 -2.863281 3.929688 -2.992188 3.390625 -3.109375 C 1.554688 -3.492188 0.640625 -4.269531 0.640625 -5.4375 C 0.640625 -6.125 0.921875 -6.691406 1.484375 -7.140625 C 2.054688 -7.597656 2.800781 -7.828125 3.71875 -7.828125 C 4.6875 -7.828125 5.460938 -7.597656 6.046875 -7.140625 C 6.640625 -6.679688 6.9375 -6.085938 6.9375 -5.359375 L 4.875 -5.359375 C 4.875 -5.648438 4.78125 -5.890625 4.59375 -6.078125 C 4.40625 -6.273438 4.109375 -6.375 3.703125 -6.375 C 3.359375 -6.375 3.085938 -6.296875 2.890625 -6.140625 C 2.703125 -5.984375 2.609375 -5.785156 2.609375 -5.546875 C 2.609375 -5.316406 2.71875 -5.128906 2.9375 -4.984375 C 3.15625 -4.847656 3.519531 -4.726562 4.03125 -4.625 C 4.539062 -4.519531 4.972656 -4.40625 5.328125 -4.28125 C 6.410156 -3.882812 6.953125 -3.195312 6.953125 -2.21875 C 6.953125 -1.507812 6.648438 -0.9375 6.046875 -0.5 C 5.441406 -0.0703125 4.664062 0.140625 3.71875 0.140625 C 3.070312 0.140625 2.5 0.0234375 2 -0.203125 C 1.5 -0.429688 1.101562 -0.742188 0.8125 -1.140625 C 0.53125 -1.546875 0.390625 -1.984375 0.390625 -2.453125 L 2.34375 -2.453125 C 2.363281 -2.085938 2.5 -1.804688 2.75 -1.609375 C 3 -1.410156 3.335938 -1.3125 3.765625 -1.3125 C 4.160156 -1.3125 4.457031 -1.382812 4.65625 -1.53125 C 4.851562 -1.6875 4.953125 -1.882812 4.953125 -2.125 Z M 4.953125 -2.125"/></g></g></g></g></g></g></svg>