<?xml version="1.0" encoding="utf-8"?>
<!-- Generator: Adobe Illustrator 23.0.1, SVG Export Plug-In . SVG Version: 6.00 Build 0)  -->
<svg version="1.1" xmlns="http://www.w3.org/2000/svg" xmlns:xlink="http://www.w3.org/1999/xlink" x="0px" y="0px"
	 viewBox="0 0 1024 1094" style="enable-background:new 0 0 1024 1094;" xml:space="preserve">
<style type="text/css">
	.st0{opacity:0;fill:#FFFFFF;}
	.st1{fill:#1D1F25;}
	.st2{fill:#E0ECDE;}
	.st3{fill:#1A1A1A;}
	.st4{fill:#323232;}
	.st5{fill:#6A6A6A;}
	.st6{fill:#8D8D8D;}
	.st7{fill:#4A4A4A;}
	.st8{fill:#6F6F6F;}
	.st9{fill:#696969;}
	.st10{fill:#3E3E3E;}
	.st11{fill:#363636;}
	.st12{fill:#8F8F8F;}
	.st13{fill:#646464;}
	.st14{fill:#595959;}
	.st15{fill:#575757;}
	.st16{fill:#414141;}
	.st17{fill:#C7C7C7;}
	.st18{fill:#4B4B4B;}
	.st19{fill:#515151;}
	.st20{fill:#505050;}
	.st21{fill:#454545;}
	.st22{fill:#585858;}
	.st23{fill:#717171;}
	.st24{fill:#2E2E2E;}
	.st25{fill:#353535;}
	.st26{fill:#222222;}
	.st27{fill:#464646;}
	.st28{fill:#7E7E7E;}
	.st29{fill:#5A5A5A;}
	.st30{fill:#2F2F2F;}
	.st31{fill:#484848;}
	.st32{fill:#535353;}
	.st33{fill:#161616;}
	.st34{fill:#878787;}
	.st35{fill:#A2A2A2;}
	.st36{fill:#1E1E1E;}
	.st37{fill:#424242;}
	.st38{fill:#303030;}
	.st39{fill:#0D0D0D;}
	.st40{fill:#3F3F3F;}
	.st41{fill:#3A3A3A;}
	.st42{fill:#656565;}
	.st43{fill:#6E6E6E;}
	.st44{fill:#050000;}
	.st45{fill:#6D6D6D;}
	.st46{fill:#4E4E4E;}
	.st47{fill:#434343;}
	.st48{fill:#343434;}
	.st49{fill:#5C5C5C;}
	.st50{fill:#9E9E9E;}
	.st51{fill:#6C6C6C;}
	.st52{fill:#7C7C7C;}
	.st53{fill:#626262;}
	.st54{fill:#9F9F9F;}
	.st55{fill:#3C3C3C;}
	.st56{fill:#525252;}
	.st57{fill:#7F7F7F;}
	.st58{fill:#787878;}
	.st59{fill:#444444;}
	.st60{fill:#818181;}
	.st61{fill:#999999;}
	.st62{fill:#4B4A48;}
	.st63{fill:#202020;}
	.st64{fill:#242424;}
	.st65{fill:#313131;}
	.st66{fill:#404040;}
	.st67{fill:#6B6B6B;}
	.st68{fill:#191919;}
	.st69{fill:#1C1C1C;}
	.st70{fill:#8C8C8C;}
	.st71{fill:#1D1D1D;}
	.st72{fill:#666666;}
	.st73{fill:#3B3B3B;}
	.st74{fill:#929292;}
	.st75{fill:#0F0F0F;}
	.st76{fill:#151515;}
	.st77{fill:#FAAB66;}
	.st78{fill:#545454;}
	.st79{fill:#F6821F;}
	.st80{fill:#606060;}
	.st81{fill:#1B1B1B;}
	.st82{fill:#3A4149;}
	.st83{fill:#1C1C24;}
	.st84{fill:#191A1F;}
	.st85{fill:#4C4954;}
	.st86{fill:#797979;}
	.st87{fill:#494949;}
	.st88{fill:#5F5F5F;}
	.st89{fill:#333333;}
	.st90{fill:#252525;}
	.st91{fill:#5D5D5D;}
	.st92{fill:#A4A4A4;}
	.st93{fill:#020202;}
	.st94{fill:#262626;}
	.st95{fill:#040404;}
	.st96{fill:#B1B1B1;}
	.st97{fill:#383838;}
	.st98{fill:#050505;}
	.st99{fill:#292929;}
	.st100{fill:#232323;}
	.st101{fill:#4F4F4F;}
	.st102{fill:#4D4D4D;}
	.st103{fill:#727272;}
	.st104{fill:#474747;}
	.st105{fill:#848484;}
	.st106{fill:#E6A36E;}
	.st107{fill:#373737;}
	.st108{fill:#555555;}
	.st109{fill:#A1A1A1;}
	.st110{fill:#565656;}
	.st111{fill:#2C2C2C;}
	.st112{fill:#5E5E5E;}
	.st113{fill:#121212;}
	.st114{fill:#E9FAF2;}
	.st115{fill:#0A0A0A;}
	.st116{fill:#131313;}
	.st117{opacity:0.4;fill:#404040;}
	.st118{fill:#1F1F1F;}
</style>
<g id="Layer_1">
	<rect class="st0" width="1024" height="1023"/>
		
	
</g>
<g id="Layer_2">
	<g>
		<path class="st3" d="M138.56,509.76c-0.3-3.17-0.56-5.5-1.07-6.02c-0.22-0.22-0.89-0.04-1.6,0.23c-0.15,2.54-0.3,5.18-0.45,7.89
			c1.11-0.17,2.15-0.35,3.17-0.53C138.62,510.88,138.62,510.37,138.56,509.76z"/>
		<path class="st3" d="M133.57,547.09c2.39-0.94,5.76-2.54,6.87-4.45c1.78-3.07-2.48-27.33-2.48-28.07c0-0.6,0.57-1.32,0.64-3.23
			c-1.01,0.19-2.06,0.37-3.17,0.53C134.71,524.71,133.95,538.69,133.57,547.09z"/>
		<path class="st4" d="M160.54,497.68c-0.08-1.1-1.15-8.45-2.42-16.91c-1.92-12.84-4.28-28.23-4.28-28.23
			c0.53,4.26-10.64,9.35-26.72,12.75c2.42,1.64,4.46,3.01,5.69,3.94c5.41,4.09,4.88,6.73,4.36,13.86
			c-0.19,2.54-0.69,10.82-1.28,20.89c0.7-0.27,1.38-0.45,1.6-0.23c0.51,0.52,0.77,2.85,1.07,6.02c0.06,0.61,0.06,1.12,0.04,1.57
			C158.69,507.62,160.72,500.15,160.54,497.68z"/>
		<path class="st5" d="M110.49,447.99c-0.27,0.03-0.52,0.08-0.79,0.11c-0.58,0.8-1.23,1.54-1.92,2.21
			c5.33,5.38,13.51,11.01,19.36,14.97c16.08-3.4,27.25-8.49,26.72-12.75C153.17,447.11,133.75,445.07,110.49,447.99z"/>
		<path class="st6" d="M371.25,424.12c-1.26,0.32-2.55,0.75-3.84,1.22c-7.82,2.87-16.26,8.43-26.46,15.9
			c-10.15,7.44-17.54,12.45-22.08,22.62c-0.78,1.74-1.48,3.61-2.08,5.7c-2.91,9.98,2.32,15.59,5.73,18.05
			c14.14-11.58,35.06-27.49,61.41-47.17c3.76-2.81,8.09-6,12.84-9.46C391.55,428.37,378.3,422.31,371.25,424.12z"/>
		<path class="st7" d="M402.24,303.77c-8.66-3.97-10.01-9.18-10.1-11.72c-0.29,6.41-0.26,27.11,0.1,29.97
			c0.21,1.65,1.42,2.43,2.55,2.81c3.3-9.38,6.18-17.47,7.45-21.05V303.77z"/>
		<path class="st8" d="M402.24,303.77v-6.44c-5.49-2.2-8.94-5.31-8.94-8.78c0-0.53,0.11-1.05,0.26-1.56
			c-0.73,1.34-1.21,2.6-1.32,3.54c-0.04,0.32-0.07,0.84-0.1,1.52C392.23,294.58,393.58,299.8,402.24,303.77z"/>
		<path class="st9" d="M433.7,312.52c0,0-8.98,4.09-18.62,1.19c-9.64-2.9-12.71-8.69-12.85-9.92c-1.27,3.57-4.15,11.67-7.45,21.05
			c-5.45,15.48-12.03,34.41-14.43,42.14c-3.74,12.06-10.97,48.31-12.95,58.36c1.29-0.48,2.58-0.9,3.84-1.22
			c7.05-1.81,20.29,4.26,25.52,6.87c3.48-2.53,7.18-5.22,11.07-8.02c0.99-7.93,3.89-30.42,5.99-39.16
			c2.57-10.69,16.63-63.77,18.22-66.74c0.84-1.57,2.51-3.42,3.89-4.81L433.7,312.52z"/>
		<path class="st10" d="M68.52,487.45c3.83,1.34,7.92,1.78,11.15,1.88c-0.1-0.87-0.19-1.75-0.29-2.62
			c-5.79-1.01-8.16-5.28-8.58-7.19c-0.28-1.27-0.63-6.38-0.88-10.56c-3.54,1.54-7.91,6.06-8.39,10.56
			c-0.02,0.15-0.02,0.34-0.03,0.52C61.5,481.41,62.12,485.21,68.52,487.45z"/>
		<path class="st11" d="M109.08,434.55c-1.41,3.57-3.59,8.19-5.35,10.77c0.63,1.07,1.47,2.17,2.46,3.3c0.49,0.56,1.03,1.13,1.59,1.7
			c0.69-0.67,1.34-1.41,1.92-2.21c1.82-2.5,3.06-5.46,3.32-7.66C113.27,438.23,110.84,435.92,109.08,434.55z"/>
		<path class="st12" d="M81.99,506.72c-0.8-4.87-1.61-11.06-2.32-17.39c-3.22-0.1-7.32-0.55-11.15-1.88
			c-6.4-2.24-7.03-6.03-7.03-7.41c-0.14,2.15,0.12,6.01,0.5,10.04c0.58,6.23,1.44,12.76,1.51,13.66c0.13,1.48,7.13,8.12,19.52,8.73
			C82.61,510.29,82.26,508.34,81.99,506.72z"/>
		<path class="st13" d="M77.2,458.67c0.04-0.86,0.3-1.81,0.68-2.78c-5.45,2.38-8.58,4.92-8.29,7.22c0.26,2.06,3.21,3.62,8.03,4.62
			C77.3,463.35,77.13,460.04,77.2,458.67z"/>
		<path class="st12" d="M77.62,467.73c-4.82-1-7.77-2.57-8.03-4.62c0,0,0.13,2.66,0.33,5.86c0.25,4.18,0.6,9.29,0.88,10.56
			c0.42,1.91,2.78,6.18,8.58,7.19C78.63,479.84,78.01,473.01,77.62,467.73z"/>
		<path class="st14" d="M132.82,469.23c-1.23-0.93-3.26-2.3-5.69-3.94c-5.84-3.96-14.02-9.59-19.36-14.97
			c-0.57-0.57-1.1-1.14-1.59-1.7c-0.99-1.13-1.83-2.23-2.46-3.3c-0.79,1.16-1.5,1.92-2,1.97c-2.18,0.2-16.24,1.98-17.13,1.68
			c-0.17-0.06-0.72-0.54-1.48-1.28c-0.85,1.03-2.1,2.64-3.24,4.44c-0.77,1.22-1.49,2.51-1.99,3.77c-0.38,0.97-0.64,1.92-0.68,2.78
			c-0.07,1.37,0.1,4.68,0.42,9.06c0.39,5.28,1.01,12.11,1.76,18.98c0.09,0.87,0.19,1.75,0.29,2.62c0.71,6.33,1.52,12.52,2.32,17.39
			c0.27,1.61,0.62,3.57,1.04,5.75c0.13,0.67,0.26,1.36,0.4,2.08c2.47,12.61,6.7,31.58,9.6,43.5c1.43,5.87,2.54,10.03,2.95,10.86
			c1.45,2.9,19.8,2.77,29.05,2.11c9.24-0.66,8.05-7.66,8.32-18.09c0.03-1.33,0.11-3.34,0.23-5.85c0.38-8.39,1.14-22.38,1.87-35.22
			c0.15-2.7,0.31-5.35,0.45-7.89c0.59-10.07,1.09-18.35,1.28-20.89C137.7,475.96,138.23,473.32,132.82,469.23z"/>
		<path class="st15" d="M90.24,411.53c3.88-0.12,7.44,2.07,10.5,4.54c5-48.46-9.38-78.27-12.77-84.51
			c-0.41-0.76-1.23-1.23-2.09-1.19c-13.37,0.59-23.37,6.76-23.76,8.67c-0.4,1.98-7.33,57.03-8.02,65.55
			c-0.69,8.52-2.08,13.27,0,14.16c2.08,0.89,15.74,0.59,16.7,0.69c0.56,0.06,2.29,1.46,3.65,2.62
			C78.99,413.75,84.53,411.71,90.24,411.53z"/>
		<path class="st11" d="M74.58,438.95c-0.48,1.66-1.27,5.17-0.48,8.43c0.84,3.42,4.23,4.45,5.77,4.74c1.14-1.8,2.4-3.41,3.24-4.44
			C81.01,445.64,77.21,441.64,74.58,438.95z"/>
		<path class="st16" d="M786.45,410.89c-5.36-2.61-6.43-7.1-6.75-10.75c-0.41-4.73,0.9-17.28,1.34-21.23
			c-3.74-0.96-6.94-2.9-9.4-6.62c-0.12,0.41-0.22,0.81-0.26,1.22c-0.49,4.75-2.97,31.39-4.75,33.86
			C766.63,407.38,773.43,415.89,786.45,410.89z"/>
		<path class="st17" d="M434.23,330.74c-0.53-1.98,1.72-18.48,1.72-18.48c-1.39,1.39-3.06,3.24-3.89,4.81
			c-1.58,2.97-15.65,56.04-18.22,66.74c-2.1,8.74-5,31.23-5.99,39.16c1.87-1.35,3.79-2.73,5.74-4.13c0.99-4.3,2.78-10.94,4.96-18.66
			c7.14-25.3,18.39-61.96,18.85-64.29C438.06,332.58,434.76,332.72,434.23,330.74z"/>
		<path class="st18" d="M433.7,306.04v6.48l2.24-0.26c0,0-2.24,16.5-1.72,18.48c0.53,1.98,3.83,1.85,3.17,5.15
			c-0.47,2.34-11.71,38.99-18.85,64.29c9.95,0.36,13.64-1.45,14.5-3.03c0.92-1.72,2.11-6.34,5.81-21.52
			c3.7-15.18,3.7-42.25,3.7-42.25c4.88-2.64,8.58-7.26,8.58-8.17c0-0.91,0-30.24,0-30.24C451.13,299.92,443.95,304.18,433.7,306.04z
			"/>
		<path class="st10" d="M69.45,512.73c5.81,1.42,10.46,1.84,13.98,1.82c-0.14-0.71-0.27-1.41-0.4-2.08
			c-12.39-0.62-19.39-7.25-19.52-8.73c-0.08-0.9-0.93-7.44-1.51-13.66c-4.18,2.51-6.92,6.43-7.79,9.58
			C54.2,499.66,54.49,509.07,69.45,512.73z"/>
		<path class="st19" d="M400.86,238.68c-4.42-0.97-5.57-2.05-5.57-2.74c0-0.35-0.08-1.45-0.05-2.64c-4.77-0.86-18.97-3.42-21.6-3.66
			c-3.17-0.29-60.2,0.1-83.37,0.1c-23.17,0-58.22-0.59-58.62,1.19c-0.4,1.78,2.38,4.36,3.76,4.36s31.09,0.2,50.1,0
			c19.01-0.2,78.22-0.99,81.49-1.29c3.27-0.3,7.43,1.88,12.48,3.76c3.08,1.15,10.44,2.88,15.74,4.06c1.32,0.29,2.5,0.55,3.46,0.76
			c0.73-0.5,1.76-0.63,2.01-1.43C400.87,240.59,400.89,239.6,400.86,238.68z"/>
		<path class="st20" d="M611.8,241.62c0,0-18.95-3.76-50.43-6.93c-31.49-3.17-85.35-8.81-89.71-8.47
			c-4.04,0.32-19.94,7.3-26.91,8.48c-0.16,1.9-0.79,3.3-2.46,3.74c-0.77,0.2-3.74,0.63-7.25,1.07c0.11,3.88,1.52,5.22,1.27,5.5
			c0,0,4.85,1.57,9.01,0.82c0.83-0.15,1.62-0.18,2.39-0.15c3.08,0.14,5.91,1.76,10.18,5.24c5.35,4.36,11.98,10.1,14.75,10
			c2.77-0.1,36.24-3.47,63.37-5.45c27.13-1.98,71.43-2.11,73.01-2.38C610.61,252.84,613.12,249.14,611.8,241.62z"/>
		<path class="st21" d="M470.96,234.55c-5.92,0.62-14.04,4.74-18.15,7.02c3.49,0.26,6.88,0.62,8.88,1.11
			c3.34,0.81,6.58,9.21,8.57,15.53c0.96,0.48,1.91,0.77,2.89,0.74c3.47-0.1,61.03-5.18,80.3-6.11c3.6-0.17,7.89-0.33,12.48-0.47
			C530.26,241.88,477.09,233.92,470.96,234.55z"/>
		<path class="st22" d="M461.69,242.68c-3.36-0.82-10.69-1.28-15.77-1.52c-2.38,2.44-6.1,3.66-9.55,3.88
			c0.57,0.18,5.06,1.5,8.95,0.8c0.83-0.15,1.62-0.18,2.39-0.15c3.08,0.14,5.91,1.76,10.18,5.24c4.46,3.63,9.8,8.22,13.07,9.59
			C469.1,254.17,465.46,243.59,461.69,242.68z"/>
		<path class="st23" d="M450.08,287.46l-0.01,0.01c0.07,0.36,0.13,0.71,0.13,1.08c0,4.86-6.77,9.03-16.5,10.95v6.54
			c10.25-1.86,17.43-6.12,17.43-11.08C451.13,294.96,451.81,286.97,450.08,287.46z"/>
		<path class="st3" d="M445.32,245.84c-4.16,0.75-9.01-0.82-9.01-0.82c0.25-0.27-1.17-1.61-1.27-5.5c-1.8,0.23-3.74,0.46-5.61,0.67
			c-0.62,0.07-1.23,0.14-1.83,0.2c-3.14,0.33-5.82,0.58-6.83,0.58c-1.64,0-5.03-0.25-8.81-0.66c-2.51-0.27-5.19-0.61-7.63-0.99
			c-0.41-0.06-0.82-0.13-1.21-0.2c-0.83-0.14-1.58-0.28-2.25-0.43c0.03,0.92,0.02,1.91-0.16,2.46c-0.26,0.8-1.28,0.94-2.01,1.43
			c-0.96-0.21-2.15-0.47-3.46-0.76c0,1.47,0,3.6,0,4.16c0,0.73,8.61,3.56,16.31,4.74c1.75,0.27,3.45,0.45,4.98,0.51
			c4.21,0.15,9.62,0.25,14.16,0.26c4.42,0.01,8.03-0.06,8.91-0.26c1.56-0.35,4.71-1.53,8.13-5.54
			C446.94,245.65,446.15,245.68,445.32,245.84z"/>
		<path class="st24" d="M404.32,239.31c-0.41-0.06-0.82-0.13-1.21-0.2c-0.83-0.14-1.58-0.28-2.25-0.43
			c0.03,0.92,0.02,1.91-0.16,2.46c-0.26,0.8-1.28,0.94-2.01,1.43c-0.4,0.27-0.71,0.64-0.76,1.29c-0.13,1.85,5.41,1.19,6.17,0
			C404.55,243.16,404.46,240.97,404.32,239.31z"/>
		<path class="st24" d="M411.95,240.3v3.71c0,0.25,0.13,0.47,0.34,0.58c0.8,0.4,3.02,1.29,7.08,1.25c4.07-0.04,6.77-0.77,7.78-1.09
			c0.27-0.09,0.44-0.34,0.44-0.62v-3.74c-3.14,0.33-5.82,0.58-6.83,0.58C419.13,240.96,415.73,240.71,411.95,240.3z"/>
		<path class="st24" d="M435.04,239.52c-1.8,0.23-3.74,0.46-5.61,0.67c0.01,1.82,0.28,4.7,1.9,5.3c2.41,0.89,4.69-0.14,4.98-0.47
			C436.56,244.74,435.14,243.4,435.04,239.52z"/>
		<path class="st25" d="M804.16,337.34c-2.11-1.85-8.05-10.69-8.22-12.15c-0.16-1.45,3.2-4.88,5.71-5.41
			c0.67-0.14,2.44,0.02,4.77,0.37c-2.55-3.86-9.84-14.66-12.76-16.45c-3.56-2.18-42.78-21.69-58.52-28.12
			c-15.74-6.44-37.13-17.03-43.47-15.84c-6.34,1.19-14.46,7.92-14.26,9.31c0.2,1.39,9.21,7.13,26.34,21.19
			c17.13,14.06,40.2,34.76,44.95,38.52c4.75,3.76,7.33,3.56,13.47,2.77c6.14-0.79,23.07-1.68,25.55-0.79
			c1.34,0.48,4.82,2.6,8.22,4.59c2.87,1.68,5.68,3.27,7.13,3.72c1.49,0.47,3.06,0.27,4.32-0.07
			C805.76,338.29,804.58,337.7,804.16,337.34z"/>
		<path class="st26" d="M802.73,447.05c-1.58,3.66-9.05,5.94-10.71,5.88c-1.85-0.07-1.19-1.52-0.66-2.11
			c0.53-0.59,0.13-1.58-0.59-1.52c-0.73,0.07-5.15,2.44-7.99,3.17c-2.61,0.67-3.88,0.01-5.09,0.3c0.02,0.01,3.5,1.94,3.7,2.47
			c0.2,0.53,6.34,38.68,9.31,48.98c2.97,10.3,4.88,11.09,12.34,11.09c7.46,0,9.84-2.18,14.39-15.84
			c4.56-13.66,12.48-40.2,13.27-46.93c0.31-2.67,0.38-5.2,0.34-7.3c-1.49,0.56-2.98,1-4.4,1.26
			C819.81,447.71,807.43,448.24,802.73,447.05z"/>
		<path class="st27" d="M830.26,455.09c-0.82-1.6-2.08-3.86-2.8-4.15c-1.12-0.46-7.46,6.93-8.12,8.25
			c-0.66,1.32-1.45,14.46-3.23,21.39c-1.78,6.93-5.54,17.89-5.35,18.68c0.17,0.69,3.21,2.06,5.91,2.42c0.25-0.71,0.5-1.44,0.76-2.22
			C821.53,487.15,828.37,464.4,830.26,455.09z"/>
		<path class="st28" d="M846.94,387.37c-0.61-0.1-2.02,0.38-3.23,0.86v2.44c0.54-0.28,1.04-0.48,1.45-0.53
			c2.24-0.26,2.77,2.31,1.91,4.49c-0.86,2.18,2.05,3.63,1.25,5.07c-0.79,1.44-11.49,8.27-21.39,9.46
			c-9.9,1.19-21.78,0.79-21.78,0.79s15.45,3.96,26.93,0.99c10.42-2.7,17.56-7.18,19.1-10.21c0.16-0.31,0.27-0.61,0.31-0.88
			C851.89,396.88,848.13,387.57,846.94,387.37z"/>
		<path class="st29" d="M541.13,572.86c-5.51-14.4-13.19-34.27-13.82-34.78c-0.99-0.79-4.46-1.49-6.24-4.95
			c-1.78-3.47,2.62-6.24,2.87-6.73c0.25-0.5,0.07-1.72-0.86-1.39c-0.92,0.33-8.58,6.67-22.44,10.76
			c-8.62,2.54-19.25,3.46-27.46,3.45c0,4.14,0,11.54,0,14.51c0,1.73,2.49,9.45,5.44,17.97c3.4,9.84,7.41,20.74,8.89,24.74
			c11.3-0.07,28.99,0.03,33.93,0.06c0.71-2.57,2.2-4.47,3.69-5.34c2.15-1.25,12.88-4.93,20.33-6.94
			C544.44,581.54,542.9,577.48,541.13,572.86z"/>
		<path class="st30" d="M838.22,582.51c-2.51-5.54-5.15-11.49-8.58-11.75s-24.03-1.98-70.24-1.45
			c-46.21,0.53-125.69,3.56-130.04,5.02c-3.78,1.26-26.8,12.64-32.86,15.64c1.7,1.35,2.65,2.7,2.89,3.9
			c0.79,3.96-3.04,9.64-5.54,10.69c-2.23,0.94-10.42,3.45-15.83,5.57c4.24,6.58,14.54,2.57,18.8,2.02c0.38-0.05,0.81-0.08,1.26-0.11
			c4.92-0.28,13.56,0.82,17.56,2.07c4.36,1.37,24.42,16.99,33.67,18.57c9.24,1.58,26.67-4.49,46.21-9.24
			c19.54-4.75,127.54-26.67,136.25-28.25C840.47,593.6,840.73,588.05,838.22,582.51z"/>
		<path class="st31" d="M627.65,586.99c-8.71,0.79-9.77,6.87-16.9,11.54c-3.87,2.54-9.42,3.06-13.69,3.01
			c-1.03,1.46-2.22,2.59-3.2,3c-2.23,0.94-10.42,3.45-15.83,5.57c4.24,6.58,14.54,2.57,18.8,2.02c0.38-0.05,0.81-0.08,1.26-0.11
			c4.92-0.28,13.56,0.82,17.56,2.07c3.51,1.1,17.22,11.45,27.25,16.26C640.24,615.6,634.16,586.4,627.65,586.99z"/>
		<path class="st32" d="M579.21,623.02c-4.96,2.44-10.69,4.12-17.71,4.77c-7.13,0.66-18.88-2.51-24.82-3.17
			c-0.77-0.09-1.58-0.18-2.42-0.29c-5.12,2.95-8.24,6.87-8.24,11.16c0,1.16,0.23,2.3,0.67,3.39c3.01,7.58,15.88,13.27,31.32,13.27
			c15.57,0,28.52-5.8,31.38-13.47c0.39-1.03,0.6-2.1,0.6-3.19C589.99,630.53,585.82,626.07,579.21,623.02z"/>
		<path class="st33" d="M596.82,612.15c-4.26,0.56-14.56,4.56-18.8-2.02c-0.67,0.26-1.3,0.52-1.86,0.76
			c-5.15,2.24-15.05,4.09-20.86,2.77c-2.89-0.66-7.88-1.22-12.77-1.69c0.28,2.33-0.37,5.33-5.19,6.18
			c-8.19,1.45-11.62-2.24-16.33-2.77c-0.29-0.03-0.64-0.08-1.04-0.13c2.87,6.71,9.1,8.36,14.29,9.08c0.84,0.12,1.66,0.21,2.42,0.29
			c5.94,0.66,17.69,3.83,24.82,3.17c7.02-0.65,12.75-2.33,17.71-4.77c0.08-0.04,0.17-0.08,0.25-0.12
			c5.02-2.51,11.09-3.56,15.18-5.81c2.3-1.26,3.14-3.41,3.43-5.06C597.63,612.06,597.2,612.1,596.82,612.15z"/>
		<path class="st34" d="M925.56,387.26c-26.73-15.36-62.68-35.24-69.81-37.31c-7.13-2.08-13.66-3.07-13.57-3.66
			c0.04-0.25,0.05-1.05,0.04-1.88c-1.77,0.71-7.82,2.68-11,2.44c-0.71-0.05-2.11-0.39-3.92-0.9c-0.14,2.99,0.1,2.94,0.1,2.94
			c1.39,1.91,6.34,5.02,9.31,5.48c1.2,0.19,3.16,0.39,5.14,0.58c2.92,0.28,5.86,0.52,6.41,0.6c0.92,0.13,16.63,12.28,33.53,22.84
			c16.9,10.56,70.9,43.57,80.67,49.25c9.77,5.68,11.62,4.88,11.62,4.88c9.64-0.66,16.63-1.19,16.24-3.43
			C989.92,426.85,952.29,402.62,925.56,387.26z"/>
		<path class="st35" d="M834.57,358.07c-1,0.08-2.01,0.07-3-0.02c-5.01-0.46-10.23-1.79-15.07-3.14c-3.15-0.88-6.26-2.02-9.13-3.6
			c-5.68,0.67-9.84,2.71-10.78,5.64c-0.07,0.21-0.12,0.43-0.16,0.65c-0.76,5.03,7.8,10.5,19.12,12.21
			c11.32,1.71,21.11-0.99,21.87-6.02c0,0,0,0,0,0C837.7,361.86,836.62,359.88,834.57,358.07z"/>
		<path class="st36" d="M836.71,354.37c-2.97-0.46-7.92-3.56-9.31-5.48c0,0-0.24,0.04-0.1-2.94c-5.54-1.56-14.9-4.82-19.91-6.96
			c-1.25,0.33-2.82,0.53-4.32,0.07c-1.45-0.45-4.26-2.04-7.13-3.72c0,1.72,0,4.07,0,4.61c0,0.78,1.19,1.92,1.63,2.48
			c2.39,3.03,4.99,5.97,8.29,8.04c0.49,0.31,1,0.57,1.5,0.84c2.87,1.58,5.98,2.72,9.13,3.6c4.84,1.36,10.06,2.68,15.07,3.14
			c0.99,0.09,2,0.1,3,0.02c2.73-0.21,5.34-1.14,7.28-3.12C839.87,354.76,837.91,354.55,836.71,354.37z"/>
		<path class="st37" d="M589.38,638.68c-2.86,7.67-15.82,13.47-31.38,13.47c-15.43,0-28.31-5.69-31.32-13.27l0,0l-0.07,9.24
			c0,0.38,0.06,0.74,0.12,1.11c0.17,1.02,0.56,2.01,1.16,2.96c3.82,6.02,15.84,10.41,30.11,10.41c17.34,0,31.39-6.49,31.39-14.49
			v-1.7v-7.73L589.38,638.68z"/>
		<path class="st21" d="M840.11,365.89c-0.38-0.97-1.62-1.67-2.69-2.11c0,0,0,0,0,0c-0.76,5.03-10.55,7.73-21.87,6.02
			c-11.32-1.71-19.88-7.17-19.12-12.21c0.03-0.22,0.09-0.44,0.16-0.65c-0.08,0.05-3.94,2.62-6.88,3.74
			c-2.97,1.14-5.64,1.93-5.64,1.93s0.26,1.15,0,1.39c-0.91,0.82-3.99-0.43-4.88-0.33c-0.82,0.09-6.23,4.27-7.53,8.62
			c2.46,3.73,5.66,5.66,9.4,6.62c3.94,1.01,8.48,0.97,13.41,0.84c10.6-0.3,20.5-6.44,20.5-6.44s0.24,0.07,0.64,0.16
			c2.03,0.47,8.72,1.74,15.5-0.16c6.3-1.77,8.66-4.19,9.08-6.02C840.14,366.47,840.11,365.89,840.11,365.89z"/>
		<path class="st38" d="M832.09,410.94c-11.49,2.97-26.93-0.99-26.93-0.99s11.88,0.4,21.78-0.79c9.9-1.19,20.6-8.02,21.39-9.46
			c0.79-1.44-2.11-2.89-1.25-5.07c0.86-2.18,0.33-4.75-1.91-4.49c-0.42,0.05-0.91,0.24-1.45,0.53v-2.44v-3.16v-5.21
			c0.98-2.1,1-5.33,0.07-6.89c-0.81-1.35-2.51-2.19-3.53-2.6c0,0.9-0.04,1.71-0.13,2.14c-0.3,1.39-5.64,8.52-8.12,11.59
			c-2.48,3.07-1.65,9.72-3.65,13.97c-1.72,3.68-10.54,4.39-17.51,2.72c-1.75,3.3-4.27,5.15-6.17,5.78
			c-2.38,0.79-2.28,6.73-3.37,18.32c-1.09,11.59-2.77,19.7,0,21.59c0.32,0.22,0.82,0.4,1.44,0.56c4.7,1.19,17.08,0.67,23.91-0.56
			c1.43-0.26,2.92-0.7,4.4-1.26c6.57-2.48,13.09-7.31,13.82-8.84c0.89-1.88,6.32-35.65,6.32-35.65
			C849.65,403.76,842.51,408.25,832.09,410.94z"/>
		<path class="st10" d="M836.15,388.76c-2.97,1.88-1.68,5.54,0.3,5.84c1.61,0.24,4.89-2.69,7.26-3.93v-2.44v-3.16
			C841.41,386.06,838,387.58,836.15,388.76z"/>
		<path class="st39" d="M842.25,394.97c-1.9,1.51-5.87,3.76-7.06,4.22c-1.19,0.46-2.38,1.12-1.45,3.3c0.92,2.18,2.64,1.98,3.83,1.91
			c1.19-0.07,8.19-4.49,8.32-5.48c0.13-0.99-1.39-0.86-2.18-1.72c-0.79-0.86,0.07-1.78,0.46-2.44c0.34-0.57,0.18-1.17-0.21-1.5
			C843.64,393.7,843.12,394.28,842.25,394.97z"/>
		<path class="st40" d="M840.17,367.3c-0.42,1.83-2.78,4.25-9.08,6.02c-6.78,1.9-13.47,0.63-15.5,0.16
			c-0.63,5.77-2.34,20.56-3.61,24.6c-0.32,1.01-0.72,1.9-1.16,2.72c6.97,1.67,15.78,0.95,17.51-2.72c2-4.25,1.17-10.9,3.65-13.97
			c2.48-3.07,7.82-10.2,8.12-11.59c0.09-0.43,0.13-1.24,0.13-2.14C840.24,369.34,840.21,368.18,840.17,367.3z"/>
		<path class="st13" d="M592.89,653.21c0.22,0.96,0.34,1.94,0.34,2.94v6.22c5.33,3.98,8.52,8.97,8.52,14.41
			c0,12.97-18.07,23.49-40.37,23.49c-22.29,0-40.37-10.52-40.37-23.49c0-4.62,2.31-8.92,6.27-12.55v-8.07
			c0-1.35,0.22-2.67,0.61-3.95c-0.6-0.95-0.99-1.94-1.16-2.96c-5.93,4.13-10.36,9.34-12.67,15.19c-1.17,2.96-1.81,6.08-1.81,9.31
			c0,1.09,0.08,2.17,0.22,3.24c2.29,17.38,22.77,30.99,47.71,30.99c21.83,0,39.16-8.81,44.56-22.5c1.15-2.91,1.77-6.03,1.77-9.35
			C606.52,666.47,601.67,659.08,592.89,653.21z"/>
		<path class="st41" d="M404.87,623.59c0.35,8.02,1.13,29.16-0.15,34.9c-1.59,7.13-7.73,15.25-29.95,13.08
			c8.67,3.76,19.31,3.01,24.99,1.18c6.14-1.98,64.5-57.95,64.5-57.95c-3.07,1.45-7.93,3.38-16.38,4.29
			C443.98,619.5,426.86,621.3,404.87,623.59z"/>
		<path class="st41" d="M428.33,621.14c-6.7,0.7-14.68,1.53-23.46,2.45c0.35,8.02,1.13,29.16-0.15,34.9
			c-1.59,7.13-7.73,15.25-29.95,13.08c8.67,3.76,19.31,3.01,24.99,1.18c2.54-0.82,14.04-10.9,26.63-22.42
			c0.97-2.89,1.69-5.92,1.89-8.41C428.6,638.07,428.42,626.05,428.33,621.14z"/>
		<path class="st31" d="M560.26,676.97c-18.21,0-32.97-9.32-32.97-20.82v8.07v10.7c0,9.2,14.76,16.66,32.97,16.66
			c18.21,0,32.97-7.46,32.97-16.66v-12.55v-6.22C593.22,667.65,578.46,676.97,560.26,676.97z"/>
		<path class="st42" d="M542.53,611.97c-4.92-0.48-9.73-0.88-12.19-1.21c-4.88-0.66-8.38-3.96-9.18-9.11
			c-0.29-1.91-0.15-3.65,0.27-5.16c-4.93-0.03-22.63-0.12-33.93-0.06c-2.39,0.01-4.51,0.03-6.14,0.07
			c-2.19,0.04-7.87,0.45-15.79,1.12c-15.03,1.26-38.15,3.44-60.89,5.73c-23.92,2.4-47.4,4.92-60.56,6.62
			c-12.35,1.59-25.44,3.56-37.02,5.41c-18.7,3-33.45,5.71-34.67,6.07c-1.98,0.59-1.78,10.5-1.58,11.88c0.2,1.39,3.56,2.97,6.14,3.17
			c0.78,0.06,15.69-1.4,36.41-3.5c26.73-2.71,63.14-6.47,91.47-9.42c21.99-2.29,39.11-4.09,43.02-4.51
			c8.45-0.91,13.3-2.84,16.38-4.29c1.61-0.76,2.74-1.38,3.62-1.66c2.34-0.72,18.55-1.76,24.16-1.8c0.56,0,1.06,0,1.38,0.02
			c3.34,0.19,20.52,3.1,26.53,3.9c0.4,0.05,0.75,0.1,1.04,0.13c4.71,0.53,8.14,4.22,16.33,2.77
			C542.16,617.3,542.81,614.3,542.53,611.97z"/>
		<path class="st10" d="M542.53,611.97c-4.05-0.4-8.01-0.74-10.66-1.03c0.16,2.58-5.38,2.37-9.33,0.6
			c-2.99,0.08-7.03,0.08-11.08-0.21c-7.92-0.58-21.39-1.14-25.74-7.99c0,0,1.19,5.17-6.07,5.7c-7.26,0.53-15.18,2.06-17.56,2.55
			c-2.38,0.49-1.32,1.95-8.05,3.2c-6.73,1.25-176.12,19.47-178.1,19.47c-1.11,0-3.39-0.54-5.17-2.28c0.02,0.63,0.06,1.12,0.09,1.35
			c0.2,1.39,3.56,2.97,6.14,3.17c0.78,0.06,15.69-1.4,36.41-3.5c26.73-2.71,63.14-6.47,91.47-9.42c21.99-2.29,39.11-4.09,43.02-4.51
			c8.45-0.91,13.3-2.84,16.38-4.29c1.61-0.76,2.74-1.38,3.62-1.66c2.34-0.72,18.55-1.76,24.16-1.8c0.56,0,1.06,0,1.38,0.02
			c3.34,0.19,20.52,3.1,26.53,3.9c0.4,0.05,0.75,0.1,1.04,0.13c4.71,0.53,8.14,4.22,16.33,2.77
			C542.16,617.3,542.81,614.3,542.53,611.97z"/>
		<path class="st19" d="M474.23,598.53c14.6-1.43,38.88,0.78,46.8,1.59c-0.05-1.31,0.1-2.53,0.41-3.63
			c-4.93-0.03-22.63-0.12-33.93-0.06c-2.39,0.01-4.51,0.03-6.14,0.07c-2.19,0.04-7.87,0.45-15.79,1.12
			c-15.03,1.26-38.15,3.44-60.89,5.73c-23.92,2.4-47.4,4.92-60.56,6.62c-12.35,1.59-25.44,3.56-37.02,5.41
			c-18.7,3-33.45,5.71-34.67,6.07c-0.44,0.13-0.77,0.75-1.02,1.62c17.4-2.88,45.46-7.43,60.83-9.46
			C355.61,610.53,456.61,600.26,474.23,598.53z"/>
		<path class="st43" d="M402.35,565.21c-2.57-16.44-13.27-34.66-26.54-42.18c-13.27-7.53-49.51-23.17-59.61-19.61
			c-7.35,2.59-13,9.27-15.61,17.92c-0.98,3.23-1.54,6.73-1.59,10.4c-0.19,13.5,2.28,46.54,3.61,62.38
			c1.02,12.21,3.44,18.84,4.5,21.26c11.58-1.86,24.68-3.82,37.02-5.41c13.17-1.7,36.65-4.22,60.56-6.62
			C404.57,593.53,404.1,576.4,402.35,565.21z"/>
		<path class="st44" d="M372.71,670.57c0,0,0.18-1.22,0.29-3.17c0.31-5.41-0.06-11.05-1.89-16.19c-2.19-6.17-7.16-11.01-12.73-14.25
			c-4.91-2.86-12.81-6.44-17.36-1.11c-5.41,6.34-1.19,21.52,3.56,23.5c0,0,0.13,1.19-0.53,1.19c-0.43,0-10.27-5.72-19.28-13.99v0
			c3.18,4.53,7.18,8.8,11.67,12.04c5.39,3.9,11.75,6.19,18.01,8.25c6.64,2.19,13.27,4.23,20.29,4.73l0.01-0.01
			C374.06,671.25,373.37,670.93,372.71,670.57z"/>
		<path class="st22" d="M526.74,649.23c-0.06-0.37-0.12-0.74-0.12-1.11l0.07-9.24l0,0c-0.44-1.1-0.67-2.23-0.67-3.39
			c0-4.29,3.12-8.21,8.24-11.16c-5.19-0.72-11.42-2.37-14.29-9.08c-6.01-0.8-23.18-3.71-26.53-3.9c-0.33-0.02-0.82-0.02-1.38-0.02
			l22,53.09C516.37,658.57,520.81,653.36,526.74,649.23z"/>
		<path class="st45" d="M404.87,623.59c-28.33,2.95-64.74,6.72-91.47,9.42c2.81,4.87,6.99,9.5,11.38,13.53
			c9.01,8.27,18.85,13.99,19.28,13.99c0.66,0,0.53-1.19,0.53-1.19c-4.75-1.98-8.98-17.16-3.56-23.5c4.56-5.33,12.45-1.75,17.36,1.11
			c5.56,3.24,10.54,8.08,12.73,14.25c1.82,5.14,2.19,10.78,1.89,16.19c-0.11,1.96-0.29,3.17-0.29,3.17
			c0.67,0.36,1.36,0.69,2.06,0.99c0.01,0,0.01,0,0.02,0.01c22.22,2.17,28.36-5.95,29.95-13.08
			C406,652.75,405.22,631.61,404.87,623.59z"/>
		<path class="st46" d="M604.75,685.46c-5.41,13.69-22.73,22.5-44.56,22.5c-24.94,0-45.43-13.6-47.71-30.99l0,0l-0.09,36.46
			c0,9.45,5.18,18,13.56,24.24c8.52,6.33,20.36,10.26,33.44,10.26c10.36,0,19.92-2.48,27.69-6.64c4.87-2.61,9.03-5.88,12.23-9.64
			c2.1-2.47,3.27-5.61,3.44-8.85L604.75,685.46L604.75,685.46z"/>
		<path class="st26" d="M592.89,653.21c-0.54-2.42-1.75-4.71-3.5-6.79v1.7c0,8-14.05,14.49-31.39,14.49
			c-14.27,0-26.29-4.4-30.11-10.41c-0.39,1.28-0.61,2.6-0.61,3.95c0,11.5,14.76,20.82,32.97,20.82c18.21,0,32.97-9.32,32.97-20.82
			C593.22,655.15,593.1,654.17,592.89,653.21z"/>
		<path class="st47" d="M316.79,469.56c0.61-2.08,1.31-3.96,2.08-5.7c-2.74,0.56-5.82,1.14-6.84,1.14c-1.98,0-10.69-3.96-15.84-3.43
			c-4.69,0.48-117.75,16.35-138.07,19.2c1.26,8.46,2.34,15.81,2.42,16.91c0.18,2.47-1.86,9.94-21.94,13.65
			c-0.07,1.91-0.64,2.63-0.64,3.23c0,0.74,4.26,25,2.48,28.07c-1.11,1.91-4.48,3.51-6.87,4.45c-0.11,2.5-0.19,4.52-0.23,5.85
			c-0.26,10.43,0.92,17.43-8.32,18.09c-3.86,0.28-9.31,0.46-14.46,0.36c0.89,5.37,3.16,20.11,1.63,21.62
			c-1.87,1.85-5.18,3.55-6.25,0.53c-0.73-2.07-4.39-18.29-5.51-22.87c0.07,0.01,0.16,0.02,0.24,0.03c-2.51-0.39-4.29-0.96-4.7-1.78
			c-0.41-0.83-1.52-4.99-2.95-10.86c-3.09-0.34-8.78-1.08-14.29-2.47c4.6,28.63,19.36,64.69,24.37,70.63
			c5.35,6.34,18.62,1.78,20.4-1.39c1.78-3.17,19.41-78.62,19.41-78.62s2.38,0,7.33-0.79c4.95-0.79,8.45-7.53,10.03-7.79
			c1.5-0.25,126.51-16.8,139.16-18.48c-1.1-3.43-0.25-8.73,4.28-14.33c3-3.71,9.41-9.5,18.8-17.2
			C319.12,485.14,313.88,479.54,316.79,469.56z"/>
		<path class="st8" d="M83.43,514.55c-3.53,0.02-8.17-0.4-13.98-1.82c-14.95-3.66-15.25-13.07-15.25-13.07
			c-0.99,3.56,2.38,19.8,4.55,31.69c2.18,11.88,2.97,17.43,12.08,21.59c2.34,1.07,5.1,1.94,7.91,2.64
			c5.52,1.39,11.2,2.14,14.29,2.47C90.13,546.14,85.9,527.17,83.43,514.55z"/>
		<path class="st48" d="M560.26,691.58c-18.21,0-32.97-7.46-32.97-16.66v-10.7c-3.96,3.63-6.27,7.93-6.27,12.55
			c0,12.97,18.07,23.49,40.37,23.49c22.29,0,40.37-10.52,40.37-23.49c0-5.44-3.2-10.43-8.52-14.41v12.55
			C593.22,684.12,578.46,691.58,560.26,691.58z"/>
		<path class="st31" d="M525.95,737.67L525.95,737.67c0,0,1.96,21.62,6.91,45.58c4.95,23.96,9.11,35.25,16.44,37.83
			c7.33,2.57,15.64,0.4,19.21-8.12c3.56-8.52,13.66-43.96,16.24-54.06c1.18-4.63,1.9-11.51,2.34-17.6
			c-7.77,4.17-17.33,6.64-27.69,6.64C546.3,747.93,534.47,744,525.95,737.67z"/>
		<path class="st49" d="M532.46,473.72c-4.95-2.97-25.75-9.11-25.75-9.11l-56.44,46.93l-2.38,16.64c0,0,8.71,3.56,20.4,4.36
			c11.68,0.79,33.47-2.18,51.29-12.08c17.82-9.9,30.3-28.12,30.1-30.89C549.49,486.79,537.41,476.69,532.46,473.72z"/>
		<path class="st50" d="M843.7,339.45c-0.46-1.06-7.3-11.35-15.37-14.26c-4.59-1.65-15.46-4.08-21.91-5.04
			c-2.34-0.35-4.11-0.51-4.77-0.37c-2.51,0.53-5.88,3.96-5.71,5.41c0.17,1.45,6.11,10.3,8.22,12.15c0.42,0.37,1.59,0.95,3.23,1.65
			c5.01,2.14,14.37,5.39,19.91,6.96c1.81,0.51,3.22,0.85,3.92,0.9c3.18,0.24,9.23-1.73,11-2.44c0.22-0.09,0.38-0.16,0.45-0.2
			C843.37,343.81,844.17,340.51,843.7,339.45z"/>
		<path class="st51" d="M599.39,593.86c-0.24-1.2-1.19-2.55-2.89-3.9c-3.9-3.09-11.81-6.19-24.64-7.52
			c-8.7-0.9-16.83-0.59-24.16,1.19c-0.7,0.17-1.46,0.37-2.25,0.58c-7.45,2.01-18.18,5.69-20.33,6.94c-1.5,0.87-2.99,2.77-3.69,5.34
			c-0.41,1.51-0.56,3.25-0.27,5.16c0.79,5.15,4.29,8.45,9.18,9.11c2.45,0.33,7.27,0.73,12.19,1.21c4.88,0.48,9.87,1.04,12.77,1.69
			c5.81,1.32,15.71-0.53,20.86-2.77c0.56-0.25,1.2-0.5,1.86-0.76c5.41-2.12,13.6-4.63,15.83-5.57
			C596.36,603.5,600.18,597.82,599.39,593.86z"/>
		<path class="st52" d="M106.08,420.74c-1.53-1.3-3.33-3.04-5.34-4.67c-3.06-2.47-6.62-4.66-10.5-4.54
			c-5.71,0.18-11.25,2.21-15.79,10.54c-0.57,1.05-1.13,2.19-1.67,3.45c-0.96,2.24-1.74,3.3-1.88,5.41
			c-0.13,2.11-0.34,4.46,0.94,5.35c0.35,0.24,1.4,1.28,2.74,2.66c2.64,2.69,6.43,6.69,8.54,8.73c0.76,0.74,1.31,1.23,1.48,1.28
			c0.89,0.3,14.95-1.49,17.13-1.68c0.51-0.05,1.21-0.81,2-1.97c1.76-2.58,3.94-7.2,5.35-10.77c0.69-1.74,1.19-3.23,1.36-4.1
			C111.13,426.98,109.94,424.01,106.08,420.74z"/>
		<path class="st29" d="M435.42,255.49c-1.16-0.73-2.8-1.36-4.76-1.86c-2.77-0.7-6.19-1.12-9.9-1.12c-3.42,0-6.6,0.35-9.24,0.95
			c-4.46,1.01-7.39,2.74-7.39,4.69c0,3.12,7.45,5.64,16.63,5.64c9.19,0,16.64-2.53,16.64-5.64
			C437.4,257.19,436.68,256.28,435.42,255.49z"/>
		<path class="st34" d="M402.24,297.33v-3.69c-1.19-0.56-1.54-1.06-1.54-1.06v-6.46c-1.35,0.03-2.83,0-3.72-0.57
			c-0.71-0.45-0.99-1.21-1.06-2.03c-1.17,1.08-1.98,2.25-2.35,3.47c0.14-0.25,0.27-0.5,0.42-0.75c-0.15,0.25-0.29,0.5-0.42,0.75
			c-0.16,0.51-0.26,1.03-0.26,1.56C393.3,292.01,396.75,295.13,402.24,297.33z"/>
		<path class="st53" d="M449.32,285.62c-1.42-2.4-4.52-4.52-8.76-6.11v8.93C443.26,288.2,448.07,287.51,449.32,285.62z"/>
		<path class="st48" d="M450.08,287.48c-0.13-0.64-0.4-1.25-0.75-1.86c-1.25,1.9-6.06,2.58-8.76,2.82v0.98c0,0-2.35,4.21-6.87,5.29
			v4.8c9.74-1.92,16.5-6.09,16.5-10.95C450.2,288.19,450.15,287.83,450.08,287.48z"/>
		<path class="st54" d="M442.28,229.87c-2.77-0.79-16.98-4.22-24.31-3.56c-5.12,0.45-20.11,2.23-21.63,3.29
			c-0.84,0.59-1.07,2.23-1.11,3.72c-0.03,1.19,0.05,2.28,0.05,2.64c0,0.69,1.15,1.77,5.57,2.74c0.67,0.15,1.42,0.29,2.25,0.43
			c0.4,0.07,0.8,0.13,1.21,0.2c2.45,0.38,5.12,0.72,7.63,0.99c3.78,0.41,7.18,0.66,8.81,0.66c1.01,0,3.69-0.24,6.83-0.58
			c0.6-0.06,1.2-0.13,1.83-0.2c1.87-0.21,3.81-0.44,5.61-0.67c3.51-0.44,6.48-0.86,7.25-1.07c1.68-0.45,2.31-1.85,2.46-3.74
			c0.03-0.34,0.05-0.7,0.05-1.08C444.79,231.19,445.06,230.66,442.28,229.87z"/>
		<path class="st45" d="M532.46,473.72c-4.95-2.97-25.75-9.11-25.75-9.11c26.14,10.5,29.9,15.64,28.72,17.82
			c-1.19,2.18-14.85,19.41-36.64,27.13c-21.78,7.72-48.52,1.98-48.52,1.98l-2.38,16.64c0,0,8.71,3.56,20.4,4.36
			c11.68,0.79,33.47-2.18,51.29-12.08c17.82-9.9,30.3-28.12,30.1-30.89C549.49,486.79,537.41,476.69,532.46,473.72z"/>
		<path class="st55" d="M504.37,507.28c-1.8,0.82-3.65,1.6-5.58,2.28c-21.78,7.72-48.52,1.98-48.52,1.98l-2.38,16.64
			c0,0,8.71,3.56,20.4,4.36c11.68,0.79,33.47-2.18,51.29-12.08c1.63-0.91,3.21-1.9,4.75-2.93
			C514.45,515.83,507.82,510.69,504.37,507.28z"/>
		<path class="st56" d="M548.4,492.77c-3.59,6.35-14.46,19.71-28.82,27.69c-17.82,9.9-39.61,12.87-51.29,12.08
			c-11.68-0.79-20.4-4.36-20.4-4.36s2.64,3.23,2.67,7.06c0.03,3.83-0.3,24.29,0,26.01c0.3,1.72,2.67,3.43,2.67,3.43
			s-0.13-27.07,0-27.59c0.13-0.53,9.12,2.61,19.94,2.13c8.21,0.01,18.84-0.9,27.46-3.45c13.86-4.09,21.52-10.43,22.44-10.76
			c0.92-0.33,1.11,0.89,0.86,1.39c-0.25,0.5-4.65,3.27-2.87,6.73c1.78,3.47,5.25,4.16,6.24,4.95c0.63,0.5,8.31,20.38,13.82,34.78
			c1.34-1.96,3.34-4.88,5.09-7.44c0-10.45,0-30.03,0-32.76c0-3.74,2.19-3.69,2.19-5.27C548.41,525.8,548.41,492.77,548.4,492.77
			L548.4,492.77z"/>
		<path class="st57" d="M532.46,473.72c-4.95-2.97-25.75-9.11-25.75-9.11c26.14,10.5,29.9,15.64,28.72,17.82
			c-0.01,0.02-0.04,0.07-0.06,0.09c3.47,2.46,9.95,7.43,12.21,11.63c1.41-2.24,2.15-3.9,2.1-4.59
			C549.49,486.79,537.41,476.69,532.46,473.72z"/>
		<path class="st45" d="M453.93,515.4c0.69-0.59,6.83,0.89,21.19,0.99c7.41,0.05,14.09-2.69,18.83-5.36
			c-20.71,5.43-43.69,0.51-43.69,0.51l-2.38,16.64c0,0,7.37,3,17.62,4.11c-9.09-2.21-12.72-5-13.17-5.3
			C451.76,526.59,453.24,516,453.93,515.4z"/>
		<path class="st40" d="M413.9,622.64c-2.9,0.3-5.91,0.62-9.03,0.94c0.35,8.02,1.13,29.16-0.15,34.9
			c-1.59,7.13-7.73,15.25-29.95,13.08c8.67,3.76,19.31,3.01,24.99,1.18c1.59-0.51,6.71-4.67,13.4-10.53
			C414.19,650.67,414.05,631.64,413.9,622.64z"/>
		<path class="st58" d="M356.36,432.03c-8.27,5.35-28.87,20.99-29.96,22.97c-1.05,1.92,4.5,7.74,16.89,16.19
			c11.48-8.87,25.11-19.14,40.64-30.75c3.26-2.43,6.95-5.16,10.96-8.08c-3.69-1.5-15.76-6.24-20.27-6.08
			C369.27,426.49,364.63,426.68,356.36,432.03z"/>
		<path class="st42" d="M332.74,467.68c3.34,2.49,6.05,4.36,7.88,5.58c0.88-0.68,1.77-1.37,2.67-2.07
			c-9.97-6.8-15.5-11.9-16.74-14.63C326.91,459.13,328.19,464.29,332.74,467.68z"/>
		<path class="st19" d="M318.68,476.49c-1.35-2.43-1.23-6.6-0.72-10.35c-0.41,1.08-0.81,2.21-1.16,3.42
			c-2.91,9.98,2.32,15.59,5.73,18.05c1.27-1.04,2.62-2.13,4-3.25C323.86,482.41,320.34,479.47,318.68,476.49z"/>
		<path class="st59" d="M498.79,509.56c1.6-0.57,3.15-1.2,4.67-1.86c-6.25,1.51-14.5,3-23.81,3.34c-13.83,0.51-22.4-0.94-26.47-1.91
			l-2.91,2.42C450.27,511.54,477.01,517.29,498.79,509.56z"/>
		<path class="st60" d="M453.24,537.09c-0.13,0.53,0,27.59,0,27.59s-2.38-1.72-2.67-3.43c-0.3-1.72,0.03-22.18,0-26.01
			c-0.03-3.83-2.67-7.06-2.67-7.06l2.38-16.64l56.44-46.93c0,0,20.79,6.14,25.75,9.11c4.95,2.97,17.03,13.07,17.23,15.84
			c0.04,0.55-0.43,1.71-1.32,3.27c0.01-0.02,0.03-0.05,0.04-0.07l0,0c0,0,0,3.01,0,7.24c11.88-2.91,25.41-9.88,25.41-9.88
			l47.36-47.71c-0.4-14.65,12.48-79.41-15.45-99.61c-20.81-15.05-43.45-17.39-53.64-17.6c-3.37-0.07-6.65,0.9-9.42,2.82
			c-16.68,11.59-83.12,57.8-129.09,90.8c-1.95,1.4-3.87,2.78-5.74,4.13c-3.89,2.8-7.59,5.49-11.07,8.02
			c-4.75,3.46-9.08,6.65-12.84,9.46c-26.34,19.68-47.26,35.58-61.41,47.17c-9.39,7.69-15.8,13.48-18.8,17.2
			c-4.53,5.6-5.38,10.9-4.28,14.33c0.27,0.85,0.66,1.6,1.15,2.2c2.61-8.64,8.26-15.32,15.61-17.92
			c10.1-3.56,46.34,12.08,59.61,19.61c13.27,7.53,23.96,25.74,26.54,42.18c1.75,11.18,2.22,28.32,2.34,38.14
			c22.73-2.28,45.85-4.46,60.89-5.73c7.93-0.67,13.6-1.08,15.79-1.12c1.64-0.03,3.75-0.05,6.14-0.07c-1.48-4-5.48-14.9-8.89-24.74
			c-2.95-8.52-5.44-16.24-5.44-17.97c0-2.97,0-10.37,0-14.51C462.36,539.7,453.37,536.56,453.24,537.09z"/>
		<path class="st19" d="M453.24,537.09c-0.13,0.53,0,27.59,0,27.59s-2.38-1.72-2.67-3.43c-0.3-1.72,0.03-22.18,0-26.01
			c-0.03-3.83-2.67-7.06-2.67-7.06l2.38-16.64l56.44-46.93c0,0,20.79,6.14,25.75,9.11c4.95,2.97,17.03,13.07,17.23,15.84
			c0.04,0.55-0.43,1.71-1.32,3.27c0.01-0.02,0.03-0.05,0.04-0.07l0,0c0,0,0,3.01,0,7.24c11.88-2.91,25.41-9.88,25.41-9.88
			l47.36-47.71c-0.4-14.65,12.48-79.41-15.45-99.61c-20.81-15.05-43.45-17.39-53.64-17.6c-3.37-0.07-6.65,0.9-9.42,2.82
			c-16.68,11.59-83.12,57.8-129.09,90.8c-1.95,1.4-3.87,2.78-5.74,4.13c-3.89,2.8-7.59,5.49-11.07,8.02
			c-4.75,3.46-9.08,6.65-12.84,9.46c-26.34,19.68-47.26,35.58-61.41,47.17c-9.39,7.69-15.8,13.48-18.8,17.2
			c-4.53,5.6-5.38,10.9-4.28,14.33c0.27,0.85,0.66,1.6,1.15,2.2c2.61-8.64,8.26-15.32,15.61-17.92
			c10.1-3.56,46.34,12.08,59.61,19.61c13.27,7.53,23.96,25.74,26.54,42.18c1.75,11.18,2.22,28.32,2.34,38.14
			c22.73-2.28,45.85-4.46,60.89-5.73c7.93-0.67,13.6-1.08,15.79-1.12c1.64-0.03,3.75-0.05,6.14-0.07c-1.48-4-5.48-14.9-8.89-24.74
			c-2.95-8.52-5.44-16.24-5.44-17.97c0-2.97,0-10.37,0-14.51C462.36,539.7,453.37,536.56,453.24,537.09z"/>
		<path class="st43" d="M552.09,325.22c-3.37-0.07-6.65,0.9-9.42,2.82c-16.68,11.59-83.12,57.8-129.09,90.8
			c-1.95,1.4-3.87,2.78-5.74,4.13c-3.89,2.8-7.59,5.49-11.07,8.02c-4.75,3.46-9.08,6.65-12.84,9.46
			c-26.34,19.68-47.26,35.58-61.41,47.17c-9.39,7.69-15.8,13.48-18.8,17.2c-4.53,5.6-5.38,10.9-4.28,14.33l2.84-2.17
			c3-6.49,7.86-11.42,13.91-13.55c1.18-0.42,2.73-0.56,4.54-0.5l233.31-177.64C553.36,325.25,552.7,325.23,552.09,325.22z"/>
		<path class="st61" d="M411.52,562.97c-2.77-15.58-13.99-34.33-25.48-43.7c-11.49-9.37-35.25-19.67-48.85-22.31
			c-12.68-2.46-23.84-2.23-35.63,11c-2.59,4.4-3.02,8.41-2.12,11.19c0.27,0.85,0.66,1.6,1.15,2.2c2.61-8.64,8.26-15.32,15.61-17.92
			c10.1-3.56,46.34,12.08,59.61,19.61c13.27,7.53,23.96,25.74,26.54,42.18c1.75,11.18,2.22,28.32,2.34,38.14
			c3.04-0.31,6.08-0.61,9.11-0.91C413.85,595.64,413.79,575.72,411.52,562.97z"/>
		<path class="st62" d="M444.73,585.21c-0.4-1.32,5.48-14.38,4.69-18.05c-0.79-3.67-7.26-10.4-19.8-4.72
			c-0.87,0.4-1.72,0.79-2.54,1.17c0.8,11.76,1.08,27.8,1.17,37.42c0,0-0.01,0-0.01,0c12.51-1.2,24.18-2.28,33.47-3.08
			c-0.36,0.03-0.7,0.06-1.07,0.09C456.26,595.15,445.05,586.31,444.73,585.21z"/>
		<path class="st63" d="M458.65,593.99c0,0-0.7,2.21,6.92,3.63c7.93-0.67,13.6-1.08,15.79-1.12c1.64-0.03,3.75-0.05,6.14-0.07
			c-1.48-4-5.48-14.9-8.89-24.74c-4.37-0.84-14.82-2.91-19.96-4.53V593.99z"/>
		<path class="st55" d="M428.17,595.41l45.39-39.55c-0.23-0.92-0.36-1.62-0.38-2.03l-45.05,39.26
			C428.15,593.87,428.16,594.66,428.17,595.41z"/>
		<path class="st39" d="M453.24,537.09c-0.13,0.53,0,27.59,0,27.59s2.24-4.22,5.4-3.96c3.15,0.27,0.81,3.83,2,4.88
			c0.92,0.81,12.39,3.74,17.62,5.04c-2.79-8.1-5.08-15.27-5.08-16.92c0-2.97,0-10.37,0-14.51
			C462.36,539.7,453.37,536.56,453.24,537.09z"/>
		<path class="st49" d="M398.45,507.36c-17.3-12.15-48.32-22.97-58.35-24.03c-5.23-0.55-10.09,0.3-13.56,1.24l-0.41,0.12
			c0.45-0.36,0.9-0.73,1.36-1.1c-1.73,1.39-3.4,2.74-4.96,4.02c-9.39,7.69-15.8,13.48-18.8,17.2c-0.86,1.06-1.55,2.11-2.16,3.14
			c11.79-13.23,22.95-13.46,35.63-11c13.6,2.64,37.36,12.94,48.85,22.31c11.49,9.37,22.71,28.12,25.48,43.7
			c2.27,12.76,2.33,32.67,2.27,39.47c4.47-0.44,8.9-0.87,13.24-1.29c-0.14-13.51-0.63-37.97-2.32-47.31
			C422.35,540.63,415.74,519.51,398.45,507.36z"/>
		<path class="st64" d="M467.17,593.07c-0.23-3.29,0.29-19.57,0.43-23.64c-3.36-0.75-6.67-1.55-8.95-2.27v26.83
			c0,0-0.7,2.21,6.92,3.63c2.22-0.19,4.24-0.35,6.08-0.5C469.77,596.55,467.33,595.36,467.17,593.07z"/>
		<path class="st55" d="M425.91,552.67c-2.38-13.2-8.98-34.33-26.27-46.47c-17.3-12.15-48.32-22.97-58.35-24.03
			c-5.23-0.55-10.09,0.3-13.56,1.24c-0.54,0.44-1.07,0.86-1.6,1.29l0.41-0.12c3.47-0.94,8.33-1.79,13.56-1.24
			c10.03,1.06,41.06,11.88,58.35,24.03c17.3,12.15,23.9,33.27,26.27,46.47c1.68,9.35,2.17,33.8,2.32,47.31
			c0.4-0.04,0.8-0.08,1.2-0.12C428.11,587.77,427.64,562.25,425.91,552.67z"/>
		<path class="st65" d="M428.33,621.14c-0.36,0.04-0.73,0.08-1.1,0.11c0.16,6.05,0.4,18.6-0.09,22.77
			c-0.28,2.32-1.15,5.06-2.35,7.78c0.54-0.49,1.07-0.98,1.61-1.47c0.97-2.89,1.69-5.92,1.89-8.41
			C428.6,638.07,428.42,626.05,428.33,621.14z"/>
		<path class="st55" d="M482.81,552.8c-0.91-0.81-3.9-9.58-5.26-13.67c-1.51,0.05-2.99,0.09-4.38,0.09c0,4.14,0,11.54,0,14.51
			c0,1.73,2.49,9.45,5.44,17.97c3.4,9.84,7.41,20.74,8.89,24.74c3.67-0.02,8.01-0.03,12.36-0.02c-2.89-8.07-10.31-28.8-12.36-34.5
			C484.94,554.78,484,553.86,482.81,552.8z"/>
		<path class="st66" d="M493.44,611.35c-0.33-0.02-0.82-0.02-1.38-0.02l22,53.09c1.4-3.53,3.58-6.83,6.39-9.8l-15.46-41.66
			C499.8,612.16,495.04,611.44,493.44,611.35z"/>
		<path class="st67" d="M486.11,550.03c-0.4-0.9-2.6-7.83-3.65-11.18c-1.67,0.13-3.32,0.23-4.91,0.28
			c1.22,3.66,3.74,11.05,4.9,13.15C484.63,552.58,486.52,550.95,486.11,550.03z"/>
		<path class="st65" d="M527.31,538.08c-0.99-0.79-4.46-1.49-6.24-4.95c-1.78-3.47,2.62-6.24,2.87-6.73
			c0.25-0.5,0.07-1.72-0.86-1.39c-0.92,0.33-8.58,6.67-22.44,10.76c-5.62,1.66-12.08,2.61-18.18,3.07
			c1.06,3.36,3.25,10.29,3.65,11.18c0.41,0.92-1.49,2.55-3.65,2.25c0.14,0.25,0.26,0.44,0.36,0.52c0.37,0.33,0.71,0.64,1.09,1.13
			c7.09-2.78,14.91-7.05,20.04-9.26C509.62,542.23,527.31,538.08,527.31,538.08z"/>
		<path class="st12" d="M541.13,572.86c-5.51-14.4-13.19-34.27-13.82-34.78c0,0-1.19,0.28-3.03,0.73l20.35,45.63
			c0.28-0.08,0.56-0.16,0.83-0.23C544.44,581.54,542.9,577.48,541.13,572.86z"/>
		<path class="st68" d="M497.6,539.13c8.61-1.7,18.1-5.89,23.11-8.3c0.43-2.33,3.04-4.05,3.23-4.43c0.25-0.5,0.07-1.72-0.86-1.39
			c-0.92,0.33-8.58,6.67-22.44,10.76c-8.62,2.54-19.25,3.46-27.46,3.45c0,4.14,0,11.54,0,14.51c0,1.67,2.34,8.95,5.16,17.14
			l0.29-29.3C478.62,541.57,485.19,541.58,497.6,539.13z"/>
		<path class="st69" d="M520.23,615.8c-0.09-0.18-0.18-0.36-0.27-0.55c-6.01-0.8-23.18-3.71-26.53-3.9
			c-0.33-0.02-0.82-0.02-1.38-0.02l0.73,1.77c3.78,0.76,11.01,2.16,14.71,2.54C511.04,616.01,516.91,615.9,520.23,615.8z"/>
		<path class="st38" d="M597.41,660.53c-0.95,0.15-1.21,2.39-1.26,4.37c3.53,3.48,5.59,7.53,5.59,11.87
			c0,12.97-18.07,23.49-40.37,23.49c-1.08,0-2.14-0.03-3.19-0.08c-2.53,0.89-5.16,1.97-6.59,2.99c-1.94,1.4,5.46,3.49,13.92,4.58
			c19.28-1.32,34.27-9.74,39.23-22.29c0.1-0.25,0.17-0.51,0.26-0.76C607.63,669.89,598.88,660.31,597.41,660.53z"/>
		<path class="st13" d="M592.89,653.21c0.22,0.96,0.34,1.94,0.34,2.94v6.22c1.08,0.8,2.04,1.66,2.93,2.54
			c0.04-1.98,0.31-4.23,1.26-4.37c1.47-0.23,10.21,9.36,7.6,24.16c0.97-2.69,1.51-5.56,1.51-8.58
			C606.52,666.47,601.67,659.08,592.89,653.21z"/>
		<path d="M532.32,687.27c-5.28-3.76-5.94-10.3-6.07-10.63c-0.13-0.33-0.99-0.33-3.1,0.33c-0.97,0.3-1.6,0.92-2.02,1.5
			c0.46,3.72,2.4,7.2,5.49,10.24C532.84,689.09,532.32,687.27,532.32,687.27z"/>
		<path d="M597.61,679.92c1.69-0.18,3.19-2.28,4.09-3.84c-0.13-2.65-1.02-5.19-2.55-7.55c-2.18-0.54-4.61,1.88-5.92,3.45v2.93
			c0,1.21-0.27,2.38-0.75,3.52C593.12,680.33,595.32,680.17,597.61,679.92z"/>
		<path class="st70" d="M555.03,673.86c5.25,0.33,16.83-0.43,20.3-2.42c3.47-1.99,1.58-2.37-3.27-0.88
			c-4.85,1.49-23.37,1.58-32.97-3.66c-6.4-3.5-8.31-8.88-8.87-12.08c-0.94-0.83-1.74-1.71-2.32-2.63c-0.39,1.28-0.61,2.6-0.61,3.95
			c0,11.5,14.76,20.82,32.97,20.82c1.29,0,2.55-0.06,3.8-0.15C554.25,676.31,551.09,673.62,555.03,673.86z"/>
		<path d="M540.62,633.05c-0.37,1.02-0.67,2.41-0.45,3.92c0.41,2.69,4.08,6.19,4.82,0.81C542.87,636.46,541.33,634.84,540.62,633.05
			z"/>
		<path d="M537.87,629.9c0.99,0.5,1.82,0.31,2.38,0.03c0.12-0.79,0.4-1.55,0.82-2.28c-0.61-1.09-1.36-2.03-1.92-2.68
			c-0.81-0.13-1.56-0.24-2.24-0.32c-0.75,0.67-1.4,1.37-1.92,2.1C535.67,627.85,536.75,629.34,537.87,629.9z"/>
		<path d="M577.54,630.81c0,0.68-0.13,1.35-0.35,1.99c0,0.01-0.01,0.03-0.02,0.04c1.2,1.2,3.16,2.46,5.35,1.1
			c0.27-0.79,0.43-1.6,0.43-2.43c0-2.98-1.83-5.73-4.91-7.95c-1.17,0.54-2.39,1.03-3.66,1.48
			C576.36,626.69,577.54,628.67,577.54,630.81z"/>
		<path d="M572.03,638.19c-3.38,1.87-8.03,3.03-13.17,3.03c-2.33,0-4.56-0.24-6.62-0.68c-0.65,0.77-1.31,2.01-1.14,3.73
			c2.24,0.36,4.6,0.56,7.05,0.56c6.64,0,12.65-1.4,17.1-3.68C575.38,639.38,573.54,638.56,572.03,638.19z"/>
		<path d="M550.48,628.52c0-0.51,0.16-0.99,0.4-1.46c-0.36-0.06-0.72-0.11-1.08-0.17c-0.69,0.51-1.24,1.08-1.6,1.7
			c0.73,0.35,1.71,0.45,2.38,0.46C550.54,628.88,550.48,628.71,550.48,628.52z"/>
		<path d="M566.59,631.54c-1.62,1.3-4.22,2.16-7.2,2.16c-3.36,0-6.27-1.09-7.79-2.69c-0.91,0.33-2.11,1.14-1.88,2.81
			c2.11,1.61,5.64,2.68,9.67,2.68c3.14,0,5.96-0.66,8.07-1.71C567.56,633.25,567.04,632.15,566.59,631.54z"/>
		<path d="M568.3,628.52c0,0.34-0.06,0.67-0.17,0.99c-0.03,0.08-0.08,0.15-0.11,0.22c0.83-0.01,1.82-0.31,2.27-1.57
			c-0.41-0.54-0.95-1.04-1.61-1.49c-0.28,0.06-0.57,0.11-0.86,0.17C568.13,627.38,568.3,627.94,568.3,628.52z"/>
		<path class="st71" d="M567.82,626.85c-1.99,0.41-4.09,0.73-6.32,0.94c-2.99,0.28-6.78-0.12-10.63-0.72
			c-0.24,0.46-0.4,0.95-0.4,1.46c0,0.18,0.06,0.35,0.09,0.53c0.03,0.17,0.03,0.35,0.09,0.52c0.18,0.51,0.52,0.99,0.94,1.43
			c1.52,1.6,4.42,2.69,7.79,2.69c2.97,0,5.58-0.86,7.2-2.16c0.67-0.54,1.16-1.14,1.44-1.81c0.03-0.08,0.08-0.15,0.11-0.22
			c0.11-0.32,0.17-0.65,0.17-0.99C568.3,627.94,568.13,627.38,567.82,626.85z"/>
		<path class="st72" d="M546.4,651.01c-5.74-1.17-10.69-3.16-14.26-5.72c-0.15,2.97-0.31,7.43-0.13,10.93
			c3.51,2.4,8.52,4.28,14.42,5.36C546.62,657.98,546.52,653.92,546.4,651.01z"/>
		<path class="st72" d="M589.38,638.68c-1.6,4.29-6.35,7.98-12.94,10.42c0.18,3.14,0.34,7.39,0.17,10.67
			c7.74-2.64,12.78-6.87,12.78-11.65v-1.7v-7.73L589.38,638.68z"/>
		<path class="st73" d="M532.14,645.29c-2.63-1.88-4.52-4.05-5.45-6.41l0,0l-0.07,9.24c0,0.38,0.06,0.74,0.12,1.11
			c0.17,1.02,0.56,2.01,1.16,2.96c0.92,1.45,2.32,2.8,4.11,4.02C531.83,652.71,531.99,648.26,532.14,645.29z"/>
		<path class="st74" d="M534.23,668.9c-4.34-3.52-6.94-7.94-6.94-12.75v8.07v10.7c0,3.99,2.78,7.65,7.4,10.51
			C534.21,680.55,534.2,672.8,534.23,668.9z"/>
		<path class="st67" d="M546.26,674.98c-4.74-1.41-8.85-3.5-12.03-6.08c-0.03,3.91-0.02,11.65,0.46,16.54
			c3.1,1.93,7.05,3.48,11.54,4.55C546.01,685.9,546.06,678.78,546.26,674.98z"/>
		<path class="st53" d="M580.12,672.74c0,4.36,0,11.45,0,15.46c7.95-3.04,13.11-7.85,13.11-13.28v-12.55v-6.22
			C593.22,662.93,588.07,668.94,580.12,672.74z"/>
		<path class="st37" d="M522.8,695.13c-5.7-5.07-9.42-11.32-10.32-18.16l0,0l-0.09,36.46c0,8.54,4.24,16.34,11.24,22.37
			C522.78,723.44,522.77,703.24,522.8,695.13z"/>
		<path class="st27" d="M595.34,697.58c-2.75,2.15-5.91,4.01-9.46,5.54c-0.14,7.6-0.57,28.55-1.21,39.37
			c0.82-0.38,1.63-0.77,2.41-1.19c2.57-1.38,4.92-2.95,7.06-4.66C595.47,725.44,595.42,705.28,595.34,697.58z"/>
		<path d="M526.37,741.76c0.74,6.8,2.52,21.27,5.66,37.36c-0.48-12.22-1-24.94-1.28-28.02
			C530.41,747.56,528.07,743.96,526.37,741.76z"/>
		<path class="st41" d="M575.93,745.69c-5.15,1.43-10.71,2.24-16.54,2.24c-0.59,0-1.16-0.05-1.75-0.07
			c-0.49,9.21-1.93,36.68-2.48,49.97c-0.39,9.48-0.78,18.43-1.03,24.21c3.02,0.18,5.99-0.46,8.55-2.05
			c3.11-12.16,7.9-31.43,9.38-40.12C573.73,770.05,575.26,753.52,575.93,745.69z"/>
		<path class="st18" d="M596.82,612.15c-0.38,0.05-0.83,0.13-1.3,0.23c-1.21,1.28-3.21,2.99-6.13,4.09
			c-5.15,1.94-20.79,7.27-28.72,7.57c-7.92,0.3-25.55-2.67-31.3-3.76c-3.59-0.68-6.36-3.09-7.93-4.82
			c-0.14-0.02-0.29-0.05-0.43-0.07c-0.29-0.03-0.64-0.08-1.04-0.13c2.87,6.71,9.1,8.36,14.29,9.08c0.84,0.12,1.66,0.21,2.42,0.29
			c5.94,0.66,17.69,3.83,24.82,3.17c7.02-0.65,12.75-2.33,17.71-4.77c0.08-0.04,0.17-0.08,0.25-0.12
			c5.02-2.51,11.09-3.56,15.18-5.81c2.3-1.26,3.14-3.41,3.43-5.06C597.63,612.06,597.2,612.1,596.82,612.15z"/>
		<path class="st75" d="M598.71,598.53c-1.13,2.79-3.26,5.35-4.87,6.02c-0.24,0.1-0.57,0.23-0.94,0.36c-0.43,2-1.18,4.86-2.16,6.04
			C590.74,610.96,603.21,605.78,598.71,598.53z"/>
		<path d="M529.38,620.27c0.85,0.16,1.99,0.37,3.29,0.59c5.92-0.29,15.32-1.75,17.72-8.01c-2.4-0.32-5.14-0.61-7.86-0.88
			c0.28,2.33-0.37,5.33-5.19,6.18c-7.93,1.41-11.4-2.01-15.9-2.71C523.02,617.17,525.79,619.59,529.38,620.27z"/>
		<path d="M595.52,612.37c-4.77,0.97-13.64,3.74-17.5-2.25c-0.67,0.26-1.3,0.52-1.86,0.76c-1.58,0.69-3.62,1.34-5.84,1.88
			c3.3,1.39,9.58,3.33,19.21,3.63C592.37,615.3,594.33,613.64,595.52,612.37z"/>
		<path class="st76" d="M650.49,630.96c-6.34,0-19.41-8.71-29.31-15.45c-9.9-6.73-23.1-3.47-23.1-3.47
			c4.92-0.28,13.56,0.82,17.56,2.07c4.36,1.37,24.42,16.99,33.67,18.57c9.24,1.58,26.67-4.49,46.21-9.24
			c19.54-4.75,127.54-26.67,136.25-28.25c2.06-0.37,3.64-0.98,4.83-1.74c-0.08,0.02-114.81,22.47-131.24,26.04
			C688.91,623.04,656.82,630.96,650.49,630.96z"/>
		<path class="st77" d="M778.91,587.09c0.49,2.48,3.27,1.98,9.6,1.58c5.76-0.36,43.65-3.5,50.51-4.07c-0.22-0.7-0.49-1.4-0.81-2.1
			c-0.55-1.22-1.12-2.47-1.69-3.66c-9.56,0.83-52.81,4.59-54.75,4.59C779.61,583.43,778.42,584.62,778.91,587.09z"/>
		<path class="st47" d="M835.74,577.23c-1.8-3.5-3.77-6.29-6.09-6.47c-3.43-0.26-24.03-1.98-70.24-1.45
			c-46.21,0.53-125.69,3.56-130.04,5.02c0,0,4.09,3.89,10.03,4.52C644.77,579.41,770.71,573.25,835.74,577.23z"/>
		<path class="st78" d="M599.39,593.86c-0.24-1.2-1.19-2.55-2.89-3.9c-0.34-0.27-0.73-0.54-1.13-0.81c2.6,5.94,0.32,7.99-1,9.23
			c-1.58,1.48-16.24,6.18-21.52,7.5c-5.28,1.32-11.62,1.32-15.45,1.19c-3.83-0.13-18.75-1.72-25.27-3.04
			c-4.36-0.88-8.32-5.31-10.48-8.16c-0.07,0.21-0.17,0.4-0.23,0.62c-0.41,1.51-0.56,3.25-0.27,5.16c0.79,5.15,4.29,8.45,9.18,9.11
			c2.45,0.33,7.27,0.73,12.19,1.21c4.88,0.48,9.87,1.04,12.77,1.69c5.81,1.32,15.71-0.53,20.86-2.77c0.56-0.25,1.2-0.5,1.86-0.76
			c5.41-2.12,13.6-4.63,15.83-5.57C596.36,603.5,600.18,597.82,599.39,593.86z"/>
		<ellipse class="st12" cx="559.36" cy="594.15" rx="5.67" ry="3.49"/>
		<ellipse class="st75" cx="560.12" cy="594.15" rx="4.29" ry="2.27"/>
		<ellipse class="st12" cx="535.26" cy="594.76" rx="6.31" ry="3.33"/>
		<path class="st75" d="M535.26,598.09c-3.48,0-6.31-1.49-6.31-3.33v2.88c0,1.84,2.82,3.33,6.31,3.33c3.48,0,6.31-1.49,6.31-3.33
			v-2.88C541.57,596.6,538.74,598.09,535.26,598.09z"/>
		<ellipse class="st75" cx="535.26" cy="594.76" rx="2.77" ry="1.46"/>
		<ellipse class="st12" cx="584.59" cy="590.78" rx="6.31" ry="3.33"/>
		<path class="st75" d="M584.59,594.11c-3.48,0-6.31-1.49-6.31-3.33v2.88c0,1.84,2.82,3.33,6.31,3.33c3.48,0,6.31-1.49,6.31-3.33
			v-2.88C590.9,592.62,588.07,594.11,584.59,594.11z"/>
		<ellipse class="st75" cx="584.59" cy="590.78" rx="2.77" ry="1.46"/>
		<path class="st75" d="M518.99,608.68c1.95,3.99,13.1,5.91,12.88,2.27c-0.57-0.06-1.09-0.12-1.53-0.18
			c-4.88-0.66-8.38-3.96-9.18-9.11c-0.07-0.43-0.1-0.84-0.13-1.25C519.63,602.25,517.55,605.72,518.99,608.68z"/>
		<path class="st79" d="M331.51,616.46c-1.19,0.14-50.67,5.84-60.2,6.94c-0.31,1.28-0.47,3.01-0.54,4.68
			c19.14-2.55,59.83-7.98,60.74-8.06C332.7,619.91,332.84,616.3,331.51,616.46z"/>
		<path class="st40" d="M374.35,654.63c0.96,4.67,0.79,8.93,0.6,11.07c-0.07,0.81,0.52,1.51,1.33,1.56
			c4.34,0.29,16.85,0.5,20.14-6.34c3.95-8.19,3.62-13.51,3.11-36.79c-0.79,0.08-1.6,0.17-2.39,0.25c0.09,9.79,1.08,22.52-1.23,27.94
			c-2.41,5.66-8.16,7.54-11.72,7.94c-3.56,0.4-3.83-1.85-3.04-2.64c0.79-0.79,3.43,0.26,6.73-1.32c3.3-1.58,7.26-5.15,7.79-11.78
			c0.41-5.21,0.18-15.72,0.06-19.99c-1.89,0.2-3.81,0.4-5.75,0.6c-0.04,4.63-0.19,18.28-0.52,21.01
			C389.09,649.34,383.74,654.38,374.35,654.63z"/>
		<path class="st57" d="M395.68,644.52c-0.53,6.64-4.49,10.2-7.79,11.78c-3.3,1.58-5.94,0.53-6.73,1.32
			c-0.79,0.79-0.53,3.04,3.04,2.64c3.56-0.4,9.32-2.28,11.72-7.94c2.3-5.42,1.32-18.15,1.23-27.94c-0.47,0.05-0.93,0.1-1.4,0.15
			C395.86,628.81,396.09,639.31,395.68,644.52z"/>
		<path class="st80" d="M404.87,623.59c-1.75,0.18-3.53,0.37-5.34,0.56c0.52,23.28,0.84,28.6-3.11,36.79
			c-3.3,6.84-15.8,6.63-20.14,6.34c-0.81-0.05-1.4-0.76-1.33-1.56c0.19-2.13,0.36-6.4-0.6-11.07c-0.69-3.38-1.98-6.97-4.29-10.11
			c-6.87-9.34-16.06-13.32-21.26-13.96c-4.18-0.51-11.68,1.78-12.28,11.79c-0.13,2.15,0.04,4.63,0.64,7.53
			c0.09,0.44-0.39,0.77-0.74,0.5c-3.3-2.51-13.65-10.68-18.2-17.87c-1.64,0.17-3.25,0.33-4.82,0.49c2.81,4.87,6.99,9.5,11.38,13.53
			c9.01,8.27,18.85,13.99,19.28,13.99c0.66,0,0.53-1.19,0.53-1.19c-4.75-1.98-8.98-17.16-3.56-23.5c4.56-5.33,12.45-1.75,17.36,1.11
			c5.56,3.24,10.54,8.08,12.73,14.25c1.82,5.14,2.19,10.78,1.89,16.19c-0.11,1.96-0.29,3.17-0.29,3.17
			c0.67,0.36,1.36,0.69,2.06,0.99c0.01,0,0.01,0,0.02,0.01c22.22,2.17,28.36-5.95,29.95-13.08
			C406,652.75,405.22,631.61,404.87,623.59z"/>
		<path class="st19" d="M336.43,650.39c0.36,0.27,0.84-0.06,0.74-0.5c-0.61-2.91-0.77-5.39-0.64-7.53c-2.2-1.61-7.27-5.7-9.79-10.7
			c-2.91,0.3-5.76,0.59-8.51,0.87C322.78,639.71,333.13,647.88,336.43,650.39z"/>
		<path class="st81" d="M345.39,630.75c1.24-0.26,2.43-0.31,3.42-0.19c5.2,0.64,14.39,4.62,21.26,13.96
			c2.31,3.14,3.59,6.73,4.29,10.11c0.82,4.01,0.81,7.71,0.67,10.03c2.03-1.12,4.93-3.16,5.14-5.72c0.33-3.96-2.98-4.55-2.98-4.55
			s-0.12-4.43-6.99-14.06c-4.92-6.9-12.19-10.19-15.93-11.5c-2.63,0.27-5.25,0.54-7.85,0.81
			C345.96,630.04,345.63,630.43,345.39,630.75z"/>
		
			<ellipse transform="matrix(0.6925 -0.7214 0.7214 0.6925 -360.9816 457.3376)" class="st82" cx="355.99" cy="652.12" rx="11.39" ry="19.79"/>
		<path class="st44" d="M344.55,642.59c3.15-3.28,8.79-3.34,14.43-0.69c-6.05-3.94-12.68-4.51-16.12-0.93
			c-3.43,3.58-2.59,10.18,1.59,16.06C341.57,651.51,341.4,645.87,344.55,642.59z"/>
		<path class="st83" d="M366.72,660.59c-3.25,3.39-10,2.18-15.07-2.68c-5.07-4.87-6.55-11.56-3.3-14.95
			c0.88-0.92,2.03-1.49,3.32-1.75c-2.06-0.13-3.85,0.39-5.06,1.65c-3.15,3.28-1.18,10.27,4.39,15.61
			c5.57,5.35,12.63,7.02,15.78,3.74c1.1-1.15,1.56-2.75,1.48-4.58C368,658.76,367.5,659.77,366.72,660.59z"/>
		
			<ellipse transform="matrix(0.6925 -0.7214 0.7214 0.6925 -360.6478 457.4641)" class="st84" cx="356.31" cy="651.79" rx="5" ry="8.68"/>
		
			<ellipse transform="matrix(0.6925 -0.7214 0.7214 0.6925 -360.5137 457.7461)" class="st85" cx="356.71" cy="651.78" rx="2.37" ry="3.26"/>
		<path class="st8" d="M337.01,639.17c0.14-0.58,0.31-1.13,0.51-1.64c-3.05-1.53-5.05-4.46-6.1-6.35c-0.67,0.07-1.35,0.14-2.01,0.21
			C330.66,633.67,333.16,637.34,337.01,639.17z"/>
		<path class="st19" d="M396.42,563.03c-2.36-12.87-10.31-28.12-27.15-38.08c-16.83-9.96-45.35-18.16-53.33-13.41
			c-7.98,4.75-9.45,9.7-8.06,58.02c0.92,32.03,3.04,41.95,4.37,45c2.25-0.35,4.53-0.71,6.85-1.06c-0.92-0.71-3.63-6-4.67-43.43
			c-1.25-45.4,0.08-50.06,7.27-54.52c7.2-4.47,32.92,3.24,48.1,12.6c15.18,9.36,22.36,23.68,24.49,35.78
			c1.76,9.99,2.06,32.66,2.12,40.25c0.78-0.08,1.56-0.16,2.34-0.24C398.65,594.47,398.23,572.92,396.42,563.03z"/>
		<path class="st86" d="M315.94,511.54c7.98-4.75,36.5,3.45,53.33,13.41c16.83,9.96,24.79,25.21,27.15,38.08
			c1.81,9.89,2.23,31.44,2.33,40.92c1.97-0.2,3.95-0.4,5.93-0.6c-0.12-9.82-0.59-26.95-2.34-38.14
			c-2.57-16.44-13.27-34.66-26.54-42.18c-13.27-7.53-49.51-23.17-59.61-19.61c-7.35,2.59-13,9.27-15.61,17.92
			c-0.98,3.23-1.54,6.73-1.59,10.4c-0.19,13.5,2.28,46.54,3.61,62.38c1.02,12.21,3.44,18.84,4.5,21.26
			c1.69-0.27,3.41-0.54,5.15-0.82c-1.33-3.05-3.45-12.97-4.37-45C306.5,521.25,307.97,516.3,315.94,511.54z"/>
		<path class="st87" d="M369.31,530.96c-14.31-9.05-38.55-16.51-45.33-12.19c-6.78,4.32-8.03,8.82-6.85,52.73
			c0.88,32.83,3.07,40.1,4.11,41.68c0.46-0.07,0.93-0.14,1.4-0.21c-0.99-1.92-2.84-9.55-3.6-39.43
			c-1.07-41.78,0.06-46.06,6.22-50.17c6.15-4.11,28.13,2.99,41.11,11.6c12.98,8.61,19.11,19.39,20.93,30.52
			c1.52,9.27,1.77,32.09,1.81,39.45c1.75-0.18,3.51-0.36,5.28-0.54c-0.05-7.84-0.33-31.66-2-41.36
			C390.38,551.34,383.62,540.01,369.31,530.96z"/>
		<path class="st8" d="M369.81,528.15c-15.18-9.36-40.9-17.07-48.1-12.6c-7.2,4.47-8.52,9.12-7.27,54.52
			c1.03,37.43,3.74,42.73,4.67,43.43c0.71-0.11,1.42-0.22,2.13-0.32c-1.05-1.58-3.23-8.86-4.11-41.68
			c-1.18-43.91,0.07-48.41,6.85-52.73c6.78-4.32,31.02,3.14,45.33,12.19c14.31,9.05,21.07,20.38,23.08,32.07
			c1.66,9.7,1.95,33.52,2,41.36c0.68-0.07,1.35-0.14,2.03-0.21c-0.05-7.59-0.36-30.26-2.12-40.25
			C392.17,551.84,384.99,537.51,369.81,528.15z"/>
		<path class="st88" d="M369.31,530.96c-13.33-8.43-35.26-15.47-43.69-12.91c0.37,1.18,0.78,2.78,1.02,4.66
			c7.57-2.53,27.58,4.2,39.72,12.25c9.86,6.54,15.77,14.34,18.83,22.59c-0.92-8.09-8.38-19.11-12.48-24.29
			C371.62,532.49,370.5,531.71,369.31,530.96z"/>
		<path class="st89" d="M318.82,483.97c-2.37,1.87-8.32,6.32-12.53,7.18c-5.35,1.09-5.35,1.09-5.35,1.09l-162.46,20.22
			c-0.19,1.11-0.53,1.65-0.53,2.11c0,0.74,4.26,25,2.48,28.07c-1.11,1.91-4.48,3.51-6.87,4.45c-0.11,2.5-0.19,4.52-0.23,5.85
			c-0.26,10.43,0.92,17.43-8.32,18.09c-3.86,0.28-9.31,0.46-14.46,0.36c0.89,5.37,3.16,20.11,1.63,21.62
			c-1.87,1.85-5.18,3.55-6.25,0.53c-0.73-2.07-4.39-18.29-5.51-22.87c0.07,0.01,0.16,0.02,0.24,0.03c-2.51-0.39-4.29-0.96-4.7-1.78
			c-0.41-0.83-1.52-4.99-2.95-10.86c-3.09-0.34-8.78-1.08-14.29-2.47c4.6,28.63,19.36,64.69,24.37,70.63
			c5.35,6.34,18.62,1.78,20.4-1.39c1.78-3.17,19.41-78.62,19.41-78.62s2.38,0,7.33-0.79c4.95-0.79,8.45-7.53,10.03-7.79
			c1.5-0.25,126.51-16.8,139.16-18.48c-1.1-3.43-0.25-8.73,4.28-14.33c3-3.71,9.41-9.5,18.8-17.2
			C321.37,486.78,320.01,485.57,318.82,483.97z"/>
		<path class="st46" d="M306.3,491.15c4.2-0.86,10.16-5.31,12.53-7.18c-0.42-0.56-0.81-1.18-1.16-1.84
			c-2.14,1.41-7.23,4.6-10.67,5.49c-4,1.04-132.3,17.74-158.49,21.14c-2.68,0.96-5.93,1.84-9.9,2.57c-0.02,0.43-0.06,0.79-0.11,1.12
			l162.46-20.22C300.95,492.23,300.95,492.23,306.3,491.15z"/>
		<path class="st49" d="M316.79,469.56c0.61-2.08,1.31-3.96,2.08-5.7c-2.74,0.56-5.82,1.14-6.84,1.14c-1.6,0-7.56-2.57-12.51-3.29
			c-0.18,3.33,0.08,8.3,2.54,12.27c3.39,5.47,11.66,8.15,14.4,8.9c0.45-0.28,0.86-0.55,1.19-0.76
			C316.04,479.09,315.22,474.97,316.79,469.56z"/>
		<path class="st90" d="M154.82,458.9c-0.58-3.83-0.97-6.36-0.97-6.36c0.53,4.26-10.64,9.35-26.72,12.75
			c1.83,1.24,3.43,2.32,4.64,3.18c4.76-0.84,13.95-2.57,16.36-3.72C150.55,463.58,153.04,462.27,154.82,458.9z"/>
		<path class="st64" d="M160.54,497.68c-0.08-1.1-1.15-8.45-2.42-16.91c-1.14-7.66-2.44-16.2-3.31-21.87
			c-1.78,3.37-4.27,4.68-6.69,5.84c-0.36,0.17-0.87,0.36-1.49,0.55l0,0c0,0,5.45,32.19,5.98,34.97c0.33,1.73-0.07,4.79-1.18,7.33
			C159.64,503.87,160.67,499.46,160.54,497.68z"/>
		<path class="st3" d="M153.42,454.31c0.34-0.6,0.5-1.19,0.43-1.77c-0.21-1.66-2.18-3.01-5.49-3.99c0.12,1.33,0.37,3.04,0.96,3.99
			C149.9,453.47,151.8,454.01,153.42,454.31z"/>
		<path class="st3" d="M116.51,455.97c-0.13-0.52-3.3-4.5-4.82-5.16c-0.84-0.37-1.55,0.48-2.02,1.31c1.68,1.54,3.54,3.08,5.47,4.59
			C116.04,456.57,116.58,456.25,116.51,455.97z"/>
		<path class="st3" d="M135.97,463.11c-0.54-0.87-1.63-1.67-2.56-1.59c-1.23,0.11-6.33,1.2-9.14,1.81c0.99,0.68,1.96,1.34,2.86,1.95
			c1,0.67,1.92,1.3,2.75,1.87c2.05-0.7,4.81-1.68,5.84-2.15C136.51,464.64,136.43,463.85,135.97,463.11z"/>
		<path class="st36" d="M77.2,458.67c0.01-0.12,0.05-0.25,0.06-0.37c-1.13,0.86-2.24,1.99-2.19,3.35c0.06,1.49,1.1,2.12,2.3,2.28
			C77.22,461.46,77.15,459.6,77.2,458.67z"/>
		<path class="st91" d="M66.15,500.52c-0.62-1.77-1.65-11.44-2.07-15.48c-2.29-1.95-2.59-4.04-2.59-4.99
			c-0.14,2.15,0.12,6.01,0.5,10.04c0.58,6.23,1.44,12.76,1.51,13.66c0.13,1.48,7.13,8.12,19.52,8.73c-0.28-1.44-0.52-2.77-0.73-3.98
			C75.05,507.01,66.82,502.43,66.15,500.52z"/>
		<path class="st14" d="M83.43,514.55c-2.78,0.01-6.28-0.25-10.48-1.06c1.56,8.97,5.44,30.45,8.88,42.79
			c4.46,0.94,8.69,1.49,11.21,1.77C90.13,546.14,85.9,527.17,83.43,514.55z"/>
		<path class="st91" d="M72.95,478.27c-0.67-1.93-1.34-9.54-1.6-12.82c-1.02-0.69-1.65-1.47-1.76-2.35c0,0,0.13,2.66,0.33,5.86
			c0.25,4.18,0.6,9.29,0.88,10.56c0.42,1.91,2.78,6.18,8.58,7.19c-0.12-1.09-0.23-2.17-0.34-3.25
			C76.65,482.48,73.61,480.21,72.95,478.27z"/>
		<path class="st92" d="M125.12,467.73L125.12,467.73c5,2.96,9.49,6.38,12.37,9.93c-0.02-3.44-0.91-5.58-4.67-8.43
			c-1.23-0.93-3.26-2.3-5.69-3.94c-5.84-3.96-14.02-9.59-19.36-14.97c-0.57-0.57-1.1-1.14-1.59-1.7c-0.99-1.13-1.83-2.23-2.46-3.3
			c-0.73,1.07-1.37,1.77-1.87,1.91C105.95,454.57,125.12,467.73,125.12,467.73z"/>
		<path class="st53" d="M103.73,458.9c5.93,1.27,14.17,4.57,21.39,8.83l0,0c0,0-19.16-13.16-23.26-20.5
			c-0.04,0.01-0.09,0.05-0.13,0.05c-2.18,0.2-16.24,1.98-17.13,1.68c-0.17-0.06-0.72-0.54-1.48-1.28c-0.85,1.03-2.1,2.64-3.24,4.44
			c-0.77,1.22-1.49,2.51-1.99,3.77c-0.26,0.66-0.43,1.29-0.54,1.91C83.43,457.52,95.94,457.23,103.73,458.9z"/>
		<path class="st87" d="M93.43,457.74c-6.06-0.29-12.31-0.11-16.09,0.06c-0.06,0.29-0.12,0.59-0.14,0.87
			c-0.07,1.37,0.1,4.68,0.42,9.06c0.39,5.28,1.01,12.11,1.76,18.98c0.09,0.87,0.19,1.75,0.29,2.62c0.71,6.33,1.52,12.52,2.32,17.39
			c0.27,1.61,0.62,3.57,1.04,5.75c0.13,0.67,0.26,1.36,0.4,2.08c2.47,12.61,6.7,31.58,9.6,43.5c1.43,5.87,2.54,10.03,2.95,10.86
			c1.45,2.9,19.8,2.77,29.05,2.11c9.24-0.66,8.05-7.66,8.32-18.09c0.03-1.33,0.11-3.34,0.23-5.85c0.08-1.84,0.18-3.96,0.3-6.26
			C102.15,521.37,94.96,473.58,93.43,457.74z"/>
		<path class="st93" d="M114.86,590.03c-0.09-2.36-1.27-12.85-1.93-18.62c-0.79,0-1.58-0.01-2.36-0.03
			c0.89,5.37,3.16,20.11,1.63,21.62c-1.87,1.85-5.18,3.55-6.25,0.53c-0.73-2.07-4.39-18.29-5.51-22.87l0,0
			c-2.39-0.39-4.06-0.96-4.46-1.75c0,0,10.43,42.64,11.88,44.76c1.45,2.11,6.15,2.51,6.18-2.11c0.03-4.62-1.03-17.3-0.9-17.82
			C113.28,593.2,114.99,593.33,114.86,590.03z"/>
		<path class="st37" d="M108.99,608.58c-1.25,1.78-0.77,5.15,4.91,4.18c0.09-0.36,0.15-0.75,0.15-1.21c0.01-0.95-0.04-2.24-0.1-3.69
			C112.55,607.54,109.98,607.17,108.99,608.58z"/>
		<path class="st73" d="M318.82,483.97c-2.37,1.87-8.32,6.32-12.53,7.18c-5.35,1.09-5.35,1.09-5.35,1.09l-162.46,20.22
			c-0.19,1.11-0.53,1.65-0.53,2.11c0,0.74,4.26,25,2.48,28.07c-1.11,1.91-4.48,3.51-6.87,4.45c-0.02,0.44-0.04,0.84-0.05,1.24
			l9.06-0.65c0.22-0.95,0.35-1.47,0.35-1.47s2.38,0,7.33-0.79c4.95-0.79,8.45-7.53,10.03-7.79c1.5-0.25,126.51-16.8,139.16-18.48
			c-1.1-3.43-0.25-8.73,4.28-14.33c3-3.71,9.41-9.5,18.8-17.2C321.37,486.78,320.01,485.57,318.82,483.97z"/>
		<path class="st77" d="M110.64,533.92c-1.19-0.26-4.36-0.13-4.36,1.85c0,1.71,2.83,27.62,3.62,34.83c0.05,0.45,0.42,0.78,0.87,0.79
			c1.32,0.02,2.66,0.02,3.98,0.01c0.52,0,0.92-0.43,0.88-0.95c-0.45-6.05-1.81-23.95-2.36-29.4
			C112.62,534.45,111.83,534.19,110.64,533.92z"/>
		<path class="st63" d="M112.93,571.41c0.66,5.77,1.84,16.26,1.93,18.62c0.13,3.3-1.58,3.17-1.72,3.7
			c-0.13,0.53,0.92,13.2,0.9,17.82c-0.02,3.12-2.17,3.95-4.01,3.51c0.72,4.37,1.66,9.53,2.81,14.25c2.47-0.22,4.88-0.9,6.82-1.75
			c-0.31-16.73-2.81-44.96-3.85-56.17C114.85,571.4,113.89,571.41,112.93,571.41z"/>
		<path class="st94" d="M140.44,542.63c-1.11,1.91-4.48,3.51-6.87,4.45c-0.02,0.44-0.04,0.84-0.05,1.24l9.06-0.65
			c0.22-0.95,0.35-1.47,0.35-1.47s2.38,0,7.33-0.79c3.54-0.57,6.32-4.15,8.21-6.26l-17.74,2.63
			C140.65,542.14,140.56,542.44,140.44,542.63z"/>
		<ellipse class="st12" cx="90.39" cy="427.18" rx="4.76" ry="1.93"/>
		<ellipse class="st95" cx="90.39" cy="427.18" rx="3.42" ry="1.39"/>
		<ellipse class="st12" cx="88.62" cy="416.68" rx="4.65" ry="2.13"/>
		<ellipse class="st95" cx="88.62" cy="416.04" rx="2.48" ry="1"/>
		<path class="st96" d="M101.23,441.64c-2.08,1.39-11.68,3.07-14.25,1.98c-1.99-0.84-11.67-9.67-15.95-13.63
			c-0.05,0.3-0.1,0.61-0.12,0.95c-0.13,2.11-0.34,4.46,0.94,5.35c0.35,0.24,1.4,1.28,2.74,2.66c2.64,2.69,6.43,6.69,8.54,8.73
			c0.76,0.74,1.31,1.23,1.48,1.28c0.89,0.3,14.95-1.49,17.13-1.68c0.51-0.05,1.21-0.81,2-1.97c1.76-2.58,3.94-7.2,5.35-10.77
			c0.69-1.74,1.19-3.23,1.36-4.1c0.01-0.05,0.01-0.09,0.02-0.14C107.28,435.87,102.79,440.59,101.23,441.64z"/>
		<path class="st87" d="M101.23,441.64c-2.08,1.38-11.65,3.06-14.24,1.98c-0.64,1.52-1.5,3.7-1.93,5.37
			c2.58,0,14.66-1.53,16.67-1.71c0.51-0.05,1.21-0.81,2-1.97c0.17-0.25,0.34-0.52,0.51-0.8c-0.17-1.95-0.48-3.62-0.79-4.88
			C102.51,440.59,101.72,441.31,101.23,441.64z"/>
		<path class="st10" d="M99.65,410.61c-17.92-5.48-23.27,6.44-23.27,6.44c10.08-11.2,21.33-4.85,24.52-2.66
			c4.49-47.45-9.57-76.65-12.93-82.81c-0.34-0.63-0.96-1.04-1.65-1.14c3.86,9.82,8.8,24.11,10.99,37.68
			C101.16,392,99.65,410.61,99.65,410.61z"/>
		<path class="st11" d="M76.38,417.04c0,0,5.35-11.92,23.27-6.44c0,0,0.52-6.47,0.16-16.67c-4.54,0.88-12.41,2.91-20.33,7.3
			c-8.53,4.73-19.32,13.08-25,17.64c2.96,0.75,15.4,0.48,16.32,0.58c0.56,0.06,2.29,1.46,3.65,2.62
			c4.54-8.33,10.08-10.37,15.79-10.54c3.88-0.12,7.44,2.07,10.5,4.54c0.06-0.57,0.1-1.13,0.16-1.7
			C97.71,412.19,86.45,405.85,76.38,417.04z"/>
		<path class="st78" d="M76.38,417.04c0,0,2.61-5.8,10.28-7.45c1.59-5.72-2.12-8.08-5.86-9.05c-0.44,0.23-0.87,0.44-1.31,0.68
			c-8.53,4.73-19.32,13.08-25,17.64c2.96,0.75,15.4,0.48,16.32,0.58c0.56,0.06,2.29,1.46,3.65,2.62c3.31-6.08,7.16-8.8,11.22-9.9
			c0.2-0.42,0.37-0.83,0.53-1.22C83.01,411.65,79.63,413.43,76.38,417.04z"/>
		<path class="st77" d="M70.76,352.39c0.54,1.98,5.68-2.77,5.62-5.15c-0.04-1.5-0.06-9.83,0.44-15.58
			c-1.84,0.44-3.53,0.96-5.09,1.53C71.27,338.75,70.35,350.87,70.76,352.39z"/>
		<path class="st46" d="M88.85,397c-20.13-12.97-25.43-42.95-26.82-57.35c-0.91,6.21-7.26,56.81-7.93,64.95
			c-0.69,8.52-2.08,13.27,0,14.16c0.1,0.04,0.24,0.08,0.38,0.11c5.68-4.56,16.47-12.91,25-17.64
			C82.69,399.46,85.87,398.09,88.85,397z"/>
		<path class="st87" d="M367.41,425.34c1.29-0.48,2.58-0.9,3.84-1.22c7.05-1.81,20.29,4.26,25.52,6.87
			c3.48-2.53,7.18-5.22,11.07-8.02c0.83-6.66,3-23.56,4.93-33.99c-12.76-4.56-28.17-7.82-35.71-9.27
			C373.35,395.46,368.9,417.78,367.41,425.34z"/>
		<path class="st97" d="M402.25,344.6c6.16-3.2,21.69-23.21,27.43-30.77c-3.52,0.87-8.93,1.58-14.59-0.12
			c-9.64-2.9-12.71-8.69-12.85-9.92c-1.27,3.57-4.15,11.67-7.45,21.05c-1.35,3.85-2.78,7.91-4.19,11.96
			C392.69,343.78,398.24,346.68,402.25,344.6z"/>
		<path class="st65" d="M432.02,354.24c-3.98,13.35-9.4,31.49-13.47,45.93c9.19,0.34,13.04-1.18,14.25-2.67
			C429.21,385.12,430.83,364.71,432.02,354.24z"/>
		<path d="M395.92,283.52c0.07,0.82,0.35,1.57,1.06,2.03c0.89,0.57,2.37,0.6,3.72,0.57v-5.66
			C398.76,281.36,397.14,282.39,395.92,283.52z"/>
		<path class="st7" d="M402.24,286.08v-6.3c0,0,0.01-11.03,0.01-11.72c0-0.5,2.42-4.08,6.39-6.05c-2.79-1.01-4.51-2.36-4.51-3.86
			c0,0-3.43,2.34-3.43,4.06c0,1.51,0,15.07,0,18.24v5.66v6.46c0,0,0.35,0.5,1.54,1.06V286.08z"/>
		<path class="st7" d="M437.4,258.15c0,1.95-2.91,3.67-7.34,4.68c2.96,1.65,3.65,4.33,3.65,4.33v10.44v17.1
			c4.52-1.08,6.87-5.29,6.87-5.29v-0.98v-8.93v-17.82C439.51,259.57,437.4,258.15,437.4,258.15z"/>
		<path class="st98" d="M408.42,258.72c-0.99-1.72,1.91-3.04,2.18-4.03c0.1-0.36-0.3-0.6-0.84-0.76c-3.45,1.03-5.63,2.54-5.63,4.23
			c0,0.91,0.65,1.76,1.77,2.52C408.31,260.92,409.19,260.04,408.42,258.72z"/>
		<path class="st98" d="M437.4,258.15c0-0.97-0.72-1.87-1.98-2.67c-0.46-0.29-1.02-0.56-1.63-0.82c-0.69,0.35-1.28,0.83-0.91,1.41
			c0.76,1.19,2.41,1.85,0.82,2.97c-1.24,0.88-2.91,2.12-1.36,3.16C435.45,261.18,437.4,259.74,437.4,258.15z"/>
		<path class="st99" d="M430.05,262.84c-2.65,0.61-5.85,0.96-9.29,0.96c-4.79,0-9.09-0.69-12.12-1.79
			c-3.97,1.97-6.39,5.55-6.39,6.05c0,0.69-0.01,11.72-0.01,11.72v6.3v7.56v3.69v6.44c0,0,0,0,0.01,0c0,0.01,0,0.01-0.01,0.02
			c0.14,1.22,3.21,7.01,12.85,9.92c9.64,2.9,18.62-1.19,18.62-1.19v-6.48v-6.54v-4.8v-17.1v-10.44
			C433.7,267.17,433.01,264.49,430.05,262.84z"/>
		<path class="st100" d="M413.93,251.03v8.55c0,0,6.98,1.79,13.66,0v-8.11c-3.77-0.04-7.79-0.12-11.09-0.24
			C415.69,251.19,414.82,251.12,413.93,251.03z"/>
		<path class="st33" d="M413.93,258.62v0.95c0,0,6.98,1.79,13.66,0v-0.94C421.8,259.97,415.97,259.04,413.93,258.62z"/>
		<path class="st101" d="M430.05,262.84c-2.65,0.61-5.85,0.96-9.29,0.96c-4.79,0-9.09-0.69-12.12-1.79
			c-3.97,1.97-6.39,5.55-6.39,6.05c0,0,2.77,6.57,15.72,6.96c12.96,0.4,15.73-7.86,15.73-7.86S433.01,264.49,430.05,262.84z"/>
		<path class="st98" d="M412.74,278.26c-0.02,3.37-0.2,15.13,0,17.12s2.48,1.83,3.96,1.36c1.49-0.46,0.79-10.07,0.79-14.33
			c0-4.26,0-5.34-1.09-5.99C415.32,275.78,412.76,275.68,412.74,278.26z"/>
		<path class="st102" d="M427.64,273.23c0.82,1.12,1.81,2.55,2.04,3.2c0.31,0.89,0.37,26.36,0.38,37.3
			c2.26-0.59,3.65-1.22,3.65-1.22v-6.48v-6.54v-4.8v-17.1v-10.44C433.7,267.17,432.43,270.91,427.64,273.23z"/>
		<path class="st72" d="M411.95,301.29c0.8-1.97,0.75-20.62,0.71-26.87c-8.42-1.7-10.42-6.37-10.42-6.37
			c0,0.69-0.01,11.72-0.01,11.72v6.3v7.56v3.69v6.44c0,0,0,0,0.01,0c0,0.01,0,0.01-0.01,0.02c0.05,0.44,0.49,1.48,1.47,2.75
			C407.85,306.08,411.32,302.86,411.95,301.29z"/>
		<path class="st32" d="M451.13,325.2c0-0.91,0-30.24,0-30.24c0,4.97-7.18,9.23-17.43,11.08v6.48l2.24-0.26
			c0,0-2.24,16.5-1.72,18.48c0.49,1.85,3.38,1.89,3.21,4.59c2.76-0.57,5.11-1.95,5.11-1.95
			C447.43,330.74,451.13,326.11,451.13,325.2z"/>
		<path d="M449.32,285.62c-0.73-1.24-1.91-2.4-3.46-3.45c-1.39,1.47-3.06,3.7-3.14,6.02C445.31,287.81,448.36,287.07,449.32,285.62z
			"/>
		<ellipse class="st36" cx="420.2" cy="231.37" rx="2.33" ry="1.14"/>
		<ellipse class="st12" cx="404.43" cy="229.76" rx="3.56" ry="1.88"/>
		<path class="st33" d="M404.43,231.64c-1.97,0-3.56-0.84-3.56-1.88v1.62c0,1.04,1.59,1.88,3.56,1.88c1.97,0,3.56-0.84,3.56-1.88
			v-1.62C407.99,230.8,406.4,231.64,404.43,231.64z"/>
		<ellipse class="st36" cx="404.43" cy="229.76" rx="1.56" ry="0.83"/>
		<ellipse class="st12" cx="436.67" cy="230.83" rx="3.56" ry="1.88"/>
		<path class="st33" d="M436.67,232.71c-1.97,0-3.56-0.84-3.56-1.88v1.62c0,1.04,1.59,1.88,3.56,1.88c1.97,0,3.56-0.84,3.56-1.88
			v-1.62C440.23,231.87,438.64,232.71,436.67,232.71z"/>
		<ellipse class="st36" cx="436.67" cy="230.83" rx="1.56" ry="0.83"/>
		<path class="st103" d="M441.76,235.02c-1.91,0.46-19.41,1.91-21.98,1.85c-2.57-0.07-12.61-1.58-17.53-2.53
			c-2.75-0.53-5.12-2.15-6.67-3.48c-0.22,0.72-0.32,1.6-0.35,2.45c-0.03,1.19,0.05,2.28,0.05,2.64c0,0.69,1.15,1.77,5.57,2.74
			c0.67,0.15,1.42,0.29,2.25,0.43c0.4,0.07,0.8,0.13,1.21,0.2c2.45,0.38,5.12,0.72,7.63,0.99c3.78,0.41,7.18,0.66,8.81,0.66
			c1.01,0,3.69-0.24,6.83-0.58c0.6-0.06,1.2-0.13,1.83-0.2c1.87-0.21,3.81-0.44,5.61-0.67c3.51-0.44,6.48-0.86,7.25-1.07
			c1.68-0.45,2.31-1.85,2.46-3.74c0.02-0.3,0.04-0.61,0.04-0.94C443.76,234.29,442.61,234.81,441.76,235.02z"/>
		<path class="st104" d="M441.76,235.02c-1.91,0.46-19.41,1.91-21.98,1.85c-0.71-0.02-2.01-0.15-3.61-0.35
			c-0.15,1.22-0.51,2.9-1.37,4.07c2.58,0.24,4.76,0.38,5.97,0.38c1.01,0,3.69-0.24,6.83-0.58c0.6-0.06,1.2-0.13,1.83-0.2
			c1.87-0.21,3.81-0.44,5.61-0.67c3.51-0.44,6.48-0.86,7.25-1.07c1.68-0.45,2.31-1.85,2.46-3.74c0.02-0.3,0.04-0.61,0.04-0.94
			C443.76,234.29,442.61,234.81,441.76,235.02z"/>
		<path class="st33" d="M446.82,240.11c1.34-1.86,0.04-3.98-1.32-5.56c-0.25,0.05-0.52,0.11-0.75,0.15c-0.16,1.9-0.79,3.3-2.46,3.74
			c-0.77,0.2-3.74,0.63-7.25,1.07c0.11,3.88,1.52,5.22,1.27,5.5c0,0,0.02,0.01,0.06,0.02C440.3,244.79,444.55,243.25,446.82,240.11z
			"/>
		<path d="M400.86,238.68c-4.42-0.97-5.57-2.05-5.57-2.74c0-0.19-0.02-0.6-0.04-1.12c-0.62,1.4-1.45,3.32-1.51,3.86
			c-0.1,0.86-20.2-5.77-22.68-5.97c-2.48-0.2-57.03,2.22-57.04,2.22c23.5-0.32,50.79-0.74,52.98-0.94c3.27-0.3,7.43,1.88,12.48,3.76
			c3.08,1.15,10.44,2.88,15.74,4.06c1.32,0.29,2.5,0.55,3.46,0.76c0.73-0.5,1.76-0.63,2.01-1.43
			C400.87,240.59,400.89,239.6,400.86,238.68z"/>
		<path class="st105" d="M371.95,230.86c3.6,0.36,18.73,3.72,23.32,4.75c-0.02-0.5-0.07-1.37-0.04-2.3
			c-4.77-0.86-18.97-3.42-21.6-3.66c-3.17-0.29-60.2,0.1-83.37,0.1c-23.17,0-58.22-0.59-58.62,1.19c-0.05,0.21-0.04,0.44-0.01,0.66
			C253.16,231.41,368.09,230.47,371.95,230.86z"/>
		<path class="st14" d="M445.32,245.84c-0.95,0.17-1.93,0.22-2.88,0.19c-7.39,3.55-20.85,3.37-26.03,3.02
			c-4.42-0.3-15.89-3.57-21.19-5.14c0,0.92,0,1.75,0,2.07c0,0.73,8.61,3.56,16.31,4.74c1.75,0.27,3.45,0.45,4.98,0.51
			c4.21,0.15,9.62,0.25,14.16,0.26c4.42,0.01,8.03-0.06,8.91-0.26c1.56-0.35,4.71-1.53,8.13-5.54
			C446.94,245.65,446.15,245.68,445.32,245.84z"/>
		<path class="st47" d="M447.71,245.68c-0.77-0.03-1.56,0-2.39,0.15c-0.95,0.17-1.93,0.22-2.88,0.19
			c-4.04,1.94-9.89,2.76-15.22,3.06c2.84,0.61,7.39,1.37,13.69,1.73C442.62,250.17,445.08,248.77,447.71,245.68z"/>
		<path class="st97" d="M473.14,258.95c-3.47,0.1-6.54-3.47-11.49-7.46c-4.95-4-9.9-7.59-12.97-7.58c-1.94,0-7.64,0.77-11.58,1.34
			c1.55,0.41,5.07,1.16,8.21,0.59c0.83-0.15,1.62-0.18,2.39-0.15c3.08,0.14,5.91,1.76,10.18,5.24c5.35,4.36,11.98,10.1,14.75,10
			c2.77-0.1,36.24-3.47,63.37-5.45c27.13-1.98,71.43-2.11,73.01-2.38c0.57-0.1,1.26-0.66,1.85-1.67
			c-5.53,0.07-39.75,0.56-57.44,1.41C534.17,253.76,476.61,258.85,473.14,258.95z"/>
		<path class="st106" d="M571.27,243.57c0.81,0.46,27.24,2.22,40.87,3.09c0.07-1.15-0.01-2.49-0.2-3.95
			c-7.51-0.46-38.85-2.39-40.07-2.48C570.48,240.13,570.18,242.94,571.27,243.57z"/>
		<path class="st18" d="M398.45,507.36c-0.34-0.24-0.7-0.48-1.05-0.72L385.3,518.7c0.24,0.19,0.51,0.38,0.74,0.57
			c5.55,4.53,11.03,11.26,15.54,18.75l14.22-10.5C411.76,520.01,406.18,512.79,398.45,507.36z"/>
		<path class="st72" d="M615.83,354.83c-27.95,26.49-123.56,117.36-133.07,129.7l23.95-19.92c0,0,20.77,6.13,25.74,9.1
			c20.07-20.09,70.6-70.75,90.65-91.44C622.11,372.24,619.96,362.62,615.83,354.83z"/>
		<path class="st14" d="M479.84,421.69c-21.88-10.66-42.45-12.97-51.41-13.47c-0.59,0.42-1.18,0.84-1.76,1.25
			c7.66,0.28,29.36,2.11,52.58,13.42c24.39,11.88,32.17,29.95,36.92,44.65c0.52,0.17,1.04,0.34,1.57,0.51
			C512.95,452.96,505.25,434.06,479.84,421.69z"/>
		<g>
			<path class="st19" d="M406.14,475.97c-7.33,0-14.7-1.76-21.46-5.33l-6.31-3.34c-2.36-1.25-3.91-3.58-4.14-6.24
				c-0.23-2.66,0.89-5.23,3-6.86l61.68-47.93c12.27-9.53,28.83-11.81,43.22-5.94l3.92,1.6c3.95,1.61,6.67,5.09,7.29,9.31
				c0.62,4.22-1,8.33-4.31,11l-54.09,43.57C426.6,472.52,416.41,475.97,406.14,475.97z M465.7,398.45c-9.26,0-18.45,3.03-25.97,8.87
				l-61.68,47.93c-1.75,1.36-2.68,3.49-2.48,5.69c0.19,2.21,1.48,4.14,3.43,5.18l6.31,3.34c15.76,8.33,34.91,6.49,48.79-4.69
				l54.09-43.57c2.95-2.37,4.38-6.02,3.83-9.77c-0.55-3.74-2.97-6.83-6.47-8.26l-3.92-1.6C476.5,399.47,471.08,398.45,465.7,398.45z
				"/>
		</g>
		<path class="st42" d="M621.78,432.01l-69,66.78c0.97-0.3,1.94-0.62,2.91-0.95l65.92-63.8
			C621.66,433.38,621.72,432.72,621.78,432.01z"/>
		<path class="st107" d="M545.46,527.39c-0.03,1.19-1.91,1.68-1.91,4.9c0,3.22,0,32.33,0,32.33l2.67,0.74c0-10.46,0-29.98,0-32.7
			c0-3.74,2.19-3.69,2.19-5.27c0-1.58,0-34.62,0-34.62l0,0c-0.78,1.38-1.92,3.11-3.35,5.02
			C545.17,505.46,545.48,526.42,545.46,527.39z"/>
		<path class="st108" d="M786.45,410.89c-13.03,4.99-19.82-3.52-19.82-3.52c-1.78,2.48-120.9,39.61-126.64,41.79
			c-4.86,1.84-48.5,30.72-66.18,40.97c0,0-13.53,6.97-25.41,9.88c0,9.82,0,26.26,0,27.37c0,1.58-2.19,1.53-2.19,5.27
			c0,2.72,0,22.31,0,32.76c-0.39,0.58-0.8,1.17-1.21,1.77c2.04-2.98,4.02-5.89,4.68-6.86c1.52-2.24,4.29-3.83,13.4-6.87
			c9.11-3.04,16.77-5.02,32.87-16.11s59.28-38.42,64.69-41.98c5.41-3.56,30.5-11.75,56.24-20.46c25.75-8.71,59.15-21.52,60.47-22.05
			c0.11-0.04,0.22-0.07,0.33-0.09c1.21-0.29,2.48,0.36,5.09-0.3c2.84-0.73,7.26-3.1,7.99-3.17c0.73-0.07,1.12,0.92,0.59,1.52
			c-0.53,0.59-1.19,2.05,0.66,2.11c1.66,0.06,9.13-2.22,10.71-5.88c-0.62-0.16-1.11-0.34-1.44-0.56c-2.77-1.88-1.09-10,0-21.59
			c0.7-7.44,0.91-12.54,1.6-15.45C794.58,414.01,786.45,410.89,786.45,410.89z"/>
		<path class="st59" d="M814.96,373.31c0,0-9.9,6.14-20.5,6.44c-4.93,0.14-9.47,0.18-13.41-0.84c-0.44,3.96-1.76,16.5-1.34,21.23
			c0.32,3.64,1.39,8.14,6.75,10.75c0,0,8.12,3.12,16.44-1.44c0.38-1.63,0.91-2.58,1.77-2.86c1.9-0.63,4.42-2.49,6.17-5.78
			c0.44-0.82,0.84-1.71,1.16-2.72c1.27-4.04,2.98-18.83,3.61-24.6C815.19,373.38,814.96,373.31,814.96,373.31z"/>
		<path class="st31" d="M814.96,373.31c0,0-7.28,4.5-16.03,5.98c-0.51,5.57-2.2,23.67-3.6,32.52c2.34-0.25,4.94-0.92,7.57-2.36
			c0.38-1.63,0.91-2.58,1.77-2.86c1.9-0.63,4.42-2.49,6.17-5.78c0.44-0.82,0.84-1.71,1.16-2.72c1.27-4.04,2.98-18.83,3.61-24.6
			C815.19,373.38,814.96,373.31,814.96,373.31z"/>
		<path class="st103" d="M636.07,474.41c6.2-4.09,10.82-7.14,12.61-8.3c9.17-5.97,18.14-10.48,25.95-13.04
			c7.1-2.33,92.8-32.05,119.02-41.15c-4.21,0.12-7.2-1.03-7.2-1.03c-13.03,4.99-19.82-3.52-19.82-3.52
			c-1.78,2.48-120.9,39.61-126.64,41.79c-4.86,1.84-48.5,30.72-66.18,40.97c0,0-13.53,6.97-25.41,9.88c0,9.29,0,24.5,0,27.04
			c5.11-2.18,15.75-6.7,18.7-7.91C570.12,517.9,614.66,488.53,636.07,474.41z"/>
		<path class="st104" d="M573.81,490.13c0,0-5.19,2.67-11.97,5.4c-1.44,6.22-2.92,16.99,1.26,25.28c1.74-0.73,3.18-1.34,4-1.68
			c0.81-0.33,4.59-2.68,10.09-6.2c3.96-11.72,12.67-26.87,18.42-36.23C587.15,482.06,579.25,486.98,573.81,490.13z"/>
		<path class="st109" d="M793.66,411.92c-4.21,0.12-7.2-1.03-7.2-1.03c-13.03,4.99-19.82-3.52-19.82-3.52
			c-1.78,2.48-120.9,39.61-126.64,41.79c-0.18,0.07-0.43,0.19-0.72,0.33c5.91,2.08,14.63,5.51,21.21,9.7
			c4.97-2.6,9.75-4.68,14.16-6.12C681.73,450.74,767.44,421.01,793.66,411.92z"/>
		<path class="st110" d="M786.45,410.89c-13.03,4.99-19.82-3.52-19.82-3.52l3.68,12.64c9.57-3.32,17.8-6.17,23.35-8.1
			C789.45,412.03,786.45,410.89,786.45,410.89z"/>
		<path class="st99" d="M637.05,475.9c6.19-4.09,10.82-7.13,12.61-8.3c9.04-5.88,17.87-10.32,25.54-12.84
			c8.36-2.74,125.44-43.38,126.63-43.79l0.6-0.21v-1.08c-3.11,1.6-6.16,2.16-8.76,2.23c-26.22,9.1-111.93,38.82-119.02,41.15
			c-7.81,2.56-16.79,7.07-25.95,13.04c-1.79,1.17-6.42,4.22-12.61,8.3c-21.41,14.12-65.95,43.49-68.96,44.73
			c-2.95,1.21-13.59,5.74-18.7,7.91c0,0.14,0,0.27,0,0.33c0,0.92-0.74,1.3-1.36,2.19c3.31-1.41,17.29-7.36,20.73-8.78
			C570.96,519.48,613.95,491.13,637.05,475.9z"/>
		<path class="st26" d="M800.49,432.42c0.05-0.48,0.11-0.97,0.16-1.47c-4.51,1.58-16.58,5.84-17.63,6.45
			c-1.08,0.63-8.9,12.3-12.79,18.19c0.77-0.29,1.49-0.57,2.15-0.82c4.67-7.02,10.51-15.59,11.32-16.22
			C784.46,438.11,793.48,434.88,800.49,432.42z"/>
		<path class="st22" d="M556.35,525.62c-3.98,1.69-7.78,3.31-9.3,3.96c0.33-0.48,0.69-0.81,0.96-1.16c-0.63,0.8-1.79,1.51-1.79,4.24
			c0,2.72,0,22.31,0,32.76c-0.39,0.58-0.8,1.17-1.21,1.77c2.04-2.98,4.02-5.89,4.68-6.86c1.04-1.54,2.68-2.78,6.57-4.38
			C556.34,547.45,556.45,532.68,556.35,525.62z"/>
		<path class="st111" d="M840.11,365.89c-0.38-0.97-1.62-1.67-2.69-2.11c0,0,0,0,0,0c-0.76,5.03-10.55,7.73-21.87,6.02
			c-0.45-0.07-0.9-0.15-1.34-0.23c0.65,1.81,0.75,3.74,0.75,3.74s0.24,0.07,0.64,0.16c2.03,0.47,8.72,1.74,15.5-0.16
			c6.3-1.77,8.66-4.19,9.08-6.02C840.14,366.47,840.11,365.89,840.11,365.89z"/>
		<path class="st5" d="M814.21,369.57c-1.34-0.24-2.63-0.53-3.86-0.87c-2.55,1.65-8.62,5.24-13.96,6c-6.36,0.9-17.27-1.8-22.31-6.64
			c-1.06,1.29-1.98,2.75-2.43,4.24c2.46,3.73,5.66,5.66,9.4,6.62c3.94,1.01,8.48,0.97,13.41,0.84c10.6-0.3,20.5-6.44,20.5-6.44
			S814.85,371.38,814.21,369.57z"/>
		<path class="st66" d="M814.21,369.57c-1.34-0.24-2.63-0.53-3.86-0.87c-2.55,1.65-8.62,5.24-13.96,6
			c-2.98,0.42-6.96,0.04-10.87-0.97c-0.07,1.5-0.1,3.7,0.11,5.88c2.76,0.24,5.7,0.22,8.83,0.13c10.6-0.3,20.5-6.44,20.5-6.44
			S814.85,371.38,814.21,369.57z"/>
		<path d="M777.87,370.64c-0.94,0.15-2.98,3.8-3.4,4.92c-0.42,1.12-1.8,16.27-1.7,17.06c0.1,0.79,1.78,1.68,2.52,1.68
			c0.75,0,1.83-15.53,2.18-16.73c0.35-1.2,3.22-4.27,3.62-4.86C781.49,372.13,778.86,370.48,777.87,370.64z"/>
		<path d="M805.61,377.58c0,0-1.45,14.88-1.65,16.13c-0.2,1.25-2.64,2.38-3.17,2.05c-0.53-0.33,1.45-16.45,1.45-17.17
			s-3.3-4.88-3.17-5.27c0.13-0.4,1.58-2.05,2.64-1.32S805.67,377.04,805.61,377.58z"/>
		<path class="st3" d="M830.8,405.4c7.53-1.98,13.16-12.12,13.16-12.12c-8.72,7.38-22.41,8.17-22.41,8.17
			c-3.29,0.43-7.24,0.19-10.72-0.64c-1.75,3.3-4.27,5.15-6.17,5.78c-0.19,0.06-0.36,0.17-0.52,0.3
			C811.08,407.72,824.55,407.04,830.8,405.4z"/>
		<path class="st40" d="M832.09,410.94c-11.49,2.97-26.93-0.99-26.93-0.99s6.33,0.21,13.59-0.14c-2.73-0.81-5.17-1.81-6.85-2.57
			c-2.93,0.01-5.65-0.1-7.76-0.35c-1.84,1.49-1.84,7.36-2.84,18.01c-1.09,11.59-2.77,19.7,0,21.59c0.32,0.22,0.82,0.4,1.44,0.56
			c4.7,1.19,17.08,0.67,23.91-0.56c1.43-0.26,2.92-0.7,4.4-1.26c6.57-2.48,13.09-7.31,13.82-8.84c0.89-1.88,6.32-35.65,6.32-35.65
			C849.65,403.76,842.51,408.25,832.09,410.94z"/>
		<path class="st112" d="M833.24,410.62c-0.65,5.88-3.12,26.77-6.46,35.83c1.38-0.26,2.82-0.68,4.26-1.23
			c6.57-2.48,13.09-7.31,13.82-8.84c0.89-1.88,6.32-35.65,6.32-35.65C849.71,403.65,843.03,407.91,833.24,410.62z"/>
		<path class="st18" d="M831.3,393.7c0.56-3.56,0.99-6.83,0.99-6.83c0.2-1.68,1.58-2.57,3.07-4.41c1.49-1.84,3.69-6.18,3.69-6.18
			s-0.72,4.51-1.59,5.64c-0.68,0.88,3.79-0.57,6.59-2.97c0.62-2.04,0.53-4.63-0.28-5.97c-0.81-1.35-2.51-2.19-3.53-2.6
			c0,0.9-0.04,1.71-0.13,2.14c-0.3,1.39-5.64,8.52-8.12,11.59c-2.48,3.07-1.65,9.72-3.65,13.97c-0.86,1.84-3.5,2.93-6.79,3.36
			c0,0,3.1-0.19,7.28-1.16C829.7,398.82,830.86,396.5,831.3,393.7z"/>
		<path class="st81" d="M837.46,381.93c0.87-1.14,1.59-5.64,1.59-5.64s-2.21,4.35-3.69,6.18c-1.49,1.84-2.87,2.73-3.07,4.41
			l1.12-1.8l-1.12,1.8c0,0,3.17-2.07,5.54-3.07c1.68-0.7,3.94-1.51,5.88-2.83v-1.11c0.13-0.29,0.25-0.59,0.34-0.92
			C841.25,381.36,836.79,382.81,837.46,381.93z"/>
		<path class="st24" d="M811.7,353.31c-0.47,1.5-1.2,3.98-1.2,4.81c0,1.06,6.31,2.98,9.71,3.16c0.77,0.04,1.46-0.45,1.67-1.2
			l1.03-3.53c-2.18-0.51-4.34-1.07-6.42-1.65C814.88,354.45,813.27,353.93,811.7,353.31z"/>
		<path d="M799.97,355.79c0.17,1.42,2.74,0.4,4.13-0.5c1.01-0.65,3.6-1.98,5.66-2.8c-0.58-0.26-1.15-0.55-1.71-0.84
			C805.67,352.49,799.84,354.66,799.97,355.79z"/>
		<path d="M803.9,361.83c-1.3-0.99-4.69-3.1-4.55-1.85c0.13,1.25,3.23,4.22,9.24,5.91C814.59,367.57,805.12,362.76,803.9,361.83z"/>
		<path d="M828.73,364.95c1.42-0.81,5.06-2.45,4.76-1.23c-0.3,1.23-3.77,3.76-9.94,4.63S827.39,365.71,828.73,364.95z"/>
		<path class="st89" d="M838.52,354.6c-5.3,1.32-13.97-0.4-18.63-1.79c-5.66-1.68-14.44-5.54-17.54-9.01
			c-2.03-2.26-3.42-5.32-4.15-7.17c-0.73-0.42-1.49-0.85-2.25-1.3c0,1.72,0,4.07,0,4.61c0,0.78,1.19,1.92,1.63,2.48
			c2.39,3.03,4.99,5.97,8.29,8.04c0.49,0.31,1,0.57,1.5,0.84c2.87,1.58,5.98,2.72,9.13,3.6c4.84,1.36,10.06,2.68,15.07,3.14
			c0.99,0.09,2,0.1,3,0.02c2.73-0.21,5.34-1.14,7.28-3.12C840.67,354.84,839.53,354.72,838.52,354.6z"/>
		<path class="st113" d="M822.18,350.84c0.99,1.89,5.89,3.08,11.81,2.65c-2.66-1.17-5.58-3.2-6.59-4.6c0,0-0.24,0.04-0.1-2.94
			c-1.54-0.44-3.39-1.01-5.35-1.64C821.71,346.24,821.45,349.43,822.18,350.84z"/>
		<path class="st113" d="M810.15,342.22c-0.54-0.78-0.08-1.44,0.51-1.91c-1.21-0.47-2.32-0.92-3.27-1.32
			c-1.25,0.33-2.82,0.53-4.32,0.07c-1.45-0.45-4.26-2.04-7.13-3.72c0,0.66,0,1.42,0,2.13C800.7,340.27,811.13,343.65,810.15,342.22z
			"/>
		<ellipse class="st12" cx="807.96" cy="322.22" rx="4.1" ry="2.17"/>
		<path class="st3" d="M807.96,324.38c-2.27,0-4.1-0.97-4.1-2.17v1.87c0,1.2,1.84,2.17,4.1,2.17c2.27,0,4.1-0.97,4.1-2.17v-1.87
			C812.06,323.41,810.22,324.38,807.96,324.38z"/>
		<ellipse class="st93" cx="807.96" cy="322.22" rx="1.8" ry="0.95"/>
		<ellipse class="st12" cx="833.71" cy="336.37" rx="4.1" ry="2.17"/>
		<path class="st3" d="M833.71,338.54c-2.27,0-4.1-0.97-4.1-2.17v1.87c0,1.2,1.84,2.17,4.1,2.17c2.27,0,4.1-0.97,4.1-2.17v-1.87
			C837.81,337.57,835.97,338.54,833.71,338.54z"/>
		<ellipse class="st93" cx="833.71" cy="336.37" rx="1.8" ry="0.95"/>
		
			<ellipse transform="matrix(0.2152 -0.9766 0.9766 0.2152 321.6555 1060.5969)" class="st93" cx="820.7" cy="330.17" rx="1.35" ry="2.67"/>
		<path class="st15" d="M830.96,343.54c-1.58-0.4-21.39-7-23.01-8.12c-1.27-0.89-7.66-9.43-10.36-13.07
			c-1.02,1.05-1.73,2.16-1.66,2.84c0.17,1.45,6.11,10.3,8.22,12.15c0.42,0.37,1.59,0.95,3.23,1.65c5.01,2.14,14.37,5.39,19.91,6.96
			c1.81,0.51,3.22,0.85,3.92,0.9c3.18,0.24,9.23-1.73,11-2.44c0.22-0.09,0.38-0.16,0.45-0.2c0.59-0.34,1.25-2.8,1.14-4.17
			C839.45,341.48,832.07,343.82,830.96,343.54z"/>
		<path class="st59" d="M843.82,340.03c-3.76,1.24-9.74,3.14-12.04,3.48c-0.09,1.02-0.24,2.26-0.49,3.33
			c3.2,0.21,9.18-1.73,10.94-2.44c0.22-0.09,0.38-0.16,0.45-0.2C843.27,343.86,843.94,341.4,843.82,340.03z"/>
		<path class="st71" d="M842.19,346.28c0.04-0.25,0.05-1.05,0.04-1.88c-1.77,0.71-7.82,2.68-11,2.44c-0.71-0.05-2.11-0.39-3.92-0.9
			c-0.14,2.99,0.1,2.94,0.1,2.94c0.12,0.16,0.29,0.34,0.46,0.52c1.89-0.02,4.99-0.05,7.81-0.11c3.12-0.07,5.88-0.18,6.18-0.35
			C842.56,348.53,842.19,346.28,842.19,346.28z"/>
		<path class="st19" d="M972.1,430.41c-3.17-0.92-41.39-23.83-63.3-37.79c-21.91-13.96-54.13-35.02-57.61-37.6
			c-3.48-2.57-6.42-2.38-9.66-2.38c-2.13,0-4.49-1.99-5.86-3.36c-2.82,0.06-5.92,0.1-7.81,0.11c1.78,1.91,6.13,4.54,8.85,4.96
			c1.2,0.19,3.16,0.39,5.14,0.58c2.92,0.28,5.86,0.52,6.41,0.6c0.92,0.13,16.63,12.28,33.53,22.84
			c16.9,10.56,70.9,43.57,80.67,49.25c9.77,5.68,11.62,4.88,11.62,4.88c8.83-0.6,15.42-1.1,16.17-2.91
			C985.33,430.12,974.53,431.12,972.1,430.41z"/>
		<path class="st106" d="M951.5,407.77c-5.05-3.47-6.34-2.77-5.94-1.49c0.4,1.29,33.77,22.68,34.16,23.17
			c0.24,0.3,0.41,1.62,0.5,2.61c1.27-0.11,2.45-0.22,3.52-0.35c-0.08-0.49-0.15-0.99-0.23-1.48
			C983.15,427.95,956.55,411.24,951.5,407.77z"/>
		<path class="st26" d="M804.16,337.34c-0.88-0.77-2.42-2.75-3.94-4.91c-0.93,0.56-2.56,1.1-4.78-0.01
			c-3.56-1.78-6.93-5.05-14.26-4.55c-6.84,0.46-20.5,2.31-25.99,2.55c-0.67,0.03-1.3-0.2-1.8-0.64
			c-4.81-4.22-31.25-27.38-40.24-34.39c-9.9-7.72-32.97-26.44-32.97-26.73c0-0.27,3.95-5.42,12.53-8.98c-0.37,0-0.74,0.01-1.05,0.07
			c-6.34,1.19-14.46,7.92-14.26,9.31c0.2,1.39,9.21,7.13,26.34,21.19c17.13,14.06,40.2,34.76,44.95,38.52
			c4.75,3.76,7.33,3.56,13.47,2.77c6.14-0.79,23.07-1.68,25.55-0.79c1.34,0.48,4.82,2.6,8.22,4.59c2.87,1.68,5.68,3.27,7.13,3.72
			c1.49,0.47,3.06,0.27,4.32-0.07C805.76,338.29,804.58,337.7,804.16,337.34z"/>
		<path class="st40" d="M789.11,326.26c-4.55-0.72-6.83-11.07-14.16-9.09c-4.83,1.31-11.33,8.28-15.2,12.89
			c6.52-0.62,16.07-1.83,21.44-2.2c7.33-0.5,10.69,2.77,14.26,4.55c1.05,0.52,1.96,0.67,2.73,0.63
			C796.27,328.63,793.03,326.87,789.11,326.26z"/>
		<path class="st4" d="M774.95,317.17c7.33-1.98,9.61,8.37,14.16,9.09c3.92,0.61,7.16,2.37,9.07,6.79c0.87-0.04,1.56-0.33,2.05-0.63
			c-2.12-3.02-4.19-6.39-4.28-7.23c-0.16-1.45,3.2-4.88,5.71-5.41c0.67-0.14,2.44,0.02,4.77,0.37c-2.35-3.56-8.73-13.01-12-15.86
			c-4.87,2.47-14.82,7.86-20.91,13.42C774.01,317.49,774.49,317.29,774.95,317.17z"/>
		<path class="st10" d="M779.89,312.77c5.3-3.62,11.15-6.76,14.54-8.48c1.63,1.42,4.03,4.47,6.31,7.62
			c-2.68-3.69-5.51-7.25-7.08-8.21c-3.56-2.18-42.78-21.69-58.52-28.12c-14.98-6.13-35.05-16-42.42-15.91
			c-2.3,0.95-4.26,2.02-5.91,3.08C704.89,271.39,756,296.31,779.89,312.77z"/>
		<path class="st77" d="M713.07,273.44c-0.65-0.49-18.41-9.44-24.76-12.64c-1.49,0.62-2.97,1.42-4.35,2.29
			c7.77,4.58,24.22,14.17,25.88,14.12C712.01,277.13,713.86,274.03,713.07,273.44z"/>
		<path class="st42" d="M546.26,484.92l77.07-72.58c0.05-0.86,0.1-1.71,0.14-2.58l-78.49,73.92
			C545.43,484.1,545.86,484.51,546.26,484.92z"/>
		<path class="st114" d="M372.27,659.53c-0.24-4.77-3.23-10.67-8.39-15.63c-2.38-2.29-4.95-4.1-7.5-5.4
			C357.89,645.07,361.95,656.45,372.27,659.53z"/>
		<path class="st25" d="M86.97,452.54c3.22,1.5,10.7,3.84,16.92-2.49c-0.85-1-1.55-1.95-2.03-2.82c-0.04,0.01-0.09,0.05-0.13,0.05
			c-2.18,0.2-16.24,1.98-17.13,1.68c-0.17-0.06-0.72-0.54-1.48-1.28c-0.21,0.25-0.44,0.54-0.69,0.86
			C83.91,450.32,85.51,451.86,86.97,452.54z"/>
		<path class="st90" d="M92.89,417.52c-0.16,0.17-0.38,0.32-0.63,0.47c0.08-0.05,0.14-0.11,0.21-0.16
			c-0.83,0.58-2.22,0.98-3.85,0.98c-1.91,0-3.56-0.53-4.27-1.29c-0.24-0.26-0.38-0.54-0.38-0.84v1.81c0,1.35,2.08,2.45,4.65,2.45
			c2.57,0,4.65-1.1,4.65-2.45c0,0,0,0,0,0v-1.81C93.27,416.98,93.13,417.26,92.89,417.52z"/>
		<ellipse class="st12" cx="91.94" cy="436.15" rx="4.65" ry="2.13"/>
		<ellipse class="st95" cx="91.94" cy="435.51" rx="2.48" ry="1"/>
		<path class="st90" d="M96.21,436.99c-0.16,0.17-0.38,0.32-0.63,0.47c0.08-0.05,0.14-0.11,0.21-0.16
			c-0.83,0.58-2.22,0.98-3.85,0.98c-1.91,0-3.56-0.53-4.27-1.29c-0.24-0.26-0.38-0.54-0.38-0.84v1.81c0,1.35,2.08,2.45,4.65,2.45
			c2.57,0,4.65-1.1,4.65-2.45c0,0,0,0,0,0v-1.81C96.59,436.45,96.45,436.73,96.21,436.99z"/>
		<path class="st30" d="M435.95,330.34c-0.46-1.09,1.16-12.77,1.54-15.59c0.38-2.82-1.15-3.62-1.15-4.21c0-0.34,0-2.92,0-5.05
			c-0.86,0.2-1.73,0.39-2.64,0.55v6.48l2.24-0.26c0,0-2.24,16.5-1.72,18.48c0.49,1.85,3.38,1.89,3.21,4.59
			c0.03-0.01,0.05-0.01,0.08-0.02C438.15,332.19,436.38,331.37,435.95,330.34z"/>
		<path class="st115" d="M826.9,452.32c-1.06,0-6.34,5.94-6.73,7.13c-0.4,1.19-0.92,12.82-3.56,22.38
			c-2.64,9.57-5.41,16.3-5.02,17.36c0.23,0.62,2.61,1.54,5.24,2.05c0.2-0.58,0.4-1.15,0.61-1.77c3.86-11.58,10.14-32.4,12.44-42.58
			C829.33,455.65,827.76,452.32,826.9,452.32z"/>
		<path class="st33" d="M797.59,511.07c-1.49-2.65-8.17-43.98-10.74-60.13c-1.38,0.6-2.87,1.21-4.08,1.52
			c-2.61,0.67-3.88,0.01-5.09,0.3c0.02,0.01,3.5,1.94,3.7,2.47c0.2,0.53,6.34,38.68,9.31,48.98c2.97,10.3,4.88,11.09,12.34,11.09
			c4.49,0,7.14-0.81,9.53-4.43C807.6,512.32,799.14,513.83,797.59,511.07z"/>
		<path class="st97" d="M811.98,398.08c-0.32,1.01-0.72,1.9-1.16,2.72c4.36,1.04,9.44,1.15,13.06,0.19
			c-0.86-11.59-5.01-20.3-8.49-25.75C814.66,381.82,813.14,394.39,811.98,398.08z"/>
		<path class="st116" d="M822.91,356.56l-1.03,3.53c-0.17,0.58-0.63,1-1.19,1.14l0,0c0,0,1.96,0.31,4.29-1.28
			c0.32-0.22,0.56-0.56,0.67-0.94l0.55-1.76C825.1,357.04,824,356.81,822.91,356.56C822.91,356.56,822.91,356.56,822.91,356.56z"/>
		<path class="st117" d="M460.63,565.61c-1.19-1.06,1.15-4.62-2-4.88c-3.15-0.27-5.4,3.96-5.4,3.96s-2.38-1.72-2.67-3.43
			c-0.3-1.72,0.03-22.18,0-26.01c-0.03-3.83-2.67-7.06-2.67-7.06l2.38-16.64c0,0-11.68,13-14.06,15.78
			c-2.38,2.77,0.13,7.92-6.34,12.28c-4.44,2.99-14.92,9.65-21.05,13.54c1.2,3.34,2.13,6.65,2.7,9.83c0.44,2.46,0.79,5.19,1.08,8.03
			c3.36-1.89,9.25-5.05,17.01-8.56c12.54-5.68,19.01,1.06,19.8,4.72c0.79,3.67-5.08,16.73-4.69,18.05
			c0.33,1.09,11.54,9.94,15.9,12.83c1.73-0.15,3.38-0.29,4.94-0.42c-7.61-1.42-6.92-3.63-6.92-3.63v-26.83
			c5.14,1.62,15.59,3.7,19.96,4.53c-0.13-0.38-0.26-0.75-0.39-1.12c0.01,0.02,0.02,0.05,0.02,0.07
			C473.02,569.35,461.55,566.42,460.63,565.61z"/>
		<path class="st30" d="M599.39,593.86c-0.24-1.2-1.19-2.55-2.89-3.9c-0.34-0.27-0.73-0.54-1.13-0.81c2.6,5.94,0.32,7.99-1,9.23
			c-1.58,1.48-16.24,6.18-21.52,7.5c-4.14,1.03-8.9,1.25-12.62,1.24c-0.01,1.69,0,4.42,0.15,6.99c5.46-0.08,11.93-1.54,15.77-3.21
			c0.56-0.25,1.2-0.5,1.86-0.76c5.41-2.12,13.6-4.63,15.83-5.57C596.36,603.5,600.18,597.82,599.39,593.86z"/>
		<path class="st118" d="M102.58,450.21c0.42-0.12-0.56-1.74-1.33-2.88c-3.21,0.34-15.82,1.92-16.66,1.64
			c-0.17-0.06-0.72-0.54-1.48-1.28c-0.44,0.53-0.98,1.22-1.57,2.01c0.98,0.6,2.45,1.43,3.61,1.74
			C87.07,451.93,101.92,450.4,102.58,450.21z"/>
		<path class="st94" d="M127.13,569.04c-1.99,0.53-17.68,0-23.62,0c-3.41,0-6.36-1.26-8.25-2.34c0.32,1.14,0.57,1.9,0.73,2.21
			c1.45,2.9,19.8,2.77,29.05,2.11c5.17-0.37,7.08-2.73,7.8-6.56C131.06,567.11,128.52,568.67,127.13,569.04z"/>
	</g>
</g>
</svg>
